<?xml version="1.0" encoding="utf-8"?>
<!-- Generator: Adobe Illustrator 21.1.0, SVG Export Plug-In . SVG Version: 6.00 Build 0)  -->
<svg version="1.1" id="Layer_1" xmlns="http://www.w3.org/2000/svg" xmlns:xlink="http://www.w3.org/1999/xlink" x="0px" y="0px"
	 viewBox="0 0 300 300" style="enable-background:new 0 0 300 300;" xml:space="preserve">
<style type="text/css">
	.st0{fill:#F9CDCD;stroke:#070707;stroke-width:3;stroke-miterlimit:10;}
	.st1{fill:#FFFFFF;stroke:#070707;stroke-width:3;stroke-miterlimit:10;}
</style>
<g>
	<path class="st0" d="M940.8,316.1c-6.9-40.3-37-32.6-46.2-18.9c-9.6,14.2-9.6,32-5.6,43.2l19.9,47c0,0,30.9-22.2,44.4-27.6
		c8.1-3.2,27.4-8.5,31.2-26.2C987.7,318.7,965.9,291.8,940.8,316.1z"/>
	<path class="st1" d="M905.4,320.5c-5.1,6.9-14.8,16.7-28,14.7c-1.1-0.2-1.8,1.2-1,2c5,5,12.7,15.7,9.5,32.7c-0.2,1.3,1.3,2,2.1,1
		c5.3-7.2,15.6-17.9,29.5-17.3c1.2,0,1.7-1.4,0.8-2.1c-5.3-4.3-13.5-13.7-10.7-29.9C907.7,320.1,906.1,319.4,905.4,320.5z"/>
	<path class="st1" d="M964.5,317.4c-3,3.8-7.7,8.6-14.5,7.8c-0.8-0.1-1.3,0.9-0.8,1.5c2.8,2.9,6.7,9.3,5,17.6
		c-0.2,0.9,1,1.5,1.6,0.7c4.5-6.3,7.5-9.2,14.8-9.1c0.8,0,1.3-1.5,0.8-1.9c-3-2.5-6.7-6.6-5.2-15.9
		C966.2,317.2,965,316.7,964.5,317.4z"/>
</g>
<g>
	<path class="st0" d="M153.9,116.3c-23.9-41.7-54-21-58.7-2.1c-4.8,19.6,2.4,39.2,11.3,50l41,43.9c0,0,25.1-37,37.9-48.4
		c7.6-6.8,26.8-20.5,23.9-41.6C206.7,100.1,171.8,79.3,153.9,116.3z"/>
	<path class="st1" d="M116.6,135.4c-2.8,9.7-9.6,24.5-25,27.6c-1.3,0.3-1.5,2.1-0.3,2.6c7.5,3.5,20.4,12.2,23.7,32.2
		c0.2,1.5,2.3,1.7,2.7,0.2c2.9-10.1,10-26.1,25.5-31.1c1.3-0.4,1.3-2.2,0-2.6c-7.6-2.6-20.5-9.7-23.9-28.7
		C119,134.1,117,134,116.6,135.4z"/>
	<path class="st1" d="M180.6,108.1c-1.7,5.4-5,12.6-12.9,14.5c-0.9,0.2-1.1,1.5-0.3,2c4.2,2.1,11.2,7.6,12.6,17.4
		c0.2,1.1,1.8,1.2,2.1,0.1c2.4-8.7,4.6-13.2,12.7-16.1c0.8-0.3,0.9-2.1,0.1-2.5c-4.3-1.5-10-4.6-12.2-15.4
		C182.4,107.1,180.9,107.1,180.6,108.1z"/>
</g>
</svg>
