<?xml version="1.0" encoding="utf-8"?>
<!-- Generator: Adobe Illustrator 21.1.0, SVG Export Plug-In . SVG Version: 6.00 Build 0)  -->
<svg version="1.1" id="Layer_1" xmlns="http://www.w3.org/2000/svg" xmlns:xlink="http://www.w3.org/1999/xlink" x="0px" y="0px"
	 viewBox="0 0 300 300" style="enable-background:new 0 0 300 300;" xml:space="preserve">
<style type="text/css">
	.st0{fill:#F9CDCD;stroke:#070707;stroke-width:3;stroke-miterlimit:10;}
	.st1{fill:#FFFFFF;stroke:#070707;stroke-width:3;stroke-miterlimit:10;}
	.st2{fill:#FFFFFF;}
	.st3{fill:#FFFFFF;stroke:#231F20;stroke-width:3;stroke-miterlimit:10;}
</style>
<g>
	<path class="st0" d="M940.8,316.1c-6.9-40.3-37-32.6-46.2-18.9c-9.6,14.2-9.6,32-5.6,43.2l19.9,47c0,0,30.9-22.2,44.4-27.6
		c8.1-3.2,27.4-8.5,31.2-26.2C987.7,318.7,965.9,291.8,940.8,316.1z"/>
	<path class="st1" d="M905.4,320.5c-5.1,6.9-14.8,16.7-28,14.7c-1.1-0.2-1.8,1.2-1,2c5,5,12.7,15.7,9.5,32.7c-0.2,1.3,1.3,2,2.1,1
		c5.3-7.2,15.6-17.9,29.5-17.3c1.2,0,1.7-1.4,0.8-2.1c-5.3-4.3-13.5-13.7-10.7-29.9C907.7,320.1,906.1,319.4,905.4,320.5z"/>
	<path class="st1" d="M964.5,317.4c-3,3.8-7.7,8.6-14.5,7.8c-0.8-0.1-1.3,0.9-0.8,1.5c2.8,2.9,6.7,9.3,5,17.6
		c-0.2,0.9,1,1.5,1.6,0.7c4.5-6.3,7.5-9.2,14.8-9.1c0.8,0,1.3-1.5,0.8-1.9c-3-2.5-6.7-6.6-5.2-15.9
		C966.2,317.2,965,316.7,964.5,317.4z"/>
</g>
<g>
	<polygon class="st2" points="137.9,128 112.2,120.2 89,129.7 105.9,165.7 132.2,186.7 157.1,169.1 152.2,134 	"/>
	<g>
		<path class="st3" d="M121.3,118.4c-10.4-8-22.2-3.5-29.1,2.3c-3.7,3.1-8.7,9.1-9.9,13.7c-1.2,4.6-0.4,11,6.5,15.7"/>
		<path class="st3" d="M112.2,124.9c8.1-7,20.2-9.1,30.1-5c4.3,1.8,8.2,4.5,12.1,7.1c9.9,6.4,20.4,13.7,31.7,17.1
			c7.4,2.3,15.8,0.5,21.4,5.9c2.2,2.1,3.9,6.2,3.7,9.2c-0.2,3.3-2.8,6-5.8,7.3c-3,1.3-6.4,1.4-9.7,1.2c-10.4-0.6-20.6-3.7-29.5-8.9"
			/>
		<path class="st3" d="M155.8,145.9c15.3,11.5,10.1,20,7.7,24.1c-3.6,6-9.7,8-15.5,8.8"/>
		<path class="st3" d="M147.6,169.6c0.9,32.4-25.9,22.5-30.8,12.4"/>
		<path class="st3" d="M128.3,181.9c-8.8,1.3-17.3-0.7-25-5S89.6,164.7,89,155.9c-0.5-8.4,3.7-16.3,7.9-23.5"/>
	</g>
</g>
</svg>
