<?xml version="1.0" encoding="utf-8"?>
<!-- Generator: Adobe Illustrator 21.1.0, SVG Export Plug-In . SVG Version: 6.00 Build 0)  -->
<svg version="1.1" id="Layer_1" xmlns="http://www.w3.org/2000/svg" xmlns:xlink="http://www.w3.org/1999/xlink" x="0px" y="0px"
	 viewBox="0 0 300 300" style="enable-background:new 0 0 300 300;" xml:space="preserve">
<style type="text/css">
	.st0{fill:#F96C5A;stroke:#070707;stroke-width:3;stroke-miterlimit:10;}
	.st1{fill:#FFFFFF;stroke:#070707;stroke-width:3;stroke-miterlimit:10;}
	.st2{fill:#FC6559;stroke:#070707;stroke-width:3;stroke-miterlimit:10;}
</style>
<g>
	<path class="st0" d="M148.6,215.7c12.8-2.7,26.8-6.1,34.7-16.2c9.6-12.4,7-31.4,17.2-43c0.7-0.7-0.1-1.9-1.1-1.6
		c-4.8,1.4-8.5,8.7-15.1,5.5c-2.1-1-3.7-2.8-4.6-4.8c-2-4.6-1.2-9.5-1.2-14.4c0-12.4-5.8-24.5-13.8-34.4
		c-7.2-8.8-16.1-16.2-25.1-23.3c-1.1-0.8-2.6,0.1-2.3,1.3c2.2,9.5,3.6,19.3,1.6,28.8c-1.9,8.9-7.6,17.5-15.9,21.5
		c-2.6,1.3-5.9-0.2-6.7-3l-0.9-2.8c-0.1-0.4-0.7-0.5-0.9-0.1c-5,8.6-9.9,17.3-12.7,26.8c-3,9.8-3.6,20.7,0.2,30.3
		C109.6,205.1,124.1,221,148.6,215.7z"/>
	<path class="st1" d="M133.5,199.2c-6.4-3.8-13.3-8.2-15.7-14.9c-2.8-7.8,1.2-16.7-1.2-24.3c-0.3-1,1-1.6,1.6-0.8
		c1.1,1.4,1.9,3.2,3.4,4c2.2,1.2,5-0.1,6.4-2c1.4-1.9,1.8-4.3,2.5-6.6c2.1-6.5,7.3-11.7,13.3-15.4c5-3.1,10.7-5.2,16.3-7.2
		c1.1-0.4,2,0.8,1.5,1.7c-2.6,4.3-4.7,8.9-5.2,13.8c-0.6,6-1.4,17.3,4.1,20.6l5.4-7.6c0.3-0.4,0.9-0.2,1,0.2
		c1.2,5.5,2.3,11.1,2,16.6c-0.3,6.9-5.3,15.9-10.8,20.2C151.3,202.7,142.9,204.8,133.5,199.2z"/>
	<path class="st2" d="M117.5,116.8c-0.1-0.3-0.2-0.6-0.3-1c-2.4-7-2.5-14-0.4-20.5c3.4,0.7,5.1,3.7,5.9,6.2
		c1.3,3.6,2.5,7.3,2.3,10.8c-0.3,3.5-2.3,6.9-6.5,8.3L117.5,116.8z"/>
</g>
</svg>
