<?xml version="1.0" encoding="utf-8"?>
<!-- Generator: Adobe Illustrator 21.1.0, SVG Export Plug-In . SVG Version: 6.00 Build 0)  -->
<svg version="1.1" id="Layer_1" xmlns="http://www.w3.org/2000/svg" xmlns:xlink="http://www.w3.org/1999/xlink" x="0px" y="0px"
	 viewBox="0 0 300 300" style="enable-background:new 0 0 300 300;" xml:space="preserve">
<style type="text/css">
	.st0{enable-background:new    ;}
</style>
<g>
	<g>
		<g>
			<g>
				<g class="st0">
					<defs>
						<polygon id="SVGID_1_" class="st0" points="84.5,172.7 104.5,161.6 123.9,149.7 143.8,138.7 163.3,126.9 176.2,134.8 
							189.4,141.9 202.1,149.8 215.5,157.2 195.5,168.3 176.1,180.2 156.2,191.1 136.7,203 123.8,195.1 110.6,188 97.9,180.1 						
							"/>
					</defs>
					<use xlink:href="#SVGID_1_"  style="overflow:visible;fill:#F96C5A;"/>
					<clipPath id="SVGID_2_">
						<use xlink:href="#SVGID_1_"  style="overflow:visible;"/>
					</clipPath>
					
						<use xlink:href="#SVGID_1_"  style="overflow:visible;fill:none;stroke:#070707;stroke-width:3;stroke-linecap:round;stroke-linejoin:round;stroke-miterlimit:10;"/>
				</g>
			</g>
		</g>
		<g>
			<g>
				<g class="st0">
					<defs>
						<polygon id="SVGID_3_" class="st0" points="84.5,157.1 104.5,146 123.9,134.2 143.8,123.2 163.3,111.3 176.2,119.3 
							189.4,126.4 202.1,134.3 215.5,141.7 195.5,152.8 176.1,164.6 156.2,175.6 136.7,187.5 123.8,179.5 110.6,172.5 97.9,164.5 
													"/>
					</defs>
					<use xlink:href="#SVGID_3_"  style="overflow:visible;fill:#F9CDCD;"/>
					<clipPath id="SVGID_4_">
						<use xlink:href="#SVGID_3_"  style="overflow:visible;"/>
					</clipPath>
					
						<use xlink:href="#SVGID_3_"  style="overflow:visible;fill:none;stroke:#070707;stroke-width:3;stroke-linecap:round;stroke-linejoin:round;stroke-miterlimit:10;"/>
				</g>
			</g>
		</g>
		<g>
			<g>
				<g class="st0">
					<defs>
						<polygon id="SVGID_5_" class="st0" points="84.5,142.8 104.5,131.7 123.9,119.8 143.8,108.9 163.3,97 176.2,104.9 189.4,112 
							202.1,119.9 215.5,127.3 195.5,138.4 176.1,150.3 156.2,161.3 136.7,173.1 123.8,165.2 110.6,158.1 97.9,150.2 						"/>
					</defs>
					<use xlink:href="#SVGID_5_"  style="overflow:visible;fill:#FFFFFF;"/>
					<clipPath id="SVGID_6_">
						<use xlink:href="#SVGID_5_"  style="overflow:visible;"/>
					</clipPath>
					
						<use xlink:href="#SVGID_5_"  style="overflow:visible;fill:none;stroke:#231F20;stroke-width:3;stroke-linecap:round;stroke-linejoin:round;stroke-miterlimit:10;"/>
				</g>
			</g>
		</g>
	</g>
</g>
</svg>
