<?xml version="1.0" encoding="utf-8"?>
<!-- Generator: Adobe Illustrator 21.1.0, SVG Export Plug-In . SVG Version: 6.00 Build 0)  -->
<svg version="1.1" id="Layer_1" xmlns="http://www.w3.org/2000/svg" xmlns:xlink="http://www.w3.org/1999/xlink" x="0px" y="0px"
	 viewBox="0 0 300 300" style="enable-background:new 0 0 300 300;" xml:space="preserve">
<style type="text/css">
	.st0{stroke:#000000;stroke-width:3;}
	.st1{fill:#CCE4EA;stroke:#070707;stroke-width:3;stroke-miterlimit:10;}
</style>
<g>
	<g>
		<g>
			<g>
				<path class="st0" d="M146.9,132.5c0.1,7.8,6.2,12.3,12.7,12.3c3.4,0,6.3-1.1,8.7-3.4c2.5-2.4,3.7-5.5,3.7-9.5s-1.2-7.1-3.7-9.4
					c-6.8-7.2-21.9-3.1-21.3,9.3V132.5z M183.8,110.1c5.5,5.9,8.2,13.1,8.2,21.7s-2.7,15.8-8.2,21.7c-5.3,5.9-12,8.8-19.8,8.8
					c-7.5,0-13-2.2-16.6-6.5v29.9h-19.3v-83.2h16.4l1.5,7.3c4-5.7,10.1-8.6,18-8.6C171.8,101.3,178.5,104.2,183.8,110.1z"/>
				<path class="st0" d="M146.7,132.6c0.1,7.8,6.2,12.3,12.7,12.3c3.4,0,6.3-1.1,8.7-3.4c2.5-2.4,3.7-5.5,3.7-9.5s-1.2-7.1-3.7-9.4
					c-6.8-7.2-21.9-3.1-21.3,9.3V132.6z M183.6,110.2c5.4,5.9,8.2,13.1,8.2,21.7s-2.8,15.8-8.2,21.7c-5.4,5.8-12,8.8-19.8,8.8
					c-7.5,0-13-2.2-16.6-6.5v29.9h-19.3v-83.2h16.4l1.5,7.3c4-5.7,10.1-8.6,18-8.6C171.6,101.4,178.2,104.4,183.6,110.2z"/>
				<path class="st0" d="M146.5,132.7c0.1,7.8,6.2,12.3,12.7,12.3c3.4,0,6.3-1.1,8.7-3.4c2.5-2.4,3.7-5.5,3.7-9.5s-1.2-7.1-3.7-9.4
					c-6.8-7.2-21.9-3.1-21.3,9.3V132.7z M183.4,110.4c5.4,5.9,8.2,13.1,8.2,21.7s-2.8,15.8-8.2,21.7c-5.4,5.8-12,8.8-19.8,8.8
					c-7.5,0-13-2.2-16.6-6.5V186h-19.3v-83.2h16.4l1.5,7.3c4-5.7,10.1-8.6,18-8.6C171.4,101.5,178,104.5,183.4,110.4z"/>
				<path class="st0" d="M146.3,132.9c0.1,7.8,6.2,12.3,12.7,12.3c3.4,0,6.3-1.1,8.7-3.4c2.5-2.4,3.7-5.5,3.7-9.5s-1.2-7.1-3.7-9.4
					c-6.8-7.2-21.9-3.1-21.3,9.3V132.9z M183.2,110.5c5.4,5.9,8.2,13.1,8.2,21.7s-2.8,15.8-8.2,21.7c-5.4,5.8-12,8.8-19.8,8.8
					c-7.5,0-13-2.2-16.6-6.5v29.9h-19.3v-83.2h16.4l1.5,7.3c4-5.7,10.1-8.6,18-8.6C171.2,101.7,177.8,104.7,183.2,110.5z"/>
				<path class="st0" d="M146.1,133c0.1,7.8,6.2,12.3,12.7,12.3c3.4,0,6.3-1.1,8.7-3.4c2.5-2.4,3.7-5.5,3.7-9.5s-1.2-7.1-3.7-9.4
					c-6.8-7.2-21.9-3.1-21.3,9.3V133z M183,110.6c5.4,5.9,8.2,13.1,8.2,21.7s-2.8,15.8-8.2,21.7c-5.4,5.8-12,8.8-19.8,8.8
					c-7.5,0-13-2.2-16.6-6.5v29.9h-19.3V103h16.4l1.5,7.3c4-5.7,10.1-8.6,18-8.6C171,101.8,177.6,104.8,183,110.6z"/>
				<path class="st0" d="M145.9,133.1c0.1,7.8,6.2,12.3,12.7,12.3c3.4,0,6.3-1.1,8.7-3.4c2.5-2.4,3.7-5.5,3.7-9.5s-1.2-7.1-3.7-9.4
					c-6.8-7.2-21.9-3.1-21.3,9.3V133.1z M182.8,110.7c5.4,5.9,8.2,13.1,8.2,21.7s-2.8,15.8-8.2,21.7c-5.4,5.8-12,8.8-19.8,8.8
					c-7.5,0-13-2.2-16.6-6.5v29.9h-19.3v-83.2h16.4l1.5,7.3c4-5.7,10.1-8.6,18-8.6C170.8,101.9,177.4,104.9,182.8,110.7z"/>
				<path class="st0" d="M145.7,133.2c0.1,7.8,6.2,12.3,12.7,12.3c3.4,0,6.3-1.1,8.7-3.4c2.5-2.4,3.7-5.5,3.7-9.5s-1.2-7.1-3.7-9.4
					c-6.8-7.2-21.9-3.1-21.3,9.3V133.2z M182.6,110.9c5.4,5.9,8.2,13.1,8.2,21.7s-2.8,15.8-8.2,21.7c-5.4,5.8-12,8.8-19.8,8.8
					c-7.5,0-13-2.2-16.6-6.5v29.9h-19.3v-83.2h16.4l1.5,7.3c4-5.7,10.1-8.6,18-8.6C170.6,102,177.2,105,182.6,110.9z"/>
				<path class="st0" d="M145.5,133.4c0.1,7.8,6.2,12.3,12.7,12.3c3.4,0,6.3-1.1,8.7-3.4c2.5-2.4,3.7-5.5,3.7-9.5s-1.2-7.1-3.7-9.4
					c-6.8-7.2-21.9-3.1-21.3,9.3V133.4z M182.4,111c5.4,5.9,8.2,13.1,8.2,21.7s-2.8,15.8-8.2,21.7c-5.4,5.8-12,8.8-19.8,8.8
					c-7.5,0-13-2.2-16.6-6.5v29.9h-19.3v-83.2h16.4l1.5,7.3c4-5.7,10.1-8.6,18-8.6C170.4,102.2,177,105.2,182.4,111z"/>
				<path class="st0" d="M145.4,133.5c0.1,7.8,6.2,12.3,12.7,12.3c3.4,0,6.3-1.1,8.7-3.4c2.5-2.4,3.7-5.5,3.7-9.5s-1.2-7.1-3.7-9.4
					c-6.8-7.2-21.9-3.1-21.3,9.3V133.5z M182.2,111.1c5.4,5.9,8.2,13.1,8.2,21.7s-2.8,15.8-8.2,21.7c-5.4,5.8-12,8.8-19.8,8.8
					c-7.5,0-13-2.2-16.6-6.5v29.9h-19.3v-83.2h16.4l1.5,7.3c4-5.7,10.1-8.6,18-8.6C170.2,102.3,176.8,105.3,182.2,111.1z"/>
				<path class="st0" d="M145.2,133.6c0.1,7.8,6.2,12.3,12.7,12.3c3.4,0,6.3-1.1,8.7-3.4c2.5-2.4,3.7-5.5,3.7-9.5s-1.2-7.1-3.7-9.4
					c-6.8-7.2-21.9-3.1-21.3,9.3V133.6z M182,111.3c5.4,5.9,8.2,13.1,8.2,21.7s-2.8,15.8-8.2,21.7c-5.4,5.8-12,8.8-19.8,8.8
					c-7.5,0-13-2.2-16.6-6.5v29.9h-19.3v-83.2h16.4l1.5,7.3c4-5.7,10.1-8.6,18-8.6C170,102.4,176.6,105.4,182,111.3z"/>
				<path class="st0" d="M145,133.8c0.1,7.8,6.2,12.3,12.7,12.3c3.4,0,6.3-1.1,8.7-3.4c2.5-2.4,3.7-5.5,3.7-9.5s-1.2-7.1-3.7-9.4
					c-6.8-7.2-21.9-3.1-21.3,9.3V133.8z M181.8,111.4c5.4,5.9,8.2,13.1,8.2,21.7s-2.8,15.8-8.2,21.7c-5.4,5.8-12,8.8-19.8,8.8
					c-7.5,0-13-2.2-16.6-6.5V187h-19.3v-83.2h16.4l1.5,7.3c4-5.7,10.1-8.6,18-8.6C169.8,102.6,176.4,105.6,181.8,111.4z"/>
				<path class="st0" d="M144.8,133.9c0.1,7.8,6.2,12.3,12.7,12.3c3.4,0,6.3-1.1,8.7-3.4c2.5-2.4,3.7-5.5,3.7-9.5s-1.2-7.1-3.7-9.4
					c-6.8-7.2-21.9-3.1-21.3,9.3V133.9z M181.6,111.5c5.4,5.9,8.2,13.1,8.2,21.7s-2.8,15.8-8.2,21.7c-5.4,5.8-12,8.8-19.8,8.8
					c-7.5,0-13-2.2-16.6-6.5v29.9h-19.3v-83.2h16.4l1.5,7.3c4-5.7,10.1-8.6,18-8.6C169.6,102.7,176.3,105.7,181.6,111.5z"/>
				<path class="st0" d="M144.6,134c0.1,7.8,6.2,12.3,12.7,12.3c3.4,0,6.3-1.1,8.7-3.4c2.5-2.4,3.7-5.5,3.7-9.5s-1.2-7.1-3.7-9.4
					c-6.8-7.2-21.9-3.1-21.3,9.3V134z M181.4,111.6c5.4,5.9,8.2,13.1,8.2,21.7s-2.8,15.8-8.2,21.7c-5.4,5.8-12,8.8-19.8,8.8
					c-7.5,0-13-2.2-16.6-6.5v29.9h-19.3v-83.2h16.4l1.5,7.3c4-5.7,10.1-8.6,18-8.6C169.4,102.8,176.1,105.8,181.4,111.6z"/>
				<path class="st0" d="M144.4,134.1c0.1,7.8,6.2,12.3,12.7,12.3c3.4,0,6.3-1.1,8.7-3.4c2.5-2.4,3.7-5.5,3.7-9.5s-1.2-7.1-3.7-9.4
					c-6.8-7.2-21.9-3.1-21.3,9.3V134.1z M181.2,111.8c5.4,5.9,8.2,13.1,8.2,21.7s-2.8,15.8-8.2,21.7c-5.4,5.8-12,8.8-19.8,8.8
					c-7.5,0-13-2.2-16.6-6.5v29.9h-19.3v-83.2h16.4l1.5,7.3c4-5.7,10.1-8.6,18-8.6C169.2,102.9,175.9,106,181.2,111.8z"/>
				<path class="st0" d="M144.2,134.3c0.1,7.8,6.2,12.3,12.7,12.3c3.4,0,6.3-1.1,8.7-3.4c2.5-2.4,3.7-5.5,3.7-9.5s-1.2-7.1-3.7-9.4
					c-6.8-7.2-21.9-3.1-21.3,9.3V134.3z M181,111.9c5.4,5.9,8.2,13.1,8.2,21.7s-2.8,15.8-8.2,21.7c-5.4,5.8-12,8.8-19.8,8.8
					c-7.5,0-13-2.2-16.6-6.5v29.9h-19.3v-83.2h16.4l1.5,7.3c4-5.7,10.1-8.6,18-8.6C169,103.1,175.7,106.1,181,111.9z"/>
				<path class="st0" d="M144,134.4c0.1,7.8,6.2,12.3,12.7,12.3c3.4,0,6.3-1.1,8.7-3.4c2.5-2.4,3.7-5.5,3.7-9.5s-1.2-7.1-3.7-9.4
					c-6.8-7.2-21.9-3.1-21.3,9.3V134.4z M180.8,112c5.4,5.9,8.2,13.1,8.2,21.7s-2.8,15.8-8.2,21.7c-5.4,5.8-12,8.8-19.8,8.8
					c-7.5,0-13-2.2-16.6-6.5v29.9h-19.3v-83.2h16.4l1.5,7.3c4-5.7,10.1-8.6,18-8.6C168.9,103.2,175.5,106.2,180.8,112z"/>
				<path class="st0" d="M143.8,134.5c0.1,7.8,6.2,12.3,12.7,12.3c3.4,0,6.3-1.1,8.7-3.4c2.5-2.4,3.7-5.5,3.7-9.5s-1.2-7.1-3.7-9.4
					c-6.8-7.2-21.9-3.1-21.3,9.3V134.5z M180.6,112.2c5.4,5.9,8.2,13.1,8.2,21.7s-2.8,15.8-8.2,21.7c-5.4,5.8-12,8.8-19.8,8.8
					c-7.5,0-13-2.2-16.6-6.5v29.9h-19.3v-83.2h16.4l1.5,7.3c4-5.7,10.1-8.6,18-8.6C168.7,103.3,175.3,106.3,180.6,112.2z"/>
				<path class="st0" d="M143.6,134.7c0.1,7.8,6.2,12.3,12.7,12.3c3.4,0,6.3-1.1,8.7-3.4c2.5-2.4,3.7-5.5,3.7-9.5s-1.2-7.1-3.7-9.4
					c-6.8-7.2-21.9-3.1-21.3,9.3V134.7z M180.4,112.3c5.4,5.9,8.2,13.1,8.2,21.7s-2.8,15.8-8.2,21.7c-5.4,5.8-12,8.8-19.8,8.8
					c-7.5,0-13-2.2-16.6-6.5v29.9h-19.3v-83.2h16.4l1.5,7.3c4-5.7,10.1-8.6,18-8.6C168.5,103.5,175.1,106.5,180.4,112.3z"/>
				<path class="st0" d="M143.4,134.8c0.1,7.8,6.2,12.3,12.7,12.3c3.4,0,6.3-1.1,8.7-3.4c2.5-2.4,3.7-5.5,3.7-9.5s-1.2-7.1-3.7-9.4
					c-6.8-7.2-21.9-3.1-21.3,9.3V134.8z M180.2,112.4c5.4,5.9,8.2,13.1,8.2,21.7s-2.8,15.8-8.2,21.7c-5.4,5.8-12,8.8-19.8,8.8
					c-7.5,0-13-2.2-16.6-6.5V188h-19.3v-83.2h16.4l1.5,7.3c4-5.7,10.1-8.6,18-8.6C168.3,103.6,174.9,106.6,180.2,112.4z"/>
				<path class="st0" d="M143.2,134.9c0.1,7.8,6.2,12.3,12.7,12.3c3.4,0,6.3-1.1,8.7-3.4c2.5-2.4,3.7-5.5,3.7-9.5s-1.2-7.1-3.7-9.4
					c-6.8-7.2-21.9-3.1-21.3,9.3V134.9z M180,112.5c5.4,5.9,8.2,13.1,8.2,21.7s-2.8,15.8-8.2,21.7c-5.4,5.8-12,8.8-19.8,8.8
					c-7.5,0-13-2.2-16.6-6.5v29.9h-19.3V105h16.4l1.5,7.3c4-5.7,10.1-8.6,18-8.6C168.1,103.7,174.7,106.7,180,112.5z"/>
				<path class="st0" d="M143,135.1c0.1,7.8,6.2,12.3,12.7,12.3c3.4,0,6.3-1.1,8.7-3.4c2.5-2.4,3.7-5.5,3.7-9.5s-1.2-7.1-3.7-9.4
					c-6.8-7.2-21.9-3.1-21.3,9.3V135.1z M179.8,112.7c5.4,5.9,8.2,13.1,8.2,21.7s-2.8,15.8-8.2,21.7c-5.4,5.8-12,8.8-19.8,8.8
					c-7.5,0-13-2.2-16.6-6.5v29.9h-19.3v-83.2h16.4l1.5,7.3c4-5.7,10.1-8.6,18-8.6C167.9,103.8,174.5,106.9,179.8,112.7z"/>
				<path class="st0" d="M142.8,135.2c0.1,7.8,6.2,12.3,12.7,12.3c3.4,0,6.3-1.1,8.7-3.4c2.5-2.4,3.7-5.5,3.7-9.5s-1.2-7.1-3.7-9.4
					c-6.8-7.2-21.9-3.1-21.3,9.3V135.2z M179.6,112.8c5.4,5.9,8.2,13.1,8.2,21.7s-2.8,15.8-8.2,21.7c-5.4,5.8-12,8.8-19.8,8.8
					c-7.5,0-13-2.2-16.6-6.5v29.9h-19.3v-83.2h16.4l1.5,7.3c4-5.7,10.1-8.6,18-8.6C167.7,104,174.3,107,179.6,112.8z"/>
				<path class="st0" d="M142.6,135.3c0.1,7.8,6.2,12.3,12.7,12.3c3.4,0,6.3-1.1,8.7-3.4c2.5-2.4,3.7-5.5,3.7-9.5s-1.2-7.1-3.7-9.4
					c-6.8-7.2-21.9-3.1-21.3,9.3V135.3z M179.4,112.9c5.4,5.9,8.2,13.1,8.2,21.7s-2.8,15.8-8.2,21.7c-5.4,5.8-12,8.8-19.8,8.8
					c-7.5,0-13-2.2-16.6-6.5v29.9h-19.3v-83.2h16.4l1.5,7.3c4-5.7,10.1-8.6,18-8.6C167.5,104.1,174.1,107.1,179.4,112.9z"/>
				<path class="st0" d="M142.4,135.4c0.1,7.8,6.2,12.3,12.7,12.3c3.4,0,6.3-1.1,8.7-3.4c2.5-2.4,3.7-5.5,3.7-9.5s-1.2-7.1-3.7-9.4
					c-6.8-7.2-21.9-3.1-21.3,9.3V135.4z M179.2,113.1c5.4,5.9,8.2,13.1,8.2,21.7s-2.8,15.8-8.2,21.7c-5.4,5.8-12,8.8-19.8,8.8
					c-7.5,0-13-2.2-16.6-6.5v29.9h-19.3v-83.2h16.4l1.5,7.3c4-5.7,10.1-8.6,18-8.6C167.3,104.2,173.9,107.2,179.2,113.1z"/>
				<path class="st0" d="M142.2,135.6c0.1,7.8,6.2,12.3,12.7,12.3c3.4,0,6.3-1.1,8.7-3.4c2.5-2.4,3.7-5.5,3.7-9.5s-1.2-7.1-3.7-9.4
					c-6.8-7.2-21.9-3.1-21.3,9.3V135.6z M179,113.2c5.4,5.9,8.2,13.1,8.2,21.7s-2.8,15.8-8.2,21.7c-5.4,5.8-12,8.8-19.8,8.8
					c-7.5,0-13-2.2-16.6-6.5v29.9h-19.3v-83.2h16.4l1.5,7.3c4-5.7,10.1-8.6,18-8.6C167.1,104.4,173.7,107.4,179,113.2z"/>
				<path class="st0" d="M142,135.7c0.1,7.8,6.2,12.3,12.7,12.3c3.4,0,6.3-1.1,8.7-3.4c2.5-2.4,3.7-5.5,3.7-9.5s-1.2-7.1-3.7-9.4
					c-6.8-7.2-21.9-3.1-21.3,9.3V135.7z M178.8,113.3c5.4,5.9,8.2,13.1,8.2,21.7s-2.8,15.8-8.2,21.7c-5.4,5.8-12,8.8-19.8,8.8
					c-7.5,0-13-2.2-16.6-6.5v29.9h-19.3v-83.2h16.4l1.5,7.3c4-5.7,10.1-8.6,18-8.6C166.9,104.5,173.5,107.5,178.8,113.3z"/>
				<path class="st0" d="M141.8,135.8c0.1,7.8,6.2,12.3,12.7,12.3c3.4,0,6.3-1.1,8.7-3.4c2.5-2.4,3.7-5.5,3.7-9.5s-1.2-7.1-3.7-9.4
					c-6.8-7.2-21.9-3.1-21.3,9.3V135.8z M178.6,113.5c5.4,5.9,8.2,13.1,8.2,21.7s-2.8,15.8-8.2,21.7c-5.4,5.8-12,8.8-19.8,8.8
					c-7.5,0-13-2.2-16.6-6.5v29.9h-19.3v-83.2h16.4l1.5,7.3c4-5.7,10.1-8.6,18-8.6C166.7,104.6,173.3,107.6,178.6,113.5z"/>
				<path class="st0" d="M141.6,136c0.1,7.8,6.2,12.3,12.7,12.3c3.4,0,6.3-1.1,8.7-3.4c2.5-2.4,3.7-5.5,3.7-9.5s-1.2-7.1-3.7-9.4
					c-6.8-7.2-21.9-3.1-21.3,9.3V136z M178.4,113.6c5.4,5.9,8.2,13.1,8.2,21.7s-2.8,15.8-8.2,21.7c-5.4,5.8-12,8.8-19.8,8.8
					c-7.5,0-13-2.2-16.6-6.5v29.9h-19.3V106h16.4l1.5,7.3c4-5.7,10.1-8.6,18-8.6C166.5,104.7,173.1,107.8,178.4,113.6z"/>
				<path class="st0" d="M141.4,136.1c0.1,7.8,6.2,12.3,12.7,12.3c3.4,0,6.3-1.1,8.7-3.4c2.5-2.4,3.7-5.5,3.7-9.5s-1.2-7.1-3.7-9.4
					c-6.8-7.2-21.9-3.1-21.3,9.3V136.1z M178.2,113.7c5.4,5.9,8.2,13.1,8.2,21.7s-2.8,15.8-8.2,21.7c-5.4,5.8-12,8.8-19.8,8.8
					c-7.5,0-13-2.2-16.6-6.5v29.9h-19.3v-83.2h16.4l1.5,7.3c4-5.7,10.1-8.6,18-8.6C166.3,104.9,172.9,107.9,178.2,113.7z"/>
				<path class="st0" d="M141.2,136.2c0.1,7.8,6.2,12.3,12.7,12.3c3.4,0,6.3-1.1,8.7-3.4c2.5-2.4,3.7-5.5,3.7-9.5s-1.2-7.1-3.7-9.4
					c-6.8-7.2-21.9-3.1-21.3,9.3V136.2z M178,113.8c5.4,5.9,8.2,13.1,8.2,21.7s-2.8,15.8-8.2,21.7c-5.4,5.8-12,8.8-19.8,8.8
					c-7.5,0-13-2.2-16.6-6.5v29.9h-19.3v-83.2h16.4l1.5,7.3c4-5.7,10.1-8.6,18-8.6C166.1,105,172.7,108,178,113.8z"/>
				<path class="st0" d="M141,136.3c0.1,7.8,6.2,12.3,12.7,12.3c3.4,0,6.3-1.1,8.7-3.4c2.5-2.4,3.7-5.5,3.7-9.5s-1.2-7.1-3.7-9.4
					c-6.8-7.2-21.9-3.1-21.3,9.3V136.3z M177.8,114c5.4,5.9,8.2,13.1,8.2,21.7s-2.8,15.8-8.2,21.7c-5.4,5.8-12,8.8-19.8,8.8
					c-7.5,0-13-2.2-16.6-6.5v29.9h-19.3v-83.2h16.4l1.5,7.3c4-5.7,10.1-8.6,18-8.6C165.9,105.1,172.5,108.1,177.8,114z"/>
				<path class="st0" d="M140.8,136.5c0.1,7.8,6.2,12.3,12.7,12.3c3.4,0,6.3-1.1,8.7-3.4c2.5-2.4,3.7-5.5,3.7-9.5s-1.2-7.1-3.7-9.4
					c-6.8-7.2-21.9-3.1-21.3,9.3V136.5z M177.6,114.1c5.4,5.9,8.2,13.1,8.2,21.7s-2.8,15.8-8.2,21.7c-5.4,5.8-12,8.8-19.8,8.8
					c-7.5,0-13-2.2-16.6-6.5v29.9h-19.3v-83.2h16.4l1.5,7.3c4-5.7,10.1-8.6,18-8.6C165.7,105.3,172.3,108.3,177.6,114.1z"/>
				<path class="st0" d="M140.6,136.6c0.1,7.8,6.2,12.3,12.7,12.3c3.4,0,6.3-1.1,8.7-3.4c2.5-2.4,3.7-5.5,3.7-9.5s-1.2-7.1-3.7-9.4
					c-6.8-7.2-21.9-3.1-21.3,9.3V136.6z M177.4,114.2c5.4,5.9,8.2,13.1,8.2,21.7s-2.8,15.8-8.2,21.7c-5.4,5.8-12,8.8-19.8,8.8
					c-7.5,0-13-2.2-16.6-6.5v29.9h-19.3v-83.2h16.4l1.5,7.3c4-5.7,10.1-8.6,18-8.6C165.5,105.4,172.1,108.4,177.4,114.2z"/>
				<path class="st0" d="M140.4,136.7c0.1,7.8,6.2,12.3,12.7,12.3c3.4,0,6.3-1.1,8.7-3.4c2.5-2.4,3.7-5.5,3.7-9.5s-1.2-7.1-3.7-9.4
					c-6.8-7.2-21.9-3.1-21.3,9.3V136.7z M177.2,114.4c5.4,5.9,8.2,13.1,8.2,21.7s-2.8,15.8-8.2,21.7c-5.4,5.8-12,8.8-19.8,8.8
					c-7.5,0-13-2.2-16.6-6.5V190h-19.3v-83.2h16.4l1.5,7.3c4-5.7,10.1-8.6,18-8.6C165.3,105.5,171.9,108.5,177.2,114.4z"/>
				<path class="st0" d="M140.2,136.9c0.1,7.8,6.2,12.3,12.7,12.3c3.4,0,6.3-1.1,8.7-3.4c2.5-2.4,3.7-5.5,3.7-9.5s-1.2-7.1-3.7-9.4
					c-6.8-7.2-21.9-3.1-21.3,9.3V136.9z M177,114.5c5.4,5.9,8.2,13.1,8.2,21.7s-2.8,15.8-8.2,21.7c-5.4,5.8-12,8.8-19.8,8.8
					c-7.5,0-13-2.2-16.6-6.5v29.9h-19.3v-83.2h16.4l1.5,7.3c4-5.7,10.1-8.6,18-8.6C165.1,105.7,171.7,108.7,177,114.5z"/>
				<path class="st0" d="M140,137c0.1,7.8,6.2,12.3,12.7,12.3c3.4,0,6.3-1.1,8.7-3.4c2.5-2.4,3.7-5.5,3.7-9.5s-1.2-7.1-3.7-9.4
					c-6.8-7.2-21.9-3.1-21.3,9.3V137z M176.8,114.6c5.4,5.9,8.2,13.1,8.2,21.7s-2.8,15.8-8.2,21.7c-5.4,5.8-12,8.8-19.8,8.8
					c-7.5,0-13-2.2-16.6-6.5v29.9h-19.3V107h16.4l1.5,7.3c4-5.7,10.1-8.6,18-8.6C164.9,105.8,171.5,108.8,176.8,114.6z"/>
				<path class="st0" d="M139.8,137.1c0.1,7.8,6.2,12.3,12.7,12.3c3.4,0,6.3-1.1,8.7-3.4c2.5-2.4,3.7-5.5,3.7-9.5s-1.2-7.1-3.7-9.4
					c-6.8-7.2-21.9-3.1-21.3,9.3V137.1z M176.6,114.7c5.4,5.9,8.2,13.1,8.2,21.7s-2.8,15.8-8.2,21.7c-5.4,5.8-12,8.8-19.8,8.8
					c-7.5,0-13-2.2-16.6-6.5v29.9h-19.3v-83.2h16.4l1.5,7.3c4-5.7,10.1-8.6,18-8.6C164.7,105.9,171.3,108.9,176.6,114.7z"/>
				<path class="st0" d="M139.6,137.2c0.1,7.8,6.2,12.3,12.7,12.3c3.4,0,6.3-1.1,8.7-3.4c2.5-2.4,3.7-5.5,3.7-9.5s-1.2-7.1-3.7-9.4
					c-6.8-7.2-21.9-3.1-21.3,9.3V137.2z M176.4,114.9c5.4,5.9,8.2,13.1,8.2,21.7s-2.8,15.8-8.2,21.7c-5.4,5.8-12,8.8-19.8,8.8
					c-7.5,0-13-2.2-16.6-6.5v29.9h-19.3v-83.2h16.4l1.5,7.3c4-5.7,10.1-8.6,18-8.6C164.5,106,171.1,109,176.4,114.9z"/>
				<path class="st0" d="M139.4,137.4c0.1,7.8,6.2,12.3,12.7,12.3c3.4,0,6.3-1.1,8.7-3.4c2.5-2.4,3.7-5.5,3.7-9.5s-1.2-7.1-3.7-9.4
					c-6.8-7.2-21.9-3.1-21.3,9.3V137.4z M176.2,115c5.4,5.9,8.2,13.1,8.2,21.7s-2.8,15.8-8.2,21.7c-5.4,5.8-12,8.8-19.8,8.8
					c-7.5,0-13-2.2-16.6-6.5v29.9h-19.3v-83.2h16.4l1.5,7.3c4-5.7,10.1-8.6,18-8.6C164.3,106.2,170.9,109.2,176.2,115z"/>
				<path class="st0" d="M139.2,137.5c0.1,7.8,6.2,12.3,12.7,12.3c3.4,0,6.3-1.1,8.7-3.4c2.5-2.4,3.7-5.5,3.7-9.5s-1.2-7.1-3.7-9.4
					c-6.8-7.2-21.9-3.1-21.3,9.3V137.5z M176.1,115.1c5.4,5.9,8.2,13.1,8.2,21.7s-2.8,15.8-8.2,21.7c-5.4,5.8-12,8.8-19.8,8.8
					c-7.5,0-13-2.2-16.6-6.5v29.9h-19.3v-83.2h16.4l1.5,7.3c4-5.7,10.1-8.6,18-8.6C164.1,106.3,170.7,109.3,176.1,115.1z"/>
				<path class="st0" d="M139,137.6c0.1,7.8,6.2,12.3,12.7,12.3c3.4,0,6.3-1.1,8.7-3.4c2.5-2.4,3.7-5.5,3.7-9.5s-1.2-7.1-3.7-9.4
					c-6.8-7.2-21.9-3.1-21.3,9.3V137.6z M175.9,115.3c5.4,5.9,8.2,13.1,8.2,21.7s-2.8,15.8-8.2,21.7c-5.4,5.8-12,8.8-19.8,8.8
					c-7.5,0-13-2.2-16.6-6.5v29.9h-19.3v-83.2h16.4l1.5,7.3c4-5.7,10.1-8.6,18-8.6C163.9,106.4,170.5,109.4,175.9,115.3z"/>
				<path class="st0" d="M138.8,137.8c0.1,7.8,6.2,12.3,12.7,12.3c3.4,0,6.3-1.1,8.7-3.4c2.5-2.4,3.7-5.5,3.7-9.5s-1.2-7.1-3.7-9.4
					c-6.8-7.2-21.9-3.1-21.3,9.3V137.8z M175.7,115.4c5.4,5.9,8.2,13.1,8.2,21.7s-2.8,15.8-8.2,21.7c-5.4,5.8-12,8.8-19.8,8.8
					c-7.5,0-13-2.2-16.6-6.5V191h-19.3v-83.2h16.4l1.5,7.3c4-5.7,10.1-8.6,18-8.6C163.7,106.6,170.3,109.6,175.7,115.4z"/>
				<path class="st0" d="M138.6,137.9c0.1,7.8,6.2,12.3,12.7,12.3c3.4,0,6.3-1.1,8.7-3.4c2.5-2.4,3.7-5.5,3.7-9.5s-1.2-7.1-3.7-9.4
					c-6.8-7.2-21.9-3.1-21.3,9.3V137.9z M175.5,115.5c5.4,5.9,8.2,13.1,8.2,21.7s-2.8,15.8-8.2,21.7c-5.4,5.8-12,8.8-19.8,8.8
					c-7.5,0-13-2.2-16.6-6.5v29.9h-19.3v-83.2h16.4l1.5,7.3c4-5.7,10.1-8.6,18-8.6C163.5,106.7,170.1,109.7,175.5,115.5z"/>
				<path class="st0" d="M138.4,138c0.1,7.8,6.2,12.3,12.7,12.3c3.4,0,6.3-1.1,8.7-3.4c2.5-2.4,3.7-5.5,3.7-9.5s-1.2-7.1-3.7-9.4
					c-6.8-7.2-21.9-3.1-21.3,9.3V138z M175.3,115.6c5.4,5.9,8.2,13.1,8.2,21.7s-2.8,15.8-8.2,21.7c-5.4,5.8-12,8.8-19.8,8.8
					c-7.5,0-13-2.2-16.6-6.5v29.9h-19.3v-83.2h16.4l1.5,7.3c4-5.7,10.1-8.6,18-8.6C163.3,106.8,169.9,109.8,175.3,115.6z"/>
				<path class="st0" d="M138.2,138.1c0.1,7.8,6.2,12.3,12.7,12.3c3.4,0,6.3-1.1,8.7-3.4c2.5-2.4,3.7-5.5,3.7-9.5s-1.2-7.1-3.7-9.4
					c-6.8-7.2-21.9-3.1-21.3,9.3V138.1z M175.1,115.8c5.4,5.9,8.2,13.1,8.2,21.7s-2.8,15.8-8.2,21.7c-5.4,5.8-12,8.8-19.8,8.8
					c-7.5,0-13-2.2-16.6-6.5v29.9h-19.3v-83.2h16.4l1.5,7.3c4-5.7,10.1-8.6,18-8.6C163.1,106.9,169.7,110,175.1,115.8z"/>
				<path class="st0" d="M138,138.3c0.1,7.8,6.2,12.3,12.7,12.3c3.4,0,6.3-1.1,8.7-3.4c2.5-2.4,3.7-5.5,3.7-9.5s-1.2-7.1-3.7-9.4
					c-6.8-7.2-21.9-3.1-21.3,9.3V138.3z M174.9,115.9c5.4,5.9,8.2,13.1,8.2,21.7s-2.8,15.8-8.2,21.7c-5.4,5.8-12,8.8-19.8,8.8
					c-7.5,0-13-2.2-16.6-6.5v29.9h-19.3v-83.2h16.4l1.5,7.3c4-5.7,10.1-8.6,18-8.6C162.9,107.1,169.5,110.1,174.9,115.9z"/>
				<path class="st0" d="M137.8,138.4c0.1,7.8,6.2,12.3,12.7,12.3c3.4,0,6.3-1.1,8.7-3.4c2.5-2.4,3.7-5.5,3.7-9.5s-1.2-7.1-3.7-9.4
					c-6.8-7.2-21.9-3.1-21.3,9.3V138.4z M174.7,116c5.4,5.9,8.2,13.1,8.2,21.7s-2.8,15.8-8.2,21.7c-5.4,5.8-12,8.8-19.8,8.8
					c-7.5,0-13-2.2-16.6-6.5v29.9H119v-83.2h16.4l1.5,7.3c4-5.7,10.1-8.6,18-8.6C162.7,107.2,169.3,110.2,174.7,116z"/>
				<path class="st0" d="M137.6,138.5c0.1,7.8,6.2,12.3,12.7,12.3c3.4,0,6.3-1.1,8.7-3.4c2.5-2.4,3.7-5.5,3.7-9.5s-1.2-7.1-3.7-9.4
					c-6.8-7.2-21.9-3.1-21.3,9.3V138.5z M174.5,116.2c5.4,5.9,8.2,13.1,8.2,21.7s-2.8,15.8-8.2,21.7c-5.4,5.8-12,8.8-19.8,8.8
					c-7.5,0-13-2.2-16.6-6.5v29.9h-19.3v-83.2h16.4l1.5,7.3c4-5.7,10.1-8.6,18-8.6C162.5,107.3,169.1,110.3,174.5,116.2z"/>
				<path class="st0" d="M137.4,138.7c0.1,7.8,6.2,12.3,12.7,12.3c3.4,0,6.3-1.1,8.7-3.4c2.5-2.4,3.7-5.5,3.7-9.5s-1.2-7.1-3.7-9.4
					c-6.8-7.2-21.9-3.1-21.3,9.3V138.7z M174.3,116.3c5.4,5.9,8.2,13.1,8.2,21.7s-2.8,15.8-8.2,21.7c-5.4,5.8-12,8.8-19.8,8.8
					c-7.5,0-13-2.2-16.6-6.5v29.9h-19.3v-83.2h16.4l1.5,7.3c4-5.7,10.1-8.6,18-8.6C162.3,107.5,168.9,110.5,174.3,116.3z"/>
				<path class="st0" d="M137.2,138.8c0.1,7.8,6.2,12.3,12.7,12.3c3.4,0,6.3-1.1,8.7-3.4c2.5-2.4,3.7-5.5,3.7-9.5s-1.2-7.1-3.7-9.4
					c-6.8-7.2-21.9-3.1-21.3,9.3V138.8z M174.1,116.4c5.4,5.9,8.2,13.1,8.2,21.7s-2.8,15.8-8.2,21.7c-5.4,5.8-12,8.8-19.8,8.8
					c-7.5,0-13-2.2-16.6-6.5V192h-19.3v-83.2h16.4l1.5,7.3c4-5.7,10.1-8.6,18-8.6C162.1,107.6,168.7,110.6,174.1,116.4z"/>
				<path class="st0" d="M137,138.9c0.1,7.8,6.2,12.3,12.7,12.3c3.4,0,6.3-1.1,8.7-3.4c2.5-2.4,3.7-5.5,3.7-9.5s-1.2-7.1-3.7-9.4
					c-6.8-7.2-21.9-3.1-21.3,9.3V138.9z M173.9,116.5c5.4,5.9,8.2,13.1,8.2,21.7s-2.8,15.8-8.2,21.7c-5.4,5.8-12,8.8-19.8,8.8
					c-7.5,0-13-2.2-16.6-6.5v29.9h-19.3V109h16.4l1.5,7.3c4-5.7,10.1-8.6,18-8.6C161.9,107.7,168.5,110.7,173.9,116.5z"/>
				<path class="st0" d="M136.8,139.1c0.1,7.8,6.2,12.3,12.7,12.3c3.4,0,6.3-1.1,8.7-3.4c2.5-2.4,3.7-5.5,3.7-9.5s-1.2-7.1-3.7-9.4
					c-6.8-7.2-21.9-3.1-21.3,9.3V139.1z M173.7,116.7c5.4,5.9,8.2,13.1,8.2,21.7s-2.8,15.8-8.2,21.7c-5.4,5.8-12,8.8-19.8,8.8
					c-7.5,0-13-2.2-16.6-6.5v29.9H118v-83.2h16.4l1.5,7.3c4-5.7,10.1-8.6,18-8.6C161.7,107.8,168.3,110.9,173.7,116.7z"/>
				<path class="st0" d="M136.6,139.2c0.1,7.8,6.2,12.3,12.7,12.3c3.4,0,6.3-1.1,8.7-3.4c2.5-2.4,3.7-5.5,3.7-9.5s-1.2-7.1-3.7-9.4
					c-6.8-7.2-21.9-3.1-21.3,9.3V139.2z M173.5,116.8c5.4,5.9,8.2,13.1,8.2,21.7s-2.8,15.8-8.2,21.7c-5.4,5.8-12,8.8-19.8,8.8
					c-7.5,0-13-2.2-16.6-6.5v29.9h-19.3v-83.2h16.4l1.5,7.3c4-5.7,10.1-8.6,18-8.6C161.5,108,168.1,111,173.5,116.8z"/>
				<path class="st0" d="M136.4,139.3c0.1,7.8,6.2,12.3,12.7,12.3c3.4,0,6.3-1.1,8.7-3.4c2.5-2.4,3.7-5.5,3.7-9.5s-1.2-7.1-3.7-9.4
					c-6.8-7.2-21.9-3.1-21.3,9.3V139.3z M173.3,116.9c5.4,5.9,8.2,13.1,8.2,21.7s-2.8,15.8-8.2,21.7c-5.4,5.8-12,8.8-19.8,8.8
					c-7.5,0-13-2.2-16.6-6.5v29.9h-19.3v-83.2h16.4l1.5,7.3c4-5.7,10.1-8.6,18-8.6C161.3,108.1,167.9,111.1,173.3,116.9z"/>
				<path class="st0" d="M136.2,139.4c0.1,7.8,6.2,12.3,12.7,12.3c3.4,0,6.3-1.1,8.7-3.4c2.5-2.4,3.7-5.5,3.7-9.5s-1.2-7.1-3.7-9.4
					c-6.8-7.2-21.9-3.1-21.3,9.3V139.4z M173.1,117.1c5.4,5.9,8.2,13.1,8.2,21.7s-2.8,15.8-8.2,21.7c-5.4,5.8-12,8.8-19.8,8.8
					c-7.5,0-13-2.2-16.6-6.5v29.9h-19.3v-83.2h16.4l1.5,7.3c4-5.7,10.1-8.6,18-8.6C161.1,108.2,167.7,111.2,173.1,117.1z"/>
				<path class="st0" d="M136,139.6c0.1,7.8,6.2,12.3,12.7,12.3c3.4,0,6.3-1.1,8.7-3.4c2.5-2.4,3.7-5.5,3.7-9.5s-1.2-7.1-3.7-9.4
					c-6.8-7.2-21.9-3.1-21.3,9.3V139.6z M172.9,117.2c5.4,5.9,8.2,13.1,8.2,21.7s-2.8,15.8-8.2,21.7c-5.4,5.8-12,8.8-19.8,8.8
					c-7.5,0-13-2.2-16.6-6.5v29.9h-19.3v-83.2h16.4l1.5,7.3c4-5.7,10.1-8.6,18-8.6C160.9,108.4,167.5,111.4,172.9,117.2z"/>
				<path class="st0" d="M135.8,139.7c0.1,7.8,6.2,12.3,12.7,12.3c3.4,0,6.3-1.1,8.7-3.4c2.5-2.4,3.7-5.5,3.7-9.5s-1.2-7.1-3.7-9.4
					c-6.8-7.2-21.9-3.1-21.3,9.3V139.7z M172.7,117.3c5.4,5.9,8.2,13.1,8.2,21.7s-2.8,15.8-8.2,21.7c-5.4,5.8-12,8.8-19.8,8.8
					c-7.5,0-13-2.2-16.6-6.5v29.9H117v-83.2h16.4l1.5,7.3c4-5.7,10.1-8.6,18-8.6C160.7,108.5,167.3,111.5,172.7,117.3z"/>
				<path class="st0" d="M135.6,139.8c0.1,7.8,6.2,12.3,12.7,12.3c3.4,0,6.3-1.1,8.7-3.4c2.5-2.4,3.7-5.5,3.7-9.5s-1.2-7.1-3.7-9.4
					c-6.8-7.2-21.9-3.1-21.3,9.3V139.8z M172.5,117.5c5.4,5.9,8.2,13.1,8.2,21.7s-2.8,15.8-8.2,21.7c-5.4,5.8-12,8.8-19.8,8.8
					c-7.5,0-13-2.2-16.6-6.5v29.9h-19.3v-83.2h16.4l1.5,7.3c4-5.7,10.1-8.6,18-8.6C160.5,108.6,167.1,111.6,172.5,117.5z"/>
				<path class="st0" d="M135.4,140c0.1,7.8,6.2,12.3,12.7,12.3c3.4,0,6.3-1.1,8.7-3.4c2.5-2.4,3.7-5.5,3.7-9.5s-1.2-7.1-3.7-9.4
					c-6.8-7.2-21.9-3.1-21.3,9.3V140z M172.3,117.6c5.4,5.9,8.2,13.1,8.2,21.7s-2.8,15.8-8.2,21.7c-5.4,5.8-12,8.8-19.8,8.8
					c-7.5,0-13-2.2-16.6-6.5v29.9h-19.3V110h16.4l1.5,7.3c4-5.7,10.1-8.6,18-8.6C160.3,108.7,166.9,111.8,172.3,117.6z"/>
				<path class="st0" d="M135.2,140.1c0.1,7.8,6.2,12.3,12.7,12.3c3.4,0,6.3-1.1,8.7-3.4c2.5-2.4,3.7-5.5,3.7-9.5s-1.2-7.1-3.7-9.4
					c-6.8-7.2-21.9-3.1-21.3,9.3V140.1z M172.1,117.7c5.4,5.9,8.2,13.1,8.2,21.7s-2.8,15.8-8.2,21.7c-5.4,5.8-12,8.8-19.8,8.8
					c-7.5,0-13-2.2-16.6-6.5v29.9h-19.3v-83.2h16.4l1.5,7.3c4-5.7,10.1-8.6,18-8.6C160.1,108.9,166.7,111.9,172.1,117.7z"/>
				<path class="st0" d="M135,140.2c0.1,7.8,6.2,12.3,12.7,12.3c3.4,0,6.3-1.1,8.7-3.4c2.5-2.4,3.7-5.5,3.7-9.5s-1.2-7.1-3.7-9.4
					c-6.8-7.2-21.9-3.1-21.3,9.3V140.2z M171.9,117.8c5.4,5.9,8.2,13.1,8.2,21.7s-2.8,15.8-8.2,21.7c-5.4,5.8-12,8.8-19.8,8.8
					c-7.5,0-13-2.2-16.6-6.5v29.9h-19.3v-83.2h16.4l1.5,7.3c4-5.7,10.1-8.6,18-8.6C159.9,109,166.5,112,171.9,117.8z"/>
				<path class="st0" d="M134.8,140.3c0.1,7.8,6.2,12.3,12.7,12.3c3.4,0,6.3-1.1,8.7-3.4c2.5-2.4,3.7-5.5,3.7-9.5s-1.2-7.1-3.7-9.4
					c-6.8-7.2-21.9-3.1-21.3,9.3V140.3z M171.7,118c5.4,5.9,8.2,13.1,8.2,21.7s-2.8,15.8-8.2,21.7c-5.4,5.8-12,8.8-19.8,8.8
					c-7.5,0-13-2.2-16.6-6.5v29.9H116v-83.2h16.4l1.5,7.3c4-5.7,10.1-8.6,18-8.6C159.7,109.1,166.3,112.1,171.7,118z"/>
				<path class="st0" d="M134.6,140.5c0.1,7.8,6.2,12.3,12.7,12.3c3.4,0,6.3-1.1,8.7-3.4c2.5-2.4,3.7-5.5,3.7-9.5s-1.2-7.1-3.7-9.4
					c-6.8-7.2-21.9-3.1-21.3,9.3V140.5z M171.5,118.1c5.4,5.9,8.2,13.1,8.2,21.7s-2.8,15.8-8.2,21.7c-5.4,5.8-12,8.8-19.8,8.8
					c-7.5,0-13-2.2-16.6-6.5v29.9h-19.3v-83.2h16.4l1.5,7.3c4-5.7,10.1-8.6,18-8.6C159.5,109.3,166.1,112.3,171.5,118.1z"/>
				<path class="st0" d="M134.4,140.6c0.1,7.8,6.2,12.3,12.7,12.3c3.4,0,6.3-1.1,8.7-3.4c2.5-2.4,3.7-5.5,3.7-9.5s-1.2-7.1-3.7-9.4
					c-6.8-7.2-21.9-3.1-21.3,9.3V140.6z M171.3,118.2c5.4,5.9,8.2,13.1,8.2,21.7s-2.8,15.8-8.2,21.7c-5.4,5.8-12,8.8-19.8,8.8
					c-7.5,0-13-2.2-16.6-6.5v29.9h-19.3v-83.2h16.4l1.5,7.3c4-5.7,10.1-8.6,18-8.6C159.3,109.4,165.9,112.4,171.3,118.2z"/>
				<path class="st0" d="M134.2,140.7c0.1,7.8,6.2,12.3,12.7,12.3c3.4,0,6.3-1.1,8.7-3.4c2.5-2.4,3.7-5.5,3.7-9.5s-1.2-7.1-3.7-9.4
					c-6.8-7.2-21.9-3.1-21.3,9.3V140.7z M171.1,118.4c5.4,5.9,8.2,13.1,8.2,21.7s-2.8,15.8-8.2,21.7c-5.4,5.8-12,8.8-19.8,8.8
					c-7.5,0-13-2.2-16.6-6.5V194h-19.3v-83.2h16.4l1.5,7.3c4-5.7,10.1-8.6,18-8.6C159.1,109.5,165.7,112.5,171.1,118.4z"/>
				<path class="st0" d="M134,140.9c0.1,7.8,6.2,12.3,12.7,12.3c3.4,0,6.3-1.1,8.7-3.4c2.5-2.4,3.7-5.5,3.7-9.5s-1.2-7.1-3.7-9.4
					c-6.8-7.2-21.9-3.1-21.3,9.3V140.9z M170.9,118.5c5.4,5.9,8.2,13.1,8.2,21.7s-2.8,15.8-8.2,21.7c-5.4,5.8-12,8.8-19.8,8.8
					c-7.5,0-13-2.2-16.6-6.5v29.9h-19.3v-83.2h16.4l1.5,7.3c4-5.7,10.1-8.6,18-8.6C158.9,109.6,165.5,112.7,170.9,118.5z"/>
				<path class="st0" d="M133.8,141c0.1,7.8,6.2,12.3,12.7,12.3c3.4,0,6.3-1.1,8.7-3.4c2.5-2.4,3.7-5.5,3.7-9.5s-1.2-7.1-3.7-9.4
					c-6.8-7.2-21.9-3.1-21.3,9.3V141z M170.7,118.6c5.4,5.9,8.2,13.1,8.2,21.7s-2.8,15.8-8.2,21.7c-5.4,5.8-12,8.8-19.8,8.8
					c-7.5,0-13-2.2-16.6-6.5v29.9H115V111h16.4l1.5,7.3c4-5.7,10.1-8.6,18-8.6C158.7,109.8,165.3,112.8,170.7,118.6z"/>
				<path class="st0" d="M133.6,141.1c0.1,7.8,6.2,12.3,12.7,12.3c3.4,0,6.3-1.1,8.7-3.4c2.5-2.4,3.7-5.5,3.7-9.5s-1.2-7.1-3.7-9.4
					c-6.8-7.2-21.9-3.1-21.3,9.3V141.1z M170.5,118.7c5.4,5.9,8.2,13.1,8.2,21.7s-2.8,15.8-8.2,21.7c-5.4,5.8-12,8.8-19.8,8.8
					c-7.5,0-13-2.2-16.6-6.5v29.9h-19.3v-83.2h16.4l1.5,7.3c4-5.7,10.1-8.6,18-8.6C158.5,109.9,165.1,112.9,170.5,118.7z"/>
				<path class="st0" d="M133.4,141.2c0.1,7.8,6.2,12.3,12.7,12.3c3.4,0,6.3-1.1,8.7-3.4c2.5-2.4,3.7-5.5,3.7-9.5s-1.2-7.1-3.7-9.4
					c-6.8-7.2-21.9-3.1-21.3,9.3V141.2z M170.3,118.9c5.4,5.9,8.2,13.1,8.2,21.7s-2.8,15.8-8.2,21.7c-5.4,5.8-12,8.8-19.8,8.8
					c-7.5,0-13-2.2-16.6-6.5v29.9h-19.3v-83.2h16.4l1.5,7.3c4-5.7,10.1-8.6,18-8.6C158.3,110,164.9,113,170.3,118.9z"/>
				<path class="st0" d="M133.2,141.4c0.1,7.8,6.2,12.3,12.7,12.3c3.4,0,6.3-1.1,8.7-3.4c2.5-2.4,3.7-5.5,3.7-9.5s-1.2-7.1-3.7-9.4
					c-6.8-7.2-21.9-3.1-21.3,9.3V141.4z M170.1,119c5.4,5.9,8.2,13.1,8.2,21.7s-2.8,15.8-8.2,21.7c-5.4,5.8-12,8.8-19.8,8.8
					c-7.5,0-13-2.2-16.6-6.5v29.9h-19.3v-83.2h16.4l1.5,7.3c4-5.7,10.1-8.6,18-8.6C158.1,110.2,164.7,113.2,170.1,119z"/>
				<path class="st0" d="M133,141.5c0.1,7.8,6.2,12.3,12.7,12.3c3.4,0,6.3-1.1,8.7-3.4c2.5-2.4,3.7-5.5,3.7-9.5s-1.2-7.1-3.7-9.4
					c-6.8-7.2-21.9-3.1-21.3,9.3V141.5z M169.9,119.1c5.4,5.9,8.2,13.1,8.2,21.7s-2.8,15.8-8.2,21.7c-5.4,5.8-12,8.8-19.8,8.8
					c-7.5,0-13-2.2-16.6-6.5v29.9h-19.3v-83.2h16.4l1.5,7.3c4-5.7,10.1-8.6,18-8.6C157.9,110.3,164.5,113.3,169.9,119.1z"/>
				<path class="st0" d="M132.8,141.6c0.1,7.8,6.2,12.3,12.7,12.3c3.4,0,6.3-1.1,8.7-3.4c2.5-2.4,3.7-5.5,3.7-9.5s-1.2-7.1-3.7-9.4
					c-6.8-7.2-21.9-3.1-21.3,9.3V141.6z M169.7,119.3c5.4,5.9,8.2,13.1,8.2,21.7s-2.8,15.8-8.2,21.7c-5.4,5.8-12,8.8-19.8,8.8
					c-7.5,0-13-2.2-16.6-6.5v29.9H114v-83.2h16.4l1.5,7.3c4-5.7,10.1-8.6,18-8.6C157.7,110.4,164.3,113.4,169.7,119.3z"/>
				<path class="st0" d="M132.6,141.8c0.1,7.8,6.2,12.3,12.7,12.3c3.4,0,6.3-1.1,8.7-3.4c2.5-2.4,3.7-5.5,3.7-9.5s-1.2-7.1-3.7-9.4
					c-6.8-7.2-21.9-3.1-21.3,9.3V141.8z M169.5,119.4c5.4,5.9,8.2,13.1,8.2,21.7s-2.8,15.8-8.2,21.7c-5.4,5.8-12,8.8-19.8,8.8
					c-7.5,0-13-2.2-16.6-6.5V195h-19.3v-83.2h16.4l1.5,7.3c4-5.7,10.1-8.6,18-8.6C157.5,110.6,164.1,113.6,169.5,119.4z"/>
				<path class="st0" d="M132.4,141.9c0.1,7.8,6.2,12.3,12.7,12.3c3.4,0,6.3-1.1,8.7-3.4c2.5-2.4,3.7-5.5,3.7-9.5s-1.2-7.1-3.7-9.4
					c-6.8-7.2-21.9-3.1-21.3,9.3V141.9z M169.3,119.5c5.4,5.9,8.2,13.1,8.2,21.7s-2.8,15.8-8.2,21.7c-5.4,5.8-12,8.8-19.8,8.8
					c-7.5,0-13-2.2-16.6-6.5v29.9h-19.3v-83.2h16.4l1.5,7.3c4-5.7,10.1-8.6,18-8.6C157.3,110.7,163.9,113.7,169.3,119.5z"/>
				<path class="st0" d="M132.2,142c0.1,7.8,6.2,12.3,12.7,12.3c3.4,0,6.3-1.1,8.7-3.4c2.5-2.4,3.7-5.5,3.7-9.5s-1.2-7.1-3.7-9.4
					c-6.8-7.2-21.9-3.1-21.3,9.3V142z M169.1,119.6c5.4,5.9,8.2,13.1,8.2,21.7s-2.8,15.8-8.2,21.7c-5.4,5.8-12,8.8-19.8,8.8
					c-7.5,0-13-2.2-16.6-6.5v29.9h-19.3v-83.2h16.4l1.5,7.3c4-5.7,10.1-8.6,18-8.6C157.1,110.8,163.7,113.8,169.1,119.6z"/>
				<path class="st0" d="M132,142.1c0.1,7.8,6.2,12.3,12.7,12.3c3.4,0,6.3-1.1,8.7-3.4c2.5-2.4,3.7-5.5,3.7-9.5s-1.2-7.1-3.7-9.4
					c-6.8-7.2-21.9-3.1-21.3,9.3V142.1z M168.9,119.8c5.4,5.9,8.2,13.1,8.2,21.7s-2.8,15.8-8.2,21.7c-5.4,5.8-12,8.8-19.8,8.8
					c-7.5,0-13-2.2-16.6-6.5v29.9h-19.3v-83.2h16.4l1.5,7.3c4-5.7,10.1-8.6,18-8.6C156.9,110.9,163.5,114,168.9,119.8z"/>
				<path class="st0" d="M131.8,142.3c0.1,7.8,6.2,12.3,12.7,12.3c3.4,0,6.3-1.1,8.7-3.4c2.5-2.4,3.7-5.5,3.7-9.5s-1.2-7.1-3.7-9.4
					c-6.8-7.2-21.9-3.1-21.3,9.3V142.3z M168.7,119.9c5.4,5.9,8.2,13.1,8.2,21.7s-2.8,15.8-8.2,21.7c-5.4,5.8-12,8.8-19.8,8.8
					c-7.5,0-13-2.2-16.6-6.5v29.9H113v-83.2h16.4l1.5,7.3c4-5.7,10.1-8.6,18-8.6C156.7,111.1,163.3,114.1,168.7,119.9z"/>
				<path class="st0" d="M131.6,142.4c0.1,7.8,6.2,12.3,12.7,12.3c3.4,0,6.3-1.1,8.7-3.4c2.5-2.4,3.7-5.5,3.7-9.5s-1.2-7.1-3.7-9.4
					c-6.8-7.2-21.9-3.1-21.3,9.3V142.4z M168.5,120c5.4,5.9,8.2,13.1,8.2,21.7s-2.8,15.8-8.2,21.7c-5.4,5.8-12,8.8-19.8,8.8
					c-7.5,0-13-2.2-16.6-6.5v29.9h-19.3v-83.2h16.4l1.5,7.3c4-5.7,10.1-8.6,18-8.6C156.5,111.2,163.1,114.2,168.5,120z"/>
				<path class="st0" d="M131.4,142.5c0.1,7.8,6.2,12.3,12.7,12.3c3.4,0,6.3-1.1,8.7-3.4c2.5-2.4,3.7-5.5,3.7-9.5s-1.2-7.1-3.7-9.4
					c-6.8-7.2-21.9-3.1-21.3,9.3V142.5z M168.3,120.2c5.4,5.9,8.2,13.1,8.2,21.7s-2.8,15.8-8.2,21.7c-5.4,5.8-12,8.8-19.8,8.8
					c-7.5,0-13-2.2-16.6-6.5v29.9h-19.3v-83.2h16.4l1.5,7.3c4-5.7,10.1-8.6,18-8.6C156.3,111.3,162.9,114.3,168.3,120.2z"/>
				<path class="st0" d="M131.2,142.7c0.1,7.8,6.2,12.3,12.7,12.3c3.4,0,6.3-1.1,8.7-3.4c2.5-2.4,3.7-5.5,3.7-9.5s-1.2-7.1-3.7-9.4
					c-6.8-7.2-21.9-3.1-21.3,9.3V142.7z M168.1,120.3c5.4,5.9,8.2,13.1,8.2,21.7s-2.8,15.8-8.2,21.7c-5.4,5.8-12,8.8-19.8,8.8
					c-7.5,0-13-2.2-16.6-6.5v29.9h-19.3v-83.2h16.4l1.5,7.3c4-5.7,10.1-8.6,18-8.6C156.1,111.5,162.7,114.5,168.1,120.3z"/>
				<path class="st0" d="M131,142.8c0.1,7.8,6.2,12.3,12.7,12.3c3.4,0,6.3-1.1,8.7-3.4c2.5-2.4,3.7-5.5,3.7-9.5s-1.2-7.1-3.7-9.4
					c-6.8-7.2-21.9-3.1-21.3,9.3V142.8z M167.9,120.4c5.4,5.9,8.2,13.1,8.2,21.7s-2.8,15.8-8.2,21.7c-5.4,5.8-12,8.8-19.8,8.8
					c-7.5,0-13-2.2-16.6-6.5V196h-19.3v-83.2h16.4l1.5,7.3c4-5.7,10.1-8.6,18-8.6C155.9,111.6,162.5,114.6,167.9,120.4z"/>
				<path class="st0" d="M130.8,142.9c0.1,7.8,6.2,12.3,12.7,12.3c3.4,0,6.3-1.1,8.7-3.4c2.5-2.4,3.7-5.5,3.7-9.5s-1.2-7.1-3.7-9.4
					c-6.8-7.2-21.9-3.1-21.3,9.3V142.9z M167.7,120.5c5.4,5.9,8.2,13.1,8.2,21.7s-2.8,15.8-8.2,21.7c-5.4,5.8-12,8.8-19.8,8.8
					c-7.5,0-13-2.2-16.6-6.5v29.9H112V113h16.4l1.5,7.3c4-5.7,10.1-8.6,18-8.6C155.7,111.7,162.3,114.7,167.7,120.5z"/>
				<path class="st0" d="M130.6,143.1c0.1,7.8,6.2,12.3,12.7,12.3c3.4,0,6.3-1.1,8.7-3.4c2.5-2.4,3.7-5.5,3.7-9.5s-1.2-7.1-3.7-9.4
					c-6.8-7.2-21.9-3.1-21.3,9.3V143.1z M167.5,120.7c5.4,5.9,8.2,13.1,8.2,21.7s-2.8,15.8-8.2,21.7c-5.4,5.8-12,8.8-19.8,8.8
					c-7.5,0-13-2.2-16.6-6.5v29.9h-19.3v-83.2h16.4l1.5,7.3c4-5.7,10.1-8.6,18-8.6C155.5,111.8,162.1,114.9,167.5,120.7z"/>
				<path class="st0" d="M130.4,143.2c0.1,7.8,6.2,12.3,12.7,12.3c3.4,0,6.3-1.1,8.7-3.4c2.5-2.4,3.7-5.5,3.7-9.5s-1.2-7.1-3.7-9.4
					c-6.8-7.2-21.9-3.1-21.3,9.3V143.2z M167.3,120.8c5.4,5.9,8.2,13.1,8.2,21.7s-2.8,15.8-8.2,21.7c-5.4,5.8-12,8.8-19.8,8.8
					c-7.5,0-13-2.2-16.6-6.5v29.9h-19.3v-83.2H128l1.5,7.3c4-5.7,10.1-8.6,18-8.6C155.3,112,161.9,115,167.3,120.8z"/>
				<path class="st0" d="M130.2,143.3c0.1,7.8,6.2,12.3,12.7,12.3c3.4,0,6.3-1.1,8.7-3.4c2.5-2.4,3.7-5.5,3.7-9.5s-1.2-7.1-3.7-9.4
					c-6.8-7.2-21.9-3.1-21.3,9.3V143.3z M167.1,120.9c5.4,5.9,8.2,13.1,8.2,21.7s-2.8,15.8-8.2,21.7c-5.4,5.8-12,8.8-19.8,8.8
					c-7.5,0-13-2.2-16.6-6.5v29.9h-19.3v-83.2h16.4l1.5,7.3c4-5.7,10.1-8.6,18-8.6C155.1,112.1,161.7,115.1,167.1,120.9z"/>
				<path class="st0" d="M130,143.4c0.1,7.8,6.2,12.3,12.7,12.3c3.4,0,6.3-1.1,8.7-3.4c2.5-2.4,3.7-5.5,3.7-9.5s-1.2-7.1-3.7-9.4
					c-6.8-7.2-21.9-3.1-21.3,9.3V143.4z M166.9,121.1c5.4,5.9,8.2,13.1,8.2,21.7s-2.8,15.8-8.2,21.7c-5.4,5.8-12,8.8-19.8,8.8
					c-7.5,0-13-2.2-16.6-6.5v29.9h-19.3v-83.2h16.4l1.5,7.3c4-5.7,10.1-8.6,18-8.6C154.9,112.2,161.5,115.2,166.9,121.1z"/>
				<path class="st0" d="M129.8,143.6c0.1,7.8,6.2,12.3,12.7,12.3c3.4,0,6.3-1.1,8.7-3.4c2.5-2.4,3.7-5.5,3.7-9.5s-1.2-7.1-3.7-9.4
					c-6.8-7.2-21.9-3.1-21.3,9.3V143.6z M166.7,121.2c5.4,5.9,8.2,13.1,8.2,21.7s-2.8,15.8-8.2,21.7c-5.4,5.8-12,8.8-19.8,8.8
					c-7.5,0-13-2.2-16.6-6.5v29.9H111v-83.2h16.4l1.5,7.3c4-5.7,10.1-8.6,18-8.6C154.7,112.4,161.3,115.4,166.7,121.2z"/>
				<path class="st0" d="M129.6,143.7c0.1,7.8,6.2,12.3,12.7,12.3c3.4,0,6.3-1.1,8.7-3.4c2.5-2.4,3.7-5.5,3.7-9.5s-1.2-7.1-3.7-9.4
					c-6.8-7.2-21.9-3.1-21.3,9.3V143.7z M166.5,121.3c5.4,5.9,8.2,13.1,8.2,21.7s-2.8,15.8-8.2,21.7c-5.4,5.8-12,8.8-19.8,8.8
					c-7.5,0-13-2.2-16.6-6.5v29.9h-19.3v-83.2h16.4l1.5,7.3c4-5.7,10.1-8.6,18-8.6C154.5,112.5,161.1,115.5,166.5,121.3z"/>
				<path class="st0" d="M129.4,143.8c0.1,7.8,6.2,12.3,12.7,12.3c3.4,0,6.3-1.1,8.7-3.4c2.5-2.4,3.7-5.5,3.7-9.5s-1.2-7.1-3.7-9.4
					c-6.8-7.2-21.9-3.1-21.3,9.3V143.8z M166.3,121.5c5.4,5.9,8.2,13.1,8.2,21.7s-2.8,15.8-8.2,21.7c-5.4,5.8-12,8.8-19.8,8.8
					c-7.5,0-13-2.2-16.6-6.5v29.9h-19.3v-83.2H127l1.5,7.3c4-5.7,10.1-8.6,18-8.6C154.3,112.6,160.9,115.6,166.3,121.5z"/>
				<path class="st0" d="M129.2,144c0.1,7.8,6.2,12.3,12.7,12.3c3.4,0,6.3-1.1,8.7-3.4c2.5-2.4,3.7-5.5,3.7-9.5s-1.2-7.1-3.7-9.4
					c-6.8-7.2-21.9-3.1-21.3,9.3V144z M166.1,121.6c5.4,5.9,8.2,13.1,8.2,21.7s-2.8,15.8-8.2,21.7c-5.4,5.8-12,8.8-19.8,8.8
					c-7.5,0-13-2.2-16.6-6.5v29.9h-19.3V114h16.4l1.5,7.3c4-5.7,10.1-8.6,18-8.6C154.1,112.7,160.7,115.8,166.1,121.6z"/>
				<path class="st0" d="M129.1,144.1c0.1,7.8,6.2,12.3,12.7,12.3c3.4,0,6.3-1.1,8.7-3.4c2.5-2.4,3.7-5.5,3.7-9.5s-1.2-7.1-3.7-9.4
					c-6.8-7.2-21.9-3.1-21.3,9.3V144.1z M165.9,121.7c5.4,5.9,8.2,13.1,8.2,21.7s-2.8,15.8-8.2,21.7c-5.4,5.8-12,8.8-19.8,8.8
					c-7.5,0-13-2.2-16.6-6.5v29.9h-19.3v-83.2h16.4l1.5,7.3c4-5.7,10.1-8.6,18-8.6C153.9,112.9,160.5,115.9,165.9,121.7z"/>
				<path class="st0" d="M128.9,144.2c0.1,7.8,6.2,12.3,12.7,12.3c3.4,0,6.3-1.1,8.7-3.4c2.5-2.4,3.7-5.5,3.7-9.5s-1.2-7.1-3.7-9.4
					c-6.8-7.2-21.9-3.1-21.3,9.3V144.2z M165.7,121.8c5.4,5.9,8.2,13.1,8.2,21.7s-2.8,15.8-8.2,21.7c-5.4,5.8-12,8.8-19.8,8.8
					c-7.5,0-13-2.2-16.6-6.5v29.9H110v-83.2h16.4l1.5,7.3c4-5.7,10.1-8.6,18-8.6C153.7,113,160.3,116,165.7,121.8z"/>
				<path class="st0" d="M128.7,144.3c0.1,7.8,6.2,12.3,12.7,12.3c3.4,0,6.3-1.1,8.7-3.4c2.5-2.4,3.7-5.5,3.7-9.5s-1.2-7.1-3.7-9.4
					c-6.8-7.2-21.9-3.1-21.3,9.3V144.3z M165.5,122c5.4,5.9,8.2,13.1,8.2,21.7s-2.8,15.8-8.2,21.7c-5.4,5.8-12,8.8-19.8,8.8
					c-7.5,0-13-2.2-16.6-6.5v29.9h-19.3v-83.2h16.4l1.5,7.3c4-5.7,10.1-8.6,18-8.6C153.5,113.1,160.1,116.1,165.5,122z"/>
				<path class="st0" d="M128.5,144.5c0.1,7.8,6.2,12.3,12.7,12.3c3.4,0,6.3-1.1,8.7-3.4c2.5-2.4,3.7-5.5,3.7-9.5s-1.2-7.1-3.7-9.4
					c-6.8-7.2-21.9-3.1-21.3,9.3V144.5z M165.3,122.1c5.4,5.9,8.2,13.1,8.2,21.7s-2.8,15.8-8.2,21.7c-5.4,5.8-12,8.8-19.8,8.8
					c-7.5,0-13-2.2-16.6-6.5v29.9h-19.3v-83.2H126l1.5,7.3c4-5.7,10.1-8.6,18-8.6C153.3,113.3,160,116.3,165.3,122.1z"/>
				<path class="st0" d="M128.3,144.6c0.1,7.8,6.2,12.3,12.7,12.3c3.4,0,6.3-1.1,8.7-3.4c2.5-2.4,3.7-5.5,3.7-9.5s-1.2-7.1-3.7-9.4
					c-6.8-7.2-21.9-3.1-21.3,9.3V144.6z M165.1,122.2c5.4,5.9,8.2,13.1,8.2,21.7s-2.8,15.8-8.2,21.7c-5.4,5.8-12,8.8-19.8,8.8
					c-7.5,0-13-2.2-16.6-6.5v29.9h-19.3v-83.2h16.4l1.5,7.3c4-5.7,10.1-8.6,18-8.6C153.1,113.4,159.8,116.4,165.1,122.2z"/>
				<path class="st0" d="M128.1,144.7c0.1,7.8,6.2,12.3,12.7,12.3c3.4,0,6.3-1.1,8.7-3.4c2.5-2.4,3.7-5.5,3.7-9.5s-1.2-7.1-3.7-9.4
					c-6.8-7.2-21.9-3.1-21.3,9.3V144.7z M164.9,122.4c5.4,5.9,8.2,13.1,8.2,21.7s-2.8,15.8-8.2,21.7c-5.4,5.8-12,8.8-19.8,8.8
					c-7.5,0-13-2.2-16.6-6.5V198h-19.3v-83.2h16.4l1.5,7.3c4-5.7,10.1-8.6,18-8.6C152.9,113.5,159.6,116.5,164.9,122.4z"/>
				<path class="st0" d="M127.9,144.9c0.1,7.8,6.2,12.3,12.7,12.3c3.4,0,6.3-1.1,8.7-3.4c2.5-2.4,3.7-5.5,3.7-9.5s-1.2-7.1-3.7-9.4
					c-6.8-7.2-21.9-3.1-21.3,9.3V144.9z M164.7,122.5c5.4,5.9,8.2,13.1,8.2,21.7s-2.8,15.8-8.2,21.7c-5.4,5.8-12,8.8-19.8,8.8
					c-7.5,0-13-2.2-16.6-6.5v29.9H109v-83.2h16.4l1.5,7.3c4-5.7,10.1-8.6,18-8.6C152.7,113.6,159.4,116.7,164.7,122.5z"/>
				<path class="st0" d="M127.7,145c0.1,7.8,6.2,12.3,12.7,12.3c3.4,0,6.3-1.1,8.7-3.4c2.5-2.4,3.7-5.5,3.7-9.5s-1.2-7.1-3.7-9.4
					c-6.8-7.2-21.9-3.1-21.3,9.3V145z M164.5,122.6c5.4,5.9,8.2,13.1,8.2,21.7s-2.8,15.8-8.2,21.7c-5.4,5.8-12,8.8-19.8,8.8
					c-7.5,0-13-2.2-16.6-6.5v29.9h-19.3V115h16.4l1.5,7.3c4-5.7,10.1-8.6,18-8.6C152.6,113.8,159.2,116.8,164.5,122.6z"/>
				<path class="st0" d="M127.5,145.1c0.1,7.8,6.2,12.3,12.7,12.3c3.4,0,6.3-1.1,8.7-3.4c2.5-2.4,3.7-5.5,3.7-9.5s-1.2-7.1-3.7-9.4
					c-6.8-7.2-21.9-3.1-21.3,9.3V145.1z M164.3,122.7c5.4,5.9,8.2,13.1,8.2,21.7s-2.8,15.8-8.2,21.7c-5.4,5.8-12,8.8-19.8,8.8
					c-7.5,0-13-2.2-16.6-6.5v29.9h-19.3v-83.2H125l1.5,7.3c4-5.7,10.1-8.6,18-8.6C152.4,113.9,159,116.9,164.3,122.7z"/>
				<path class="st0" d="M127.3,145.2c0.1,7.8,6.2,12.3,12.7,12.3c3.4,0,6.3-1.1,8.7-3.4c2.5-2.4,3.7-5.5,3.7-9.5s-1.2-7.1-3.7-9.4
					c-6.8-7.2-21.9-3.1-21.3,9.3V145.2z M164.1,122.9c5.4,5.9,8.2,13.1,8.2,21.7s-2.8,15.8-8.2,21.7c-5.4,5.8-12,8.8-19.8,8.8
					c-7.5,0-13-2.2-16.6-6.5v29.9h-19.3v-83.2h16.4l1.5,7.3c4-5.7,10.1-8.6,18-8.6C152.2,114,158.8,117,164.1,122.9z"/>
				<path class="st0" d="M127.1,145.4c0.1,7.8,6.2,12.3,12.7,12.3c3.4,0,6.3-1.1,8.7-3.4c2.5-2.4,3.7-5.5,3.7-9.5s-1.2-7.1-3.7-9.4
					c-6.8-7.2-21.9-3.1-21.3,9.3V145.4z M163.9,123c5.4,5.9,8.2,13.1,8.2,21.7s-2.8,15.8-8.2,21.7c-5.4,5.8-12,8.8-19.8,8.8
					c-7.5,0-13-2.2-16.6-6.5v29.9h-19.3v-83.2h16.4l1.5,7.3c4-5.7,10.1-8.6,18-8.6C152,114.2,158.6,117.2,163.9,123z"/>
				<path class="st0" d="M126.9,145.5c0.1,7.8,6.2,12.3,12.7,12.3c3.4,0,6.3-1.1,8.7-3.4c2.5-2.4,3.7-5.5,3.7-9.5s-1.2-7.1-3.7-9.4
					c-6.8-7.2-21.9-3.1-21.3,9.3V145.5z M163.7,123.1c5.5,5.9,8.2,13.1,8.2,21.7s-2.7,15.8-8.2,21.7c-5.3,5.9-12,8.8-19.8,8.8
					c-7.5,0-13-2.2-16.6-6.5v29.9H108v-83.2h16.4l1.5,7.3c4-5.7,10.1-8.6,18-8.6C151.8,114.3,158.4,117.3,163.7,123.1z"/>
			</g>
		</g>
	</g>
	<path class="st1" d="M146.9,132.5c0.1,7.8,6.2,12.3,12.7,12.3c3.4,0,6.3-1.1,8.7-3.4c2.5-2.4,3.7-5.5,3.7-9.5s-1.2-7.1-3.7-9.4
		c-6.8-7.2-21.9-3.1-21.3,9.3V132.5z M183.8,110.1c5.5,5.9,8.2,13.1,8.2,21.7s-2.7,15.8-8.2,21.7c-5.3,5.9-12,8.8-19.8,8.8
		c-7.5,0-13-2.2-16.6-6.5v29.9h-19.3v-83.2h16.4l1.5,7.3c4-5.7,10.1-8.6,18-8.6C171.8,101.3,178.5,104.2,183.8,110.1z"/>
</g>
</svg>
