<?xml version="1.0" encoding="utf-8"?>
<!-- Generator: Adobe Illustrator 21.1.0, SVG Export Plug-In . SVG Version: 6.00 Build 0)  -->
<svg version="1.1" id="Layer_1" xmlns="http://www.w3.org/2000/svg" xmlns:xlink="http://www.w3.org/1999/xlink" x="0px" y="0px"
	 viewBox="0 0 300 300" style="enable-background:new 0 0 300 300;" xml:space="preserve">
<style type="text/css">
	.st0{fill:#070707;}
	.st1{fill:#F9CDCD;}
	.st2{fill:#CCE4EA;}
	.st3{fill:#F4F062;}
	.st4{fill:#E7D8EA;}
	.st5{fill:#F96C5A;}
</style>
<g>
	<g>
		<g>
			<path class="st0" d="M50.6,189.6c-0.2,0-0.3-0.1-0.4-0.2l-26-37.3c-0.1-0.1-0.1-0.3-0.1-0.4c0-0.1,0.1-0.3,0.3-0.3l12.7-6.8
				c0.1,0,0.2-0.1,0.2-0.1c0.2,0,0.3,0.1,0.4,0.2l14.9,22.1l0.9,1.6l0.4-2.5l6-33.3c0-0.2,0.1-0.3,0.3-0.4l12.7-6.8
				c0.1,0,0.2-0.1,0.2-0.1c0.1,0,0.2,0,0.3,0.1c0.2,0.1,0.2,0.3,0.2,0.5l-11,57.1c0,0.1-0.1,0.3-0.3,0.3l-11.4,6.1
				C50.8,189.6,50.7,189.6,50.6,189.6z"/>
			<path class="st0" d="M73,125.9L62,183l-11.4,6.1l-26-37.3l12.7-6.8l14.9,22.1l1.6,2.8l0.6-4l6-33.3L73,125.9 M73,124.9
				c-0.2,0-0.3,0-0.5,0.1l-12.7,6.8c-0.3,0.1-0.5,0.4-0.5,0.7l-6,33.3l-0.2,1.1l-0.1-0.2c0,0,0,0,0-0.1l-14.9-22.1
				c-0.2-0.3-0.5-0.4-0.8-0.4c-0.2,0-0.3,0-0.5,0.1l-12.7,6.8c-0.3,0.1-0.4,0.4-0.5,0.6c-0.1,0.3,0,0.6,0.2,0.8l26,37.3
				c0.2,0.3,0.5,0.4,0.8,0.4c0.2,0,0.3,0,0.5-0.1l11.4-6.1c0.3-0.1,0.5-0.4,0.5-0.7l11-57.1c0.1-0.4-0.1-0.8-0.4-1
				C73.4,125,73.2,124.9,73,124.9L73,124.9z M73,126.9L73,126.9L73,126.9L73,126.9z"/>
		</g>
		<g>
			<path class="st0" d="M94.7,175.3c-0.2,0-0.5-0.2-0.5-0.4l-7.5-47.2c0-0.1,0-0.3,0.1-0.4c0.1-0.1,0.2-0.2,0.4-0.2
				c0,0,13.6-1,13.6-1c0.2,0,0.5,0.2,0.5,0.4l7.5,47.2c0,0.1,0,0.3-0.1,0.4c-0.1,0.1-0.2,0.2-0.4,0.2
				C108.3,174.4,94.8,175.3,94.7,175.3z"/>
			<path class="st0" d="M100.8,126.6l7.5,47.2l-13.5,1l-7.5-47.2L100.8,126.6 M100.8,125.6C100.7,125.6,100.7,125.6,100.8,125.6
				l-13.6,1c-0.3,0-0.5,0.2-0.7,0.4c-0.2,0.2-0.2,0.5-0.2,0.8l7.5,47.2c0.1,0.5,0.5,0.8,1,0.8c0,0,0,0,0.1,0l13.5-1
				c0.3,0,0.5-0.2,0.7-0.4c0.2-0.2,0.2-0.5,0.2-0.8l-7.5-47.2C101.7,126,101.2,125.6,100.8,125.6L100.8,125.6z"/>
		</g>
		<g>
			<path class="st0" d="M157.1,179.1c-1.7,0-3.6-0.2-5.7-0.6l-21.4-4.1c-0.2,0-0.4-0.2-0.4-0.4l-7.5-47.2c0-0.2,0-0.3,0.1-0.4
				c0.1-0.1,0.2-0.1,0.3-0.1c0,0,0.1,0,0.1,0l18.8,3.6c11.6,2.2,19.6,9.1,21.1,17.9c0.6,3.6-0.1,6.4-2.1,8.2c4.5,2.9,7.2,6.7,8,11.4
				c0.7,4.4-0.5,7.8-3.7,9.8C162.8,178.4,160.2,179.1,157.1,179.1z M149.9,166.6c0.6,0.1,1.1,0.2,1.5,0.2c0,0,0,0,0,0
				c0.8,0,1.4-0.2,1.7-0.6c0.3-0.4,0.4-1.1,0.3-1.9c-0.4-2.4-2.1-3.9-5-4.5l-7.3-1.4l1.1,6.8L149.9,166.6z M144.5,148.4
				c0.5,0.1,1,0.1,1.4,0.1c0.9,0,1.5-0.2,1.9-0.6c0.3-0.4,0.4-0.9,0.3-1.6c-0.4-2.5-2.1-4-5-4.6l-4.8-0.9l1.1,6.7L144.5,148.4z"/>
			<path class="st0" d="M122.6,126.7l18.8,3.6c11.4,2.2,19.3,8.9,20.7,17.5c0.6,3.8-0.2,6.5-2.5,8.1c4.8,2.9,7.6,6.7,8.3,11.4
				c0.7,4.2-0.5,7.4-3.4,9.3c-1.9,1.3-4.4,1.9-7.4,1.9c-1.7,0-3.5-0.2-5.6-0.6l-21.4-4.1L122.6,126.7 M145.9,149.1
				c2,0,3-1.1,2.7-2.9c-0.4-2.8-2.3-4.4-5.4-5l-5.5-1.1l1.2,7.8l5.5,1.1C145,149,145.4,149.1,145.9,149.1 M151.4,167.3
				c2,0,2.9-1,2.5-3.1c-0.4-2.6-2.3-4.3-5.4-4.9l-8-1.5l1.2,7.8l8,1.5C150.4,167.2,150.9,167.3,151.4,167.3 M122.6,125.7
				c-0.3,0-0.5,0.1-0.7,0.3c-0.2,0.2-0.3,0.6-0.3,0.9l7.5,47.2c0.1,0.4,0.4,0.7,0.8,0.8l21.4,4.1c2.1,0.4,4,0.6,5.8,0.6
				c3.2,0,5.9-0.7,7.9-2.1c3.3-2.2,4.6-5.7,3.9-10.3c-0.7-4.6-3.3-8.4-7.7-11.4c1.8-1.9,2.4-4.6,1.8-8.2c-1.4-9-9.7-16.1-21.5-18.3
				l-18.8-3.6C122.8,125.7,122.7,125.7,122.6,125.7L122.6,125.7z M139.8,147l-0.9-5.7l4.1,0.8c2.8,0.5,4.3,1.9,4.6,4.2
				c0.1,0.4,0.1,0.9-0.2,1.2c-0.3,0.3-0.8,0.5-1.5,0.5c-0.4,0-0.8,0-1.3-0.1L139.8,147L139.8,147z M142.6,164.7l-0.9-5.7l6.6,1.3
				c2.8,0.5,4.3,1.9,4.6,4.1c0.1,0.5,0.1,1.2-0.2,1.5c-0.3,0.3-0.9,0.4-1.4,0.4c-0.4,0-0.9-0.1-1.4-0.2L142.6,164.7L142.6,164.7z"/>
		</g>
		<g>
			<path class="st0" d="M186.3,182.1c-0.2,0-0.5-0.2-0.5-0.4l-7.5-47.2c0-0.1,0-0.3,0.1-0.4c0.1-0.1,0.2-0.2,0.4-0.2
				c0,0,32.6-2.8,32.7-2.8c0.2,0,0.5,0.2,0.5,0.4l1.7,10.9c0,0.1,0,0.3-0.1,0.4c-0.1,0.1-0.2,0.2-0.4,0.2l-18.5,1.6l0.9,5.8
				c0,0,15.8-1.4,15.8-1.4c0.2,0,0.5,0.2,0.5,0.4l1.7,10.9c0,0.1,0,0.3-0.1,0.4c-0.1,0.1-0.2,0.2-0.4,0.2l-15.7,1.3l1.1,6.9
				c0,0,18.7-1.6,18.7-1.6c0.2,0,0.5,0.2,0.5,0.4l1.7,10.9c0,0.1,0,0.3-0.1,0.4c-0.1,0.1-0.2,0.2-0.4,0.2
				C219,179.3,186.4,182.1,186.3,182.1z"/>
			<path class="st0" d="M211.4,131.6l1.7,10.9l-19.1,1.6l1.1,6.7l16.2-1.4l1.7,10.9l-16.2,1.4l1.3,7.9l19.1-1.6l1.7,10.9l-32.6,2.8
				l-7.5-47.2L211.4,131.6 M211.4,130.6C211.4,130.6,211.4,130.6,211.4,130.6l-32.7,2.8c-0.3,0-0.5,0.2-0.7,0.4
				c-0.2,0.2-0.2,0.5-0.2,0.8l7.5,47.2c0.1,0.5,0.5,0.8,1,0.8c0,0,0.1,0,0.1,0l32.6-2.8c0.3,0,0.5-0.2,0.7-0.4
				c0.2-0.2,0.2-0.5,0.2-0.8l-1.7-10.9c-0.1-0.5-0.5-0.8-1-0.8c0,0-0.1,0-0.1,0l-18.2,1.6l-0.9-5.9l15.1-1.3c0.3,0,0.5-0.2,0.7-0.4
				c0.2-0.2,0.2-0.5,0.2-0.8l-1.7-10.9c-0.1-0.5-0.5-0.8-1-0.8c0,0-0.1,0-0.1,0l-15.3,1.3l-0.8-4.8l18-1.6c0.3,0,0.5-0.2,0.7-0.4
				c0.2-0.2,0.2-0.5,0.2-0.8l-1.7-10.9C212.3,130.9,211.9,130.6,211.4,130.6L211.4,130.6z"/>
		</g>
		<g>
			<path class="st0" d="M243.7,172.8c-6.5,0-10.9-3.8-12.2-10.7c0-0.2,0.1-0.5,0.3-0.6l12.7-5.1c0.1,0,0.1,0,0.2,0
				c0.1,0,0.2,0,0.2,0.1c0.1,0.1,0.2,0.2,0.3,0.3c0.6,2.2,1.7,3.3,3.5,3.3c0.8,0,1.8-0.2,3-0.7c2.8-1.1,4.3-3,4-4.9
				c-0.2-1.1-0.9-2.2-4.5-2.2c-1,0-2.1,0.1-3.6,0.2c-1.8,0.2-3.4,0.3-4.9,0.3c-7.9,0-12.1-3-13.2-9.6c-0.7-4.6,0.3-8.9,3-13
				c2.7-4,6.8-7.2,12.1-9.3c3.2-1.3,6.1-2,8.7-2c5.9,0,9.8,3.5,11.3,10.1c0.1,0.2-0.1,0.5-0.3,0.6l-12.7,5.1c-0.1,0-0.1,0-0.2,0
				c-0.1,0-0.2,0-0.2-0.1c-0.1-0.1-0.2-0.2-0.3-0.3c-0.4-1.7-1.4-2.6-2.8-2.6c-0.6,0-1.2,0.1-1.8,0.4c-2.4,1-3.6,2.6-3.3,4.6
				c0.2,1.3,0.8,2,3.5,2c1.1,0,2.5-0.1,4.9-0.4c1.6-0.2,3.2-0.3,4.5-0.3c8.2,0,12.1,2.9,13.2,9.9c0.8,4.8-0.3,9.1-3.4,13.3
				c-2.9,4-7,7.1-12.2,9.2C249.9,172,246.6,172.8,243.7,172.8z"/>
			<path class="st0" d="M253.4,119.5c5.5,0,9.3,3.2,10.8,9.7l-12.7,5.1c-0.5-1.9-1.7-2.9-3.3-2.9c-0.6,0-1.3,0.1-2,0.4
				c-2.6,1.1-3.9,3-3.6,5.1c0.3,1.8,1.3,2.4,4,2.4c1.3,0,2.9-0.1,5-0.4c1.6-0.2,3.1-0.2,4.5-0.2c8.1,0,11.7,3,12.7,9.4
				c0.7,4.7-0.4,8.9-3.3,12.9c-2.9,4-6.9,7-12,9c-3.6,1.5-6.8,2.2-9.6,2.2c-6.4,0-10.4-3.7-11.7-10.3l12.7-5.1
				c0.6,2.5,1.9,3.7,4,3.7c0.9,0,2-0.2,3.1-0.7c3-1.2,4.7-3.3,4.3-5.5c-0.3-1.8-1.8-2.6-5-2.6c-1,0-2.2,0.1-3.6,0.2
				c-1.7,0.2-3.4,0.3-4.8,0.3c-7.5,0-11.6-2.7-12.7-9.1c-0.7-4.5,0.2-8.6,2.9-12.6c2.7-4,6.7-7,11.9-9.1
				C248,120.1,250.9,119.5,253.4,119.5 M253.4,118.5C253.4,118.5,253.4,118.5,253.4,118.5c-2.6,0-5.6,0.7-8.9,2
				c-5.4,2.2-9.5,5.4-12.3,9.5c-2.8,4.1-3.9,8.6-3.1,13.3c1.1,6.8,5.4,10,13.7,10c1.5,0,3.2-0.1,5-0.3c1.4-0.2,2.5-0.2,3.5-0.2
				c3.4,0,3.8,0.9,4,1.8c0.3,1.7-1.2,3.4-3.7,4.4c-1.1,0.4-2,0.6-2.8,0.6c-1,0-2.4-0.3-3-3c-0.1-0.3-0.3-0.5-0.5-0.7
				c-0.1-0.1-0.3-0.1-0.5-0.1c-0.1,0-0.3,0-0.4,0.1l-12.7,5.1c-0.4,0.2-0.7,0.6-0.6,1.1c1.4,7.1,5.9,11.1,12.7,11.1
				c3,0,6.3-0.8,10-2.2c5.3-2.2,9.5-5.3,12.5-9.4c3.1-4.2,4.2-8.7,3.5-13.6c-1.1-7.1-5.4-10.3-13.7-10.3c-1.4,0-2.9,0.1-4.6,0.3
				c-2.4,0.3-3.8,0.4-4.8,0.4c-2.6,0-2.8-0.6-3-1.6c-0.3-1.7,0.8-3.2,3-4c0.6-0.2,1.2-0.4,1.7-0.4c1.2,0,2,0.7,2.4,2.2
				c0.1,0.3,0.3,0.5,0.5,0.7c0.1,0.1,0.3,0.1,0.5,0.1c0.1,0,0.3,0,0.4-0.1l12.7-5.1c0.5-0.2,0.7-0.7,0.6-1.1
				C263.6,122.1,259.5,118.5,253.4,118.5L253.4,118.5z"/>
		</g>
	</g>
	<g>
		<g>
			<g>
				<path class="st1" d="M57.2,182c-0.5,0-0.9-0.2-1.2-0.6l-26-37.3c-0.2-0.4-0.3-0.8-0.2-1.2c0.1-0.4,0.4-0.8,0.8-1l12.7-6.8
					c0.2-0.1,0.5-0.2,0.7-0.2c0.5,0,1,0.2,1.2,0.7l14.3,21.3l6-33.1c0.1-0.5,0.4-0.8,0.8-1.1l12.7-6.8c0.2-0.1,0.5-0.2,0.7-0.2
					c0.3,0,0.6,0.1,0.9,0.3c0.5,0.3,0.7,0.9,0.6,1.5l-11,57.1c-0.1,0.4-0.4,0.8-0.8,1l-11.4,6.1C57.6,181.9,57.4,182,57.2,182z"/>
				<path class="st0" d="M79.5,117.3l-11,57.1l-11.4,6.1l-26-37.3l12.7-6.8l14.9,22.1l1.6,2.8l0.6-4l6-33.3L79.5,117.3 M79.5,114.3
					c-0.5,0-1,0.1-1.4,0.4l-12.7,6.8c-0.8,0.4-1.4,1.2-1.5,2.1L58.6,153l-12.3-18.3c-0.6-0.9-1.5-1.3-2.5-1.3c-0.5,0-1,0.1-1.4,0.4
					l-12.7,6.8c-0.8,0.4-1.3,1.1-1.5,1.9c-0.2,0.8,0,1.7,0.5,2.4l26,37.3c0.6,0.8,1.5,1.3,2.5,1.3c0.5,0,1-0.1,1.4-0.4L70,177
					c0.8-0.4,1.4-1.2,1.5-2.1l11-57.1c0.2-1.1-0.2-2.3-1.2-3C80.8,114.5,80.2,114.3,79.5,114.3L79.5,114.3z M79.5,120.3L79.5,120.3
					L79.5,120.3L79.5,120.3z"/>
			</g>
			<g>
				<path class="st2" d="M101.3,167.7c-0.7,0-1.4-0.5-1.5-1.3l-7.5-47.2c-0.1-0.4,0-0.8,0.3-1.2c0.3-0.3,0.6-0.5,1.1-0.6l13.5-1
					c0,0,0.1,0,0.1,0c0.7,0,1.4,0.5,1.5,1.3l7.5,47.2c0.1,0.4,0,0.8-0.3,1.2c-0.3,0.3-0.6,0.5-1.1,0.6l-13.5,1
					C101.4,167.7,101.3,167.7,101.3,167.7z"/>
				<path class="st0" d="M107.3,118l7.5,47.2l-13.5,1L93.8,119L107.3,118 M107.3,115c-0.1,0-0.1,0-0.2,0l-13.5,1
					c-0.8,0.1-1.6,0.5-2.1,1.1c-0.5,0.7-0.7,1.5-0.6,2.3l7.5,47.2c0.2,1.5,1.5,2.5,3,2.5c0.1,0,0.1,0,0.2,0l13.5-1
					c0.8-0.1,1.6-0.5,2.1-1.1c0.5-0.7,0.7-1.5,0.6-2.3l-7.5-47.2C110,116.1,108.8,115,107.3,115L107.3,115z"/>
			</g>
			<g>
				<path class="st3" d="M163.6,171.4c-1.8,0-3.7-0.2-5.9-0.6l-21.4-4.1c-0.6-0.1-1.1-0.6-1.2-1.2l-7.5-47.2c-0.1-0.5,0.1-1,0.4-1.3
					c0.3-0.3,0.7-0.4,1-0.4c0.1,0,0.2,0,0.3,0l18.8,3.6c12,2.3,20.4,9.5,21.9,18.7c0.5,3.4,0,6.2-1.6,8.2c4.2,3,6.7,6.8,7.4,11.4
					c0.8,4.9-0.6,8.5-4.1,10.8C169.7,170.7,166.9,171.4,163.6,171.4z M156.6,157c0.5,0.1,1,0.1,1.3,0.1c0,0,0,0,0,0
					c0.6,0,0.9-0.1,1-0.2c0.1-0.1,0.2-0.5,0.1-1.1c-0.3-2-1.7-3.2-4.2-3.7l-5.9-1.1l0.7,4.7L156.6,157z M151.2,138.8
					c0.4,0.1,0.8,0.1,1.2,0.1c0.7,0,1-0.2,1.1-0.3c0.1-0.1,0.2-0.4,0.1-0.8c-0.2-1.3-0.9-3.2-4.2-3.8l-3.4-0.6l0.7,4.6L151.2,138.8z
					"/>
				<path d="M129.2,118l18.8,3.6c11.4,2.2,19.3,8.9,20.7,17.5c0.6,3.8-0.2,6.5-2.5,8.1c4.8,2.9,7.6,6.7,8.3,11.4
					c0.7,4.2-0.5,7.4-3.4,9.3c-1.9,1.3-4.4,1.9-7.4,1.9c-1.7,0-3.5-0.2-5.6-0.6l-21.4-4.1L129.2,118 M152.4,140.4c2,0,3-1.1,2.7-2.9
					c-0.4-2.8-2.3-4.4-5.4-5l-5.5-1.1l1.2,7.8l5.5,1.1C151.5,140.4,152,140.4,152.4,140.4 M158,158.7c2,0,2.9-1,2.5-3.1
					c-0.4-2.6-2.3-4.3-5.4-4.9l-8-1.5l1.2,7.8l8,1.5C156.9,158.6,157.5,158.7,158,158.7 M129.2,115c-0.8,0-1.5,0.3-2.1,0.8
					c-0.7,0.7-1,1.7-0.9,2.6l7.5,47.2c0.2,1.2,1.2,2.2,2.4,2.5l21.4,4.1c2.2,0.4,4.3,0.6,6.1,0.6c3.6,0,6.7-0.8,9-2.4
					c2.8-1.8,5.8-5.5,4.7-12.3c-0.7-4.6-3-8.4-6.9-11.5c1-1.9,1.6-4.5,1-8.1c-1.6-9.9-10.4-17.5-23.1-20l-18.8-3.6
					C129.6,115,129.4,115,129.2,115L129.2,115z M148.1,136.7l-0.2-1.5l1.3,0.2c2,0.4,2.6,1.2,2.9,1.9c-0.2,0-0.3,0-0.5-0.1
					L148.1,136.7L148.1,136.7z M150.9,154.4l-0.2-1.5l3.8,0.7c2.2,0.4,2.8,1.4,2.9,2c-0.2,0-0.3,0-0.6-0.1L150.9,154.4L150.9,154.4z
					"/>
			</g>
			<g>
				<path class="st4" d="M192.9,174.4c-0.7,0-1.3-0.5-1.4-1.2l-7.5-47.2c-0.1-0.4,0-0.8,0.3-1.1c0.2-0.3,0.6-0.5,1-0.5l32.6-2.8
					c0,0,0.1,0,0.1,0c0.7,0,1.3,0.5,1.4,1.2l1.7,10.9c0.1,0.4,0,0.8-0.3,1.1c-0.2,0.3-0.6,0.5-1,0.5l-17.6,1.5l0.6,3.9l14.9-1.3
					c0,0,0.1,0,0.1,0c0.7,0,1.3,0.5,1.4,1.2l1.7,10.9c0.1,0.4,0,0.8-0.3,1.1c-0.2,0.3-0.6,0.5-1,0.5l-14.7,1.3l0.8,5.1l17.8-1.5
					c0,0,0.1,0,0.1,0c0.7,0,1.3,0.5,1.4,1.2l1.7,10.9c0.1,0.4,0,0.8-0.3,1.1c-0.2,0.3-0.6,0.5-1,0.5l-32.6,2.8
					C193,174.4,192.9,174.4,192.9,174.4z"/>
				<path class="st0" d="M218,122.9l1.7,10.9l-19.1,1.6l1.1,6.7l16.2-1.4l1.7,10.9l-16.2,1.4l1.3,7.9l19.1-1.6l1.7,10.9l-32.6,2.8
					l-7.5-47.2L218,122.9 M218,120.1c-0.1,0-0.2,0-0.2,0l-32.6,2.8c-0.8,0.1-1.5,0.5-2,1.1c-0.5,0.6-0.7,1.4-0.6,2.2l7.5,47.2
					c0.2,1.4,1.4,2.4,2.8,2.4c0.1,0,0.2,0,0.2,0l32.6-2.8c0.8-0.1,1.5-0.5,2-1.1c0.5-0.6,0.7-1.4,0.6-2.2l-1.7-10.9
					c-0.2-1.4-1.4-2.4-2.8-2.4c-0.1,0-0.2,0-0.2,0l-16.5,1.4l-0.4-2.3l13.2-1.1c0.8-0.1,1.5-0.5,2-1.1c0.5-0.6,0.7-1.4,0.6-2.2
					l-1.7-10.9c-0.2-1.4-1.4-2.4-2.8-2.4c-0.1,0-0.2,0-0.2,0l-13.6,1.2l-0.2-1.1l16-1.4c0.8-0.1,1.5-0.5,2-1.1
					c0.5-0.6,0.7-1.4,0.6-2.2l-1.7-10.9C220.6,121.1,219.4,120.1,218,120.1L218,120.1z"/>
			</g>
			<g>
				<path class="st5" d="M250.3,165.2c-7.1,0-11.7-4.1-13.2-11.5c-0.1-0.7,0.2-1.4,0.9-1.7l12.7-5.1c0.2-0.1,0.4-0.1,0.6-0.1
					c0.2,0,0.5,0.1,0.7,0.2c0.4,0.2,0.7,0.6,0.8,1c0.6,2.3,1.6,2.6,2.5,2.6c0.7,0,1.6-0.2,2.6-0.6c2.3-0.9,3.6-2.4,3.4-3.9
					c-0.1-0.5-0.2-1.4-3.5-1.4c-0.9,0-2.1,0.1-3.5,0.2c-1.8,0.2-3.5,0.3-5,0.3c-8.4,0-13-3.4-14.2-10.4c-0.8-4.8,0.3-9.4,3.2-13.7
					c2.9-4.2,7.1-7.5,12.5-9.7c3.3-1.4,6.4-2,9.1-2c4.5,0,10.2,1.9,12.2,10.9c0.2,0.7-0.2,1.4-0.9,1.7l-12.7,5.1
					c-0.2,0.1-0.4,0.1-0.6,0.1c-0.2,0-0.5-0.1-0.7-0.2c-0.4-0.2-0.7-0.6-0.8-1c-0.4-1.8-1.5-1.8-1.9-1.8c-0.4,0-0.9,0.1-1.5,0.3
					c-1.1,0.5-3,1.5-2.7,3.5c0.1,0.7,0.2,1.1,2.5,1.1c1.1,0,2.4-0.1,4.8-0.4c1.7-0.2,3.2-0.3,4.6-0.3c8.6,0,13,3.3,14.2,10.7
					c0.8,5-0.4,9.7-3.6,14c-3,4.1-7.2,7.3-12.7,9.6C256.7,164.4,253.3,165.2,250.3,165.2z"/>
				<path class="st0" d="M259.9,110.9c5.5,0,9.3,3.2,10.8,9.7l-12.7,5.1c-0.5-1.9-1.7-2.9-3.3-2.9c-0.6,0-1.3,0.1-2,0.4
					c-2.6,1.1-3.9,3-3.6,5.1c0.3,1.8,1.3,2.4,4,2.4c1.3,0,2.9-0.1,5-0.4c1.6-0.2,3.1-0.2,4.5-0.2c8.1,0,11.7,3,12.7,9.4
					c0.7,4.7-0.4,8.9-3.3,12.9c-2.9,4-6.9,7-12,9c-3.6,1.5-6.8,2.2-9.6,2.2c-6.4,0-10.4-3.7-11.7-10.3l12.7-5.1
					c0.6,2.5,1.9,3.7,4,3.7c0.9,0,2-0.2,3.1-0.7c3-1.2,4.7-3.3,4.3-5.5c-0.3-1.8-1.8-2.6-5-2.6c-1,0-2.2,0.1-3.6,0.2
					c-1.7,0.2-3.4,0.3-4.8,0.3c-7.5,0-11.6-2.7-12.7-9.1c-0.7-4.5,0.2-8.6,2.9-12.6c2.7-4,6.7-7,11.9-9.1
					C254.6,111.5,257.4,110.9,259.9,110.9 M259.9,107.9C259.9,107.9,259.9,107.9,259.9,107.9c-2.9,0-6.1,0.7-9.6,2.1
					c-5.7,2.3-10.2,5.8-13.2,10.2c-3.1,4.6-4.3,9.5-3.4,14.8c1.1,7.2,5.8,11.1,13.7,11.6l-9.9,4c-1.3,0.5-2.1,1.9-1.8,3.3
					c1.6,8.1,6.9,12.7,14.6,12.7c3.2,0,6.8-0.8,10.7-2.4c5.7-2.3,10.2-5.7,13.3-10.1c3.4-4.6,4.7-9.7,3.8-15.1
					c-1.3-8.2-6.3-12-15.7-12l9.3-3.8c1.4-0.6,2.1-2,1.8-3.4C271.9,112.1,267,107.9,259.9,107.9L259.9,107.9z M252,127.7
					c0-0.8,1.1-1.4,1.8-1.7c0.5-0.2,0.8-0.2,0.9-0.2c0.1,0,0.1,0,0.1,0c0,0,0.2,0.2,0.3,0.6c0.1,0.4,0.3,0.8,0.6,1.2
					c-1,0.1-1.9,0.1-2.7,0.1C252.6,127.7,252.2,127.7,252,127.7L252,127.7z M253.6,146.4c0.3,0,0.5-0.1,0.8-0.1
					c1.3-0.1,2.4-0.2,3.3-0.2c1.2,0,1.8,0.1,2,0.2c0,0.5-0.8,1.4-2.5,2.1c-1,0.4-1.7,0.5-2,0.5c-0.4,0-0.7,0-1.1-1.4
					C254.1,147.1,253.9,146.8,253.6,146.4L253.6,146.4z"/>
			</g>
		</g>
	</g>
</g>
</svg>
