<?xml version="1.0" encoding="utf-8"?>
<!-- Generator: Adobe Illustrator 21.1.0, SVG Export Plug-In . SVG Version: 6.00 Build 0)  -->
<svg version="1.1" id="Layer_1" xmlns="http://www.w3.org/2000/svg" xmlns:xlink="http://www.w3.org/1999/xlink" x="0px" y="0px"
	 viewBox="0 0 300 300" style="enable-background:new 0 0 300 300;" xml:space="preserve">
<style type="text/css">
	.st0{fill:#EDDFCA;}
	.st1{fill:#F4F062;}
</style>
<g>
	<g>
		<g>
			<path d="M105.6,160.3c-4,0-7.8-0.9-11.2-2.8c-5.7-3.2-9.6-8.2-11.5-14.8c-2.6-9-1.7-17.3,2.7-24.7c4.4-7.4,10.8-12.4,19.2-14.8
				c2.9-0.8,5.7-1.2,8.3-1.2c4.1,0,7.9,1,11.4,2.9c5.8,3.1,9.7,8.1,11.7,14.9c2.4,8.3,1.6,16.6-2.4,23.8c-4.1,7.4-11.3,13-19.7,15.4
				C111.1,159.9,108.2,160.3,105.6,160.3z M111.8,117.1c-1.1,0-2.3,0.2-3.6,0.5c-4.2,1.2-7.1,3.7-9,7.5c-1.9,3.8-2.2,8-0.9,12.6
				c1.4,4.8,4.4,7.4,8.7,7.4c1.1,0,2.3-0.2,3.5-0.5c4.1-1.2,7.1-3.6,9.1-7.5c2-3.9,2.3-8.1,1-12.7
				C119.3,119.7,116.1,117.1,111.8,117.1z"/>
			<path d="M113.1,103.5c3.8,0,7.4,0.9,10.7,2.7c5.5,2.9,9.1,7.6,10.9,14c5.1,17.5-5.6,32.9-21.1,37.4c-2.8,0.8-5.5,1.2-8,1.2
				c-3.8,0-7.2-0.9-10.5-2.6c-5.3-3-9-7.6-10.8-13.9c-2.5-8.6-1.6-16.5,2.5-23.5c4.2-7.1,10.3-11.8,18.3-14.1
				C107.9,103.8,110.6,103.5,113.1,103.5 M107,146.6c1.2,0,2.6-0.2,3.9-0.6c4.5-1.3,7.8-4.1,10-8.3c2.1-4.3,2.5-8.9,1.1-13.8
				c-1.5-5.4-5.2-8.4-10.2-8.4c-1.3,0-2.6,0.2-4,0.6c-4.6,1.3-7.9,4.1-10,8.3c-2.1,4.2-2.4,8.8-1,13.7
				C98.4,143.5,102.1,146.6,107,146.6 M113.1,100.5C113.1,100.5,113.1,100.5,113.1,100.5c-2.8,0-5.7,0.4-8.7,1.3
				c-8.8,2.5-15.5,7.7-20.1,15.4c-4.6,7.7-5.5,16.4-2.8,25.9c2,7.1,6.1,12.4,12.2,15.7c3.7,2,7.7,3,11.9,3c2.8,0,5.8-0.4,8.8-1.3
				c8.8-2.5,16.3-8.4,20.6-16.1c4.1-7.5,5-16.3,2.6-24.9c-2.1-7.2-6.2-12.5-12.4-15.8C121.5,101.5,117.4,100.5,113.1,100.5
				L113.1,100.5z M107,143.6c-4.5,0-6.4-3.4-7.2-6.3c-1.2-4.3-1-8,0.8-11.5c1.7-3.5,4.4-5.7,8.1-6.8c1.1-0.3,2.2-0.5,3.2-0.5
				c4.6,0,6.5,3.4,7.3,6.3c1.2,4.2,0.9,8-0.9,11.6c-1.8,3.5-4.4,5.7-8.1,6.7C109.1,143.5,108,143.6,107,143.6L107,143.6z"/>
		</g>
		<g>
			<path d="M145,149.1c-0.3,0-0.6-0.1-0.8-0.3c-0.4-0.2-0.6-0.6-0.7-1.1L138.1,96c-0.1-0.7,0.4-1.4,1.1-1.6l12.2-3.5
				c0.1,0,0.3-0.1,0.4-0.1c0.3,0,0.6,0.1,0.8,0.3c0.4,0.2,0.6,0.6,0.7,1.1l1.8,17.3l9.4-21.7c0.2-0.4,0.5-0.7,1-0.8l15.4-4.4
				c0.1,0,0.3-0.1,0.4-0.1c0.4,0,0.8,0.2,1.1,0.5c0.4,0.4,0.5,1.1,0.2,1.6l-11.9,27.4l18.7,22.5c0.3,0.4,0.4,0.9,0.3,1.4
				s-0.5,0.9-1,1l-13.1,3.7c-0.1,0-0.3,0.1-0.4,0.1c-0.4,0-0.9-0.2-1.1-0.5l-11.4-13.5l-4.8,9l0.9,8.5c0.1,0.7-0.4,1.4-1.1,1.6
				l-12.2,3.5C145.2,149.1,145.1,149.1,145,149.1z"/>
			<path d="M181.2,83.9l-12.3,28.2l19.3,23.2l-13.1,3.7l-12.8-15.2l-6,11.4l1,9l-12.2,3.5l-5.4-51.8l12.2-3.5l2.4,22.9l11.7-27
				L181.2,83.9 M181.2,80.9c-0.3,0-0.6,0-0.8,0.1L165,85.4c-0.9,0.2-1.6,0.9-1.9,1.7l-7.1,16.5L154.7,92c-0.1-0.9-0.6-1.7-1.3-2.2
				c-0.5-0.3-1.1-0.5-1.7-0.5c-0.3,0-0.6,0-0.8,0.1l-12.2,3.5c-1.4,0.4-2.3,1.7-2.2,3.2l5.4,51.8c0.1,0.9,0.6,1.7,1.3,2.2
				c0.5,0.3,1.1,0.5,1.7,0.5c0.3,0,0.6,0,0.8-0.1L158,147c1.4-0.4,2.3-1.8,2.2-3.2l-0.9-8l3.5-6.7l10,11.8c0.6,0.7,1.4,1.1,2.3,1.1
				c0.3,0,0.6,0,0.8-0.1l13.1-3.7c1-0.3,1.7-1,2-2c0.3-1,0.1-2-0.6-2.8l-18.1-21.7L184,85.1c0.5-1.1,0.3-2.3-0.5-3.2
				C182.9,81.3,182.1,80.9,181.2,80.9L181.2,80.9z M181.2,86.9L181.2,86.9L181.2,86.9L181.2,86.9z"/>
		</g>
	</g>
	<g>
		<g>
			<path class="st0" d="M109.6,153.1c-4,0-7.8-0.9-11.2-2.8c-5.7-3.2-9.6-8.2-11.5-14.8c-2.6-9-1.7-17.3,2.7-24.7
				c4.4-7.4,10.8-12.4,19.2-14.8c2.9-0.8,5.7-1.2,8.3-1.2c4.1,0,7.9,1,11.4,2.9c5.8,3.1,9.7,8.1,11.7,14.9
				c2.4,8.3,1.6,16.6-2.4,23.8c-4.1,7.4-11.3,13-19.7,15.4C115.1,152.6,112.3,153.1,109.6,153.1z M115.8,109.8
				c-1.1,0-2.3,0.2-3.6,0.5c-4.2,1.2-7.1,3.7-9,7.5c-1.9,3.8-2.2,8-0.9,12.6c1.4,4.8,4.4,7.4,8.7,7.4h0c1.1,0,2.3-0.2,3.5-0.5
				c4.1-1.2,7.1-3.6,9.1-7.5c2-3.9,2.3-8.1,1-12.7C123.3,112.5,120.2,109.8,115.8,109.8z"/>
			<path d="M117.1,96.2c3.8,0,7.4,0.9,10.7,2.7c5.5,2.9,9.1,7.6,10.9,14c5.1,17.5-5.6,32.9-21.1,37.4c-2.8,0.8-5.5,1.2-8,1.2
				c-3.8,0-7.2-0.9-10.5-2.6c-5.3-3-9-7.6-10.8-13.9c-2.5-8.6-1.6-16.5,2.5-23.5c4.2-7.1,10.3-11.8,18.3-14.1
				C111.9,96.6,114.6,96.2,117.1,96.2 M111,139.4c1.2,0,2.6-0.2,3.9-0.6c4.5-1.3,7.8-4.1,10-8.3c2.1-4.3,2.5-8.9,1.1-13.8
				c-1.5-5.4-5.2-8.4-10.2-8.4c-1.3,0-2.6,0.2-4,0.6c-4.6,1.3-7.9,4.1-10,8.3c-2.1,4.2-2.4,8.8-1,13.7
				C102.4,136.3,106.1,139.4,111,139.4 M117.1,93.2C117.1,93.2,117.1,93.2,117.1,93.2c-2.8,0-5.7,0.4-8.7,1.3
				c-8.8,2.5-15.5,7.7-20.1,15.4c-4.6,7.7-5.5,16.4-2.8,25.9c2,7.1,6.1,12.4,12.2,15.7c3.7,2,7.7,3,11.9,3c2.8,0,5.8-0.4,8.8-1.3
				c8.8-2.5,16.3-8.4,20.6-16.1c4.1-7.5,5-16.3,2.6-24.9c-2.1-7.2-6.2-12.5-12.4-15.8C125.5,94.3,121.4,93.2,117.1,93.2L117.1,93.2z
				 M111,136.4c-4.5,0-6.4-3.4-7.2-6.3c-1.2-4.3-1-8,0.8-11.5c1.7-3.5,4.4-5.7,8.1-6.8c1.1-0.3,2.2-0.5,3.2-0.5
				c4.6,0,6.5,3.4,7.3,6.3c1.2,4.2,0.9,8-0.9,11.6c-1.8,3.5-4.4,5.7-8.1,6.7C113.1,136.3,112,136.4,111,136.4L111,136.4z"/>
		</g>
		<g>
			<path class="st0" d="M149,141.9c-0.3,0-0.6-0.1-0.8-0.3c-0.4-0.2-0.6-0.6-0.7-1.1l-5.4-51.8c-0.1-0.7,0.4-1.4,1.1-1.6l12.2-3.5
				c0.1,0,0.3-0.1,0.4-0.1c0.3,0,0.6,0.1,0.8,0.3c0.4,0.2,0.6,0.6,0.7,1.1l1.8,17.3l9.4-21.7c0.2-0.4,0.5-0.7,1-0.8l15.4-4.4
				c0.1,0,0.3-0.1,0.4-0.1c0.4,0,0.8,0.2,1.1,0.5c0.4,0.4,0.5,1.1,0.2,1.6l-11.9,27.4l18.7,22.5c0.3,0.4,0.4,0.9,0.3,1.4
				s-0.5,0.9-1,1l-13.1,3.7c-0.1,0-0.3,0.1-0.4,0.1c-0.4,0-0.9-0.2-1.1-0.5l-11.4-13.5l-4.8,9l0.9,8.5c0.1,0.7-0.4,1.4-1.1,1.6
				l-12.2,3.5C149.3,141.9,149.1,141.9,149,141.9z"/>
			<path d="M185.2,76.7l-12.3,28.2l19.3,23.2l-13.1,3.7l-12.8-15.2l-6,11.4l1,9l-12.2,3.5l-5.4-51.8l12.2-3.5l2.4,22.9l11.7-27
				L185.2,76.7 M185.2,73.7c-0.3,0-0.6,0-0.8,0.1L169,78.2c-0.9,0.2-1.6,0.9-1.9,1.7L160,96.4l-1.2-11.6c-0.1-0.9-0.6-1.7-1.3-2.2
				c-0.5-0.3-1.1-0.5-1.7-0.5c-0.3,0-0.6,0-0.8,0.1l-12.2,3.5c-1.4,0.4-2.3,1.7-2.2,3.2l5.4,51.8c0.1,0.9,0.6,1.7,1.3,2.2
				c0.5,0.3,1.1,0.5,1.7,0.5c0.3,0,0.6,0,0.8-0.1l12.2-3.5c1.4-0.4,2.3-1.8,2.2-3.2l-0.9-8l3.5-6.7l10,11.8c0.6,0.7,1.4,1.1,2.3,1.1
				c0.3,0,0.6,0,0.8-0.1L193,131c1-0.3,1.7-1,2-2c0.3-1,0.1-2-0.6-2.8l-18.1-21.7L188,77.9c0.5-1.1,0.3-2.3-0.5-3.2
				C186.9,74.1,186.1,73.7,185.2,73.7L185.2,73.7z M185.2,79.7L185.2,79.7L185.2,79.7L185.2,79.7z"/>
		</g>
	</g>
	<g>
		<g>
			<path d="M130.4,224.8c-4,0-7.8-0.9-11.2-2.8c-5.7-3.2-9.6-8.2-11.5-14.8c-2.6-9-1.7-17.3,2.7-24.7c4.4-7.4,10.8-12.4,19.2-14.8
				c2.9-0.8,5.7-1.2,8.3-1.2c4.1,0,7.9,1,11.4,2.9c5.8,3.1,9.7,8.1,11.7,14.9c2.4,8.3,1.6,16.6-2.4,23.8c-4.1,7.4-11.3,13-19.7,15.4
				C135.9,224.4,133.1,224.8,130.4,224.8z M136.7,181.6c-1.1,0-2.3,0.2-3.6,0.5c-4.2,1.2-7.1,3.7-9,7.5c-1.9,3.8-2.2,8-0.9,12.6
				c1.4,4.8,4.4,7.4,8.7,7.4c0,0,0,0,0,0c1.1,0,2.3-0.2,3.5-0.5c4.1-1.2,7.1-3.6,9.1-7.5c2-3.9,2.3-8.1,1-12.7
				C144.1,184.2,141,181.6,136.7,181.6z"/>
			<path d="M138,168c3.8,0,7.4,0.9,10.7,2.7c5.5,2.9,9.1,7.6,10.9,14c5.1,17.5-5.6,32.9-21.1,37.4c-2.8,0.8-5.5,1.2-8,1.2
				c-3.8,0-7.2-0.9-10.5-2.6c-5.3-3-9-7.6-10.8-13.9c-2.5-8.6-1.6-16.5,2.5-23.5c4.2-7.1,10.3-11.8,18.3-14.1
				C132.8,168.4,135.4,168,138,168 M131.9,211.2c1.2,0,2.6-0.2,3.9-0.6c4.5-1.3,7.8-4.1,10-8.3c2.1-4.3,2.5-8.9,1.1-13.8
				c-1.5-5.4-5.2-8.4-10.2-8.4c-1.3,0-2.6,0.2-4,0.6c-4.6,1.3-7.9,4.1-10,8.3c-2.1,4.2-2.4,8.8-1,13.7
				C123.3,208.1,126.9,211.2,131.9,211.2 M138,165C138,165,138,165,138,165c-2.8,0-5.7,0.4-8.7,1.3c-8.8,2.5-15.5,7.7-20.1,15.4
				c-4.6,7.7-5.5,16.4-2.8,25.9c2,7.1,6.1,12.4,12.2,15.7c3.7,2,7.7,3,11.9,3c2.8,0,5.8-0.4,8.8-1.3c8.8-2.5,16.3-8.4,20.6-16.1
				c4.1-7.5,5-16.3,2.6-24.9c-2.1-7.2-6.2-12.5-12.4-15.8C146.4,166,142.3,165,138,165L138,165z M131.9,208.2
				c-4.5,0-6.4-3.4-7.2-6.3c-1.2-4.3-1-8,0.8-11.5c1.7-3.5,4.4-5.7,8.1-6.8c1.1-0.3,2.2-0.5,3.2-0.5c4.6,0,6.5,3.4,7.3,6.3
				c1.2,4.2,0.9,8-0.9,11.6c-1.8,3.5-4.4,5.7-8.1,6.7C133.9,208,132.9,208.2,131.9,208.2L131.9,208.2z"/>
		</g>
		<g>
			<path d="M169.8,213.6c-0.3,0-0.6-0.1-0.8-0.3c-0.4-0.2-0.6-0.6-0.7-1.1l-5.4-51.8c-0.1-0.7,0.4-1.4,1.1-1.6l12.2-3.5
				c0.1,0,0.3-0.1,0.4-0.1c0.3,0,0.6,0.1,0.8,0.3c0.4,0.2,0.6,0.6,0.7,1.1l1.8,17.3l9.4-21.7c0.2-0.4,0.5-0.7,1-0.8l15.4-4.4
				c0.1,0,0.3-0.1,0.4-0.1c0.4,0,0.8,0.2,1.1,0.5c0.4,0.4,0.5,1.1,0.2,1.6l-11.9,27.4l18.7,22.5c0.3,0.4,0.4,0.9,0.3,1.4
				s-0.5,0.9-1,1l-13.1,3.7c-0.1,0-0.3,0.1-0.4,0.1c-0.4,0-0.9-0.2-1.1-0.5L187.4,191l-4.8,9l0.9,8.5c0.1,0.7-0.4,1.4-1.1,1.6
				l-12.2,3.5C170.1,213.6,170,213.6,169.8,213.6z"/>
			<path d="M206.1,148.4l-12.3,28.2l19.3,23.2l-13.1,3.7l-12.8-15.2l-6,11.4l1,9l-12.2,3.5l-5.4-51.8l12.2-3.5l2.4,22.9l11.7-27
				L206.1,148.4 M206.1,145.4c-0.3,0-0.6,0-0.8,0.1l-15.4,4.4c-0.9,0.2-1.6,0.9-1.9,1.7l-7.1,16.5l-1.2-11.6
				c-0.1-0.9-0.6-1.7-1.3-2.2c-0.5-0.3-1.1-0.5-1.7-0.5c-0.3,0-0.6,0-0.8,0.1l-12.2,3.5c-1.4,0.4-2.3,1.7-2.2,3.2l5.4,51.8
				c0.1,0.9,0.6,1.7,1.3,2.2c0.5,0.3,1.1,0.5,1.7,0.5c0.3,0,0.6,0,0.8-0.1l12.2-3.5c1.4-0.4,2.3-1.8,2.2-3.2l-0.9-8l3.5-6.7l10,11.8
				c0.6,0.7,1.4,1.1,2.3,1.1c0.3,0,0.6,0,0.8-0.1l13.1-3.7c1-0.3,1.7-1,2-2c0.3-1,0.1-2-0.6-2.8l-18.1-21.7l11.6-26.5
				c0.5-1.1,0.3-2.3-0.5-3.2C207.7,145.8,206.9,145.4,206.1,145.4L206.1,145.4z M206.1,151.4L206.1,151.4L206.1,151.4L206.1,151.4z"
				/>
		</g>
	</g>
	<g>
		<g>
			<path class="st1" d="M134.4,217.6c-4,0-7.8-0.9-11.2-2.8c-5.7-3.2-9.6-8.2-11.5-14.8c-2.6-9-1.7-17.3,2.7-24.7
				c4.4-7.4,10.8-12.4,19.2-14.8c2.9-0.8,5.7-1.2,8.3-1.2c4.1,0,7.9,1,11.4,2.9c5.8,3.1,9.7,8.1,11.7,14.9
				c2.4,8.3,1.6,16.6-2.4,23.8c-4.1,7.4-11.3,13-19.7,15.4C139.9,217.2,137.1,217.6,134.4,217.6z M140.7,174.4
				c-1.1,0-2.3,0.2-3.6,0.5c-4.2,1.2-7.1,3.7-9,7.5c-1.9,3.8-2.2,8-0.9,12.6c1.4,4.8,4.4,7.4,8.7,7.4c0,0,0,0,0,0
				c1.1,0,2.3-0.2,3.5-0.5c4.1-1.2,7.1-3.6,9.1-7.5c2-3.9,2.3-8.1,1-12.7C148.1,177,145,174.4,140.7,174.4z"/>
			<path d="M142,160.8c3.8,0,7.4,0.9,10.7,2.7c5.5,2.9,9.1,7.6,10.9,14c5.1,17.5-5.6,32.9-21.1,37.4c-2.8,0.8-5.5,1.2-8,1.2
				c-3.8,0-7.2-0.9-10.5-2.6c-5.3-3-9-7.6-10.8-13.9c-2.5-8.6-1.6-16.5,2.5-23.5c4.2-7.1,10.3-11.8,18.3-14.1
				C136.8,161.2,139.4,160.8,142,160.8 M135.9,203.9c1.2,0,2.6-0.2,3.9-0.6c4.5-1.3,7.8-4.1,10-8.3c2.1-4.3,2.5-8.9,1.1-13.8
				c-1.5-5.4-5.2-8.4-10.2-8.4c-1.3,0-2.6,0.2-4,0.6c-4.6,1.3-7.9,4.1-10,8.3c-2.1,4.2-2.4,8.8-1,13.7
				C127.3,200.8,130.9,203.9,135.9,203.9 M142,157.8L142,157.8c-2.8,0-5.7,0.4-8.7,1.3c-8.8,2.5-15.5,7.7-20.1,15.4
				c-4.6,7.7-5.5,16.4-2.8,25.9c2,7.1,6.1,12.4,12.2,15.7c3.7,2,7.7,3,11.9,3c2.8,0,5.8-0.4,8.8-1.3c8.8-2.5,16.3-8.4,20.6-16.1
				c4.1-7.5,5-16.3,2.6-24.9c-2.1-7.2-6.2-12.5-12.4-15.8C150.4,158.8,146.3,157.8,142,157.8L142,157.8z M135.9,200.9
				c-4.5,0-6.4-3.4-7.2-6.3c-1.2-4.3-1-8,0.8-11.5c1.7-3.5,4.4-5.7,8.1-6.8c1.1-0.3,2.2-0.5,3.2-0.5c4.6,0,6.5,3.4,7.3,6.3
				c1.2,4.2,0.9,8-0.9,11.6c-1.8,3.5-4.4,5.7-8.1,6.7C137.9,200.8,136.9,200.9,135.9,200.9L135.9,200.9z"/>
		</g>
		<g>
			<polygon class="st1" points="166.8,152 181.9,147.7 183.9,166.7 193.6,144.4 212.7,138.9 199.5,169.2 219.7,193.4 203.4,198 
				191.4,183.8 186.6,192.8 187.6,202.5 172.5,206.9 			"/>
			<path d="M210.1,141.2l-12.3,28.2l19.3,23.2l-13.1,3.7l-12.8-15.2l-6,11.4l1,9l-12.2,3.5l-5.4-51.8l12.2-3.5l2.4,22.9l11.7-27
				L210.1,141.2 M215.4,136.6l-6.1,1.7l-15.4,4.4l-1.4,0.4l-0.6,1.3l-7.1,16.5l-1.2-11.6l-0.4-3.5l-3.4,1l-12.2,3.5l-2.4,0.7
				l0.3,2.5l5.4,51.8l0.4,3.6l3.4-1l12.2-3.5l2.4-0.7l-0.3-2.5l-0.9-8l3.5-6.7l10,11.8l1.3,1.5l1.9-0.5l13.1-3.7l4.4-1.3l-2.9-3.5
				l-18.1-21.7l11.6-26.5L215.4,136.6L215.4,136.6z"/>
		</g>
	</g>
</g>
</svg>
