<?xml version="1.0" encoding="utf-8"?>
<!-- Generator: Adobe Illustrator 21.1.0, SVG Export Plug-In . SVG Version: 6.00 Build 0)  -->
<svg version="1.1" id="Layer_1" xmlns="http://www.w3.org/2000/svg" xmlns:xlink="http://www.w3.org/1999/xlink" x="0px" y="0px"
	 viewBox="0 0 300 300" style="enable-background:new 0 0 300 300;" xml:space="preserve">
<style type="text/css">
	.st0{fill:#070707;}
	.st1{fill:#F4F062;}
</style>
<g>
	<g>
		<g>
			<g>
				<polygon class="st0" points="19.2,167.5 29.1,154.8 33.5,123 44.1,131.3 42,146.1 41.5,148.2 43.5,147.3 57.5,141.7 68,149.9 
					38.2,162 28.3,174.6 				"/>
				<path class="st0" d="M33.9,124l9.6,7.5l-2,14.5l-0.7,3.1l2.9-1.4l13.6-5.4l9.6,7.5l-29.1,11.8l-9.7,12.4l-8.3-6.5l9.7-12.4
					L33.9,124 M33.2,122.1l-0.2,1.7l-4.4,30.8l-9.5,12.1l-0.6,0.8l0.8,0.6l8.3,6.5l0.8,0.6l0.6-0.8l9.5-12.1l28.9-11.7l1.6-0.6
					l-1.4-1.1l-9.6-7.5l-0.5-0.4l-0.5,0.2l-13.6,5.4l0,0l0,0l-1,0.5l0.2-1.1l0,0l0,0l2-14.5l0.1-0.6l-0.5-0.4l-9.6-7.5L33.2,122.1
					L33.2,122.1z"/>
			</g>
			<g>
				<path class="st0" d="M81.1,200l-0.2-8.6l-14.2-4.7l-5.3,6.8l-11.8-3.9l29.6-36.4l11.9,4l1.8,46.9L81.1,200z M80.7,180.8
					l-0.2-10.7l0-1.1l-0.6,0.9l-6.6,8.5L80.7,180.8z"/>
				<path class="st0" d="M79.4,153.7l11.3,3.8l1.8,45.8l-10.8-3.6l-0.2-8.6l-14.9-5l-5.3,6.8l-10.8-3.6L79.4,153.7 M81.1,167.5
					l-1.6,2.1l-7,9l8.7,2.9L81,170.1L81.1,167.5 M79,152.6l-0.4,0.5l-28.9,35.5l-0.9,1.1l1.4,0.5l10.8,3.6l0.7,0.2l0.4-0.6l4.9-6.2
					l13.5,4.5l0.2,7.9l0,0.7l0.7,0.2l10.8,3.6l1.4,0.5l-0.1-1.4l-1.8-45.8l0-0.7l-0.7-0.2l-11.3-3.8L79,152.6L79,152.6z M74.1,178.1
					l5.9-7.6l0.2,9.6L74.1,178.1L74.1,178.1z"/>
			</g>
			<g>
				<path class="st0" d="M120.9,160.9l12.6-0.6l18.7,43l-12.5,0.6l-3.3-7.9l-15,0.7l-2.5,8.2l-12.5,0.6L120.9,160.9z M127.6,176.2
					l-3.1,10.3l7.8-0.4l-4-9.9l-0.4-1L127.6,176.2z"/>
				<path class="st0" d="M133.1,160.8l18.2,42l-11.4,0.6l-3.3-7.9l-15.7,0.8l-2.5,8.2l-11.4,0.6l14.1-43.6L133.1,160.8 M123.8,187.1
					l9.2-0.4l-4.3-10.6l-0.9-2.5l-0.7,2.5L123.8,187.1 M133.8,159.8l-0.7,0l-11.9,0.6l-0.7,0l-0.2,0.7l-14.1,43.6l-0.4,1.4l1.4-0.1
					l11.4-0.6l0.7,0l0.2-0.7l2.3-7.5l14.3-0.7l3,7.3l0.3,0.7l0.7,0l11.4-0.6l1.4-0.1l-0.6-1.3l-18.2-42L133.8,159.8L133.8,159.8z
					 M125.2,186l2.7-9.2l3.6,8.9L125.2,186L125.2,186z"/>
			</g>
			<g>
				<path class="st0" d="M163.9,156l11.8-4.3l30.4,35.7l-11.7,4.2L189,185l-14.1,5.1l0,8.6l-11.7,4.2L163.9,156z M174.8,168.7
					l0.1,10.7l7.3-2.6l-6.8-8.3l-0.7-0.9L174.8,168.7z"/>
				<path class="st0" d="M175.5,152.3l29.7,34.8l-10.7,3.9l-5.4-6.6l-14.7,5.3l0,8.6l-10.7,3.9l0.7-45.8L175.5,152.3 M174.4,180.1
					l8.6-3.1l-7.2-8.9l-1.6-2.1l0.1,2.6L174.4,180.1 M175.8,151.1l-0.7,0.2l-11.2,4l-0.7,0.2l0,0.7l-0.7,45.8l0,1.4l1.4-0.5
					l10.7-3.9l0.7-0.2l0-0.7l0-7.9l13.4-4.8l5,6.1l0.4,0.5l0.7-0.2l10.7-3.9l1.4-0.5l-0.9-1.1l-29.7-34.8L175.8,151.1L175.8,151.1z
					 M175.4,178.7l-0.1-9.6l6.1,7.4L175.4,178.7L175.4,178.7z"/>
			</g>
			<g>
				<path class="st0" d="M221.1,175.3c-4.5,0-8.5-2.2-11.6-6.4l-0.3-0.4l9.6-6.6l0.3,0.4c1.1,1.4,2.3,2.1,3.6,2.1
					c0.9,0,1.9-0.4,2.9-1.1c0.9-0.6,1.5-1.4,1.8-2.2c0.2-0.7,0.1-1.4-0.3-2.1c-0.6-0.8-1.4-1.2-2.7-1.2c-1.2,0-2.7,0.3-4.9,1
					c-3.2,1-5.9,1.5-8.2,1.5c-4.5,0-7.9-1.8-10.5-5.6c-2.4-3.4-3.2-7-2.4-10.6c0.8-3.6,3.1-6.8,6.8-9.3c3.1-2.1,6.1-3.2,9.1-3.2
					c4.1,0,7.8,2.1,10.9,6.1l0.3,0.4l-9.6,6.6l-0.3-0.4c-0.8-1-1.8-1.6-2.9-1.6c-0.7,0-1.3,0.2-1.9,0.7c-0.8,0.5-1.3,1.2-1.4,1.9
					c-0.2,0.7,0,1.3,0.5,2c0.6,0.8,1.2,1.2,2.2,1.2c1.2,0,2.9-0.5,5.6-1.3c3.1-0.9,5.7-1.4,8-1.4c4.5,0,7.8,1.8,10.6,5.8
					c2.5,3.6,3.2,7.2,2.2,10.9c-0.9,3.6-3.2,6.7-6.9,9.3C227.8,174.1,224.4,175.3,221.1,175.3z"/>
				<path class="st0" d="M214,132c3.8,0,7.4,1.9,10.5,5.9l-8.8,6.1c-1-1.2-2.1-1.8-3.3-1.8c-0.8,0-1.5,0.2-2.2,0.7
					c-1.8,1.3-2.2,2.9-1.1,4.6c0.7,1,1.4,1.4,2.6,1.4c1.3,0,3-0.5,5.7-1.3c3-0.9,5.6-1.4,7.9-1.4c4.5,0,7.6,1.9,10.2,5.6
					c2.4,3.5,3.1,6.9,2.2,10.5c-0.9,3.5-3.2,6.5-6.7,9c-3.5,2.4-6.8,3.5-9.9,3.5c-4.3,0-8.2-2.2-11.2-6.2l8.8-6.1
					c1.2,1.5,2.6,2.3,4,2.3c1,0,2.1-0.4,3.2-1.2c2.1-1.4,2.7-3.3,1.6-5c-0.7-1-1.6-1.4-3.1-1.4c-1.3,0-2.9,0.3-5.1,1
					c-3,1-5.7,1.5-8.1,1.5c-4.3,0-7.5-1.7-10.1-5.4c-2.3-3.3-3.1-6.7-2.3-10.2c0.8-3.5,3-6.5,6.6-9C208.2,133,211.1,132,214,132
					 M214,131L214,131c-3,0-6.2,1.1-9.4,3.3c-3.8,2.6-6.1,5.9-7,9.6c-0.8,3.8,0,7.5,2.5,11c2.7,3.9,6.3,5.8,10.9,5.8
					c2.4,0,5.2-0.5,8.4-1.5c2.1-0.7,3.7-1,4.8-1c1.4,0,2,0.5,2.3,1c0.4,0.5,0.5,1.1,0.3,1.7c-0.2,0.7-0.8,1.3-1.6,1.9
					c-0.9,0.7-1.8,1-2.6,1c-1.1,0-2.2-0.6-3.2-1.9l-0.6-0.7l-0.8,0.5l-8.8,6.1l-0.8,0.6l0.6,0.8c3.2,4.3,7.4,6.6,12,6.6
					c3.4,0,7-1.2,10.5-3.7c3.8-2.6,6.2-5.8,7.1-9.6c1-3.8,0.3-7.7-2.3-11.3c-2.9-4.1-6.4-6-11-6c-2.3,0-5,0.5-8.1,1.4
					c-2.6,0.8-4.3,1.2-5.4,1.2c-0.9,0-1.3-0.2-1.8-1c-0.4-0.6-0.5-1.1-0.4-1.6c0.1-0.5,0.6-1.1,1.2-1.6c0.5-0.4,1.1-0.6,1.7-0.6
					c0.9,0,1.7,0.5,2.5,1.4l0.6,0.7l0.8-0.5l8.8-6.1l0.9-0.6l-0.7-0.8C222,133.1,218.2,131,214,131L214,131z"/>
			</g>
			<g>
				<path class="st0" d="M259.5,140.2c-2.5,0-5.1-0.7-7.7-2.1l-0.5-0.2l5.8-10.1l0.4,0.2c1,0.5,1.8,0.7,2.6,0.7
					c1.5,0,2.7-0.8,3.7-2.6c0.6-1,0.8-1.9,0.7-2.7c-0.1-0.8-0.5-1.4-1.2-1.8c-0.4-0.3-0.9-0.4-1.3-0.4c-1.4,0-3,1-5.7,3.4
					c-4.6,4.2-8.5,6.2-12.3,6.2c-2.1,0-4.2-0.6-6.4-1.9c-3.6-2.1-5.9-5-6.7-8.6c-0.8-3.6-0.1-7.4,2.1-11.3c3-5.2,7.1-7.9,11.8-7.9
					c2.3,0,4.9,0.7,7.5,2l0.5,0.2l-5.8,10.1l-0.4-0.2c-0.7-0.3-1.3-0.5-2-0.5c-1.2,0-2.1,0.6-2.8,1.7c-0.5,0.8-0.7,1.6-0.5,2.3
					c0.1,0.7,0.6,1.2,1.3,1.6c0.5,0.3,0.9,0.4,1.3,0.4c1.3,0,2.8-1.2,5.7-3.8c4.5-4.1,8.3-6,12-6c2.2,0,4.4,0.7,6.7,2
					c3.8,2.2,6,5.1,6.7,8.9c0.7,3.6-0.1,7.5-2.3,11.4C269.4,137.2,264.8,140.2,259.5,140.2z"/>
				<path class="st0" d="M244.8,101.8c2.2,0,4.7,0.6,7.2,1.9l-5.3,9.2c-0.8-0.4-1.5-0.5-2.2-0.5c-1.4,0-2.5,0.7-3.2,2
					c-1.1,1.9-0.7,3.6,1,4.6c0.5,0.3,1.1,0.5,1.6,0.5c1.5,0,3-1.3,6-4c4.4-4,8.1-5.9,11.7-5.9c2.2,0,4.3,0.7,6.5,1.9
					c3.7,2.1,5.8,4.9,6.4,8.6c0.7,3.6-0.1,7.2-2.2,11c-3.3,5.8-7.9,8.6-12.8,8.6c-2.4,0-5-0.7-7.5-2l5.3-9.2c1,0.5,2,0.7,2.8,0.7
					c1.7,0,3.1-0.9,4.1-2.8c1.3-2.2,1-4.2-0.7-5.1c-0.5-0.3-1-0.4-1.6-0.4c-1.5,0-3.4,1.1-6,3.6c-4.3,4-8.1,6.1-11.9,6.1
					c-2,0-4.1-0.6-6.2-1.8c-3.5-2-5.7-4.7-6.5-8.3c-0.8-3.5-0.1-7.2,2.1-11C236.3,104.4,240.2,101.8,244.8,101.8 M244.8,100.8
					L244.8,100.8c-5,0-9.2,2.8-12.3,8.2c-2.3,4-3,7.9-2.2,11.7c0.9,3.7,3.2,6.7,7,8.9c2.3,1.3,4.5,1.9,6.7,1.9c4,0,8-2,12.6-6.3
					c2.5-2.3,4.1-3.3,5.3-3.3c0.4,0,0.7,0.1,1.1,0.3c0.6,0.3,0.9,0.8,1,1.4c0.1,0.7-0.1,1.5-0.6,2.4c-0.9,1.6-2,2.3-3.3,2.3
					c-0.7,0-1.5-0.2-2.4-0.6l-0.8-0.4l-0.5,0.8l-5.3,9.2l-0.5,0.9l0.9,0.5c2.7,1.4,5.3,2.2,7.9,2.2c5.5,0,10.2-3.2,13.6-9.1
					c2.3-4,3.1-7.9,2.3-11.7c-0.7-3.9-3-7-6.9-9.3c-2.4-1.4-4.7-2.1-7-2.1c-3.8,0-7.7,1.9-12.3,6.1c-2.7,2.5-4.2,3.7-5.3,3.7
					c-0.3,0-0.7-0.1-1.1-0.3c-0.6-0.3-0.9-0.8-1.1-1.3c-0.1-0.5,0-1.2,0.5-1.9c0.5-1,1.4-1.5,2.4-1.5c0.5,0,1.1,0.1,1.7,0.4l0.8,0.4
					l0.5-0.8l5.3-9.2l0.5-0.9l-0.9-0.5C249.9,101.4,247.3,100.8,244.8,100.8L244.8,100.8z"/>
			</g>
		</g>
	</g>
	<g>
		<g>
			<g>
				<path class="st1" d="M33.6,168.7c-0.3,0-0.7-0.1-0.9-0.3l-8.3-6.5c-0.7-0.5-0.8-1.5-0.3-2.1l9.4-12l4.3-30.7
					c0.1-0.5,0.4-1,0.9-1.2c0.2-0.1,0.4-0.1,0.6-0.1c0.3,0,0.7,0.1,0.9,0.3l9.6,7.5c0.4,0.3,0.6,0.9,0.6,1.4l-2,14.5
					c0,0,0,0.2,0,0.2s0.2-0.1,0.2-0.1l13.6-5.4c0.2-0.1,0.4-0.1,0.6-0.1c0.3,0,0.7,0.1,0.9,0.3l9.6,7.5c0.4,0.3,0.6,0.9,0.6,1.4
					c-0.1,0.5-0.4,1-0.9,1.2l-28.7,11.6l-9.4,12c-0.2,0.3-0.6,0.5-1,0.6C33.7,168.7,33.7,168.7,33.6,168.7z"/>
				<path d="M39.3,117.2l9.6,7.5l-2,14.5l-0.7,3.1l2.9-1.4l13.6-5.4l9.6,7.5l-29.1,11.8l-9.7,12.4l-8.3-6.5l9.7-12.4L39.3,117.2
					 M39.3,114.2c-0.4,0-0.8,0.1-1.1,0.2c-1,0.4-1.7,1.3-1.8,2.4L32,147.1l-9.2,11.7c-1,1.3-0.8,3.2,0.5,4.2l8.3,6.5
					c0.5,0.4,1.2,0.6,1.8,0.6c0.1,0,0.2,0,0.4,0c0.8-0.1,1.5-0.5,2-1.1l9.2-11.7l28.4-11.5c1-0.4,1.7-1.3,1.8-2.4
					c0.1-1.1-0.3-2.1-1.1-2.8l-9.6-7.5c-0.5-0.4-1.2-0.6-1.8-0.6c-0.4,0-0.7,0.1-1.1,0.2l-11.5,4.6l1.7-12.2
					c0.1-1.1-0.3-2.1-1.1-2.8l-9.6-7.5C40.6,114.5,40,114.2,39.3,114.2L39.3,114.2z"/>
			</g>
			<g>
				<path class="st1" d="M97.8,198.1c-0.2,0-0.3,0-0.5-0.1l-10.8-3.6c-0.6-0.2-1-0.8-1-1.4l-0.1-7.5l-12.9-4.3l-4.6,5.9
					c-0.3,0.4-0.7,0.6-1.2,0.6c-0.2,0-0.3,0-0.5-0.1L55.4,184c-0.5-0.2-0.8-0.5-1-1c-0.1-0.5,0-1,0.3-1.4l28.9-35.5
					c0.3-0.4,0.7-0.6,1.2-0.6c0.2,0,0.3,0,0.5,0.1l11.3,3.8c0.6,0.2,1,0.7,1,1.4l1.8,45.8c0,0.5-0.2,1-0.6,1.3
					C98.4,198,98.1,198.1,97.8,198.1z M85,172.7l-0.1-7.4l-4.6,5.9L85,172.7z"/>
				<path d="M84.7,147l11.3,3.8l1.8,45.8L87,193l-0.2-8.6l-14.9-5l-5.3,6.8l-10.8-3.6L84.7,147 M86.4,160.7l-1.6,2.1l-7,9l8.7,2.9
					l-0.2-11.4L86.4,160.7 M84.7,144c-0.9,0-1.7,0.4-2.3,1.1l-28.9,35.5c-0.6,0.8-0.8,1.8-0.6,2.7c0.3,0.9,1,1.7,1.9,2l10.8,3.6
					c0.3,0.1,0.6,0.2,0.9,0.2c0.9,0,1.8-0.4,2.4-1.2l4-5.1l10.9,3.6L84,193c0,1.3,0.8,2.4,2,2.8l10.8,3.6c0.3,0.1,0.6,0.2,0.9,0.2
					c0.6,0,1.3-0.2,1.8-0.6c0.8-0.6,1.2-1.5,1.2-2.5L99,150.7c0-1.2-0.9-2.3-2-2.7l-11.3-3.8C85.4,144.1,85.1,144,84.7,144L84.7,144
					z M82.8,170.4l0.7-0.8l0,1.1L82.8,170.4L82.8,170.4z"/>
			</g>
			<g>
				<path class="st1" d="M112.5,199.7c-0.5,0-0.9-0.2-1.2-0.6c-0.3-0.4-0.4-0.9-0.2-1.4l14.1-43.6c0.2-0.6,0.7-1,1.4-1
					c0,0,11.9-0.6,11.9-0.6c0.6,0,1.1,0.4,1.4,0.9l18.2,42c0.2,0.5,0.2,1-0.1,1.4c-0.3,0.4-0.7,0.7-1.2,0.7c0,0-11.4,0.6-11.5,0.6
					c-0.6,0-1.2-0.4-1.4-0.9l-2.9-7l-13.5,0.7l-2.2,7.2c-0.2,0.6-0.7,1-1.4,1.1C124,199.2,112.6,199.7,112.5,199.7z M131.3,178.7
					l4.9-0.2l-2.8-6.9L131.3,178.7z"/>
				<path d="M138.5,154.1l18.2,42l-11.4,0.6l-3.3-7.9l-15.7,0.8l-2.5,8.2l-11.4,0.6l14.1-43.6L138.5,154.1 M129.2,180.3l9.2-0.4
					l-4.3-10.6l-0.9-2.5l-0.7,2.5L129.2,180.3 M138.5,151.1c0,0-0.1,0-0.1,0l-11.9,0.6c-1.2,0.1-2.3,0.9-2.7,2.1l-14.1,43.6
					c-0.3,0.9-0.1,2,0.5,2.7c0.6,0.7,1.5,1.2,2.4,1.2c0,0,0.1,0,0.1,0l11.4-0.6c1.3-0.1,2.4-0.9,2.7-2.1l1.9-6.2l11.4-0.6l2.5,6
					c0.5,1.1,1.6,1.9,2.8,1.9c0,0,0.1,0,0.1,0l11.4-0.6c1,0,1.9-0.6,2.4-1.4c0.5-0.8,0.6-1.9,0.2-2.8l-18.2-42
					C140.8,151.8,139.7,151.1,138.5,151.1L138.5,151.1z M133.3,177.1l0.3-1l0.4,1L133.3,177.1L133.3,177.1z"/>
			</g>
			<g>
				<path class="st1" d="M169.1,196.9c-0.3,0-0.6-0.1-0.9-0.3c-0.4-0.3-0.6-0.8-0.6-1.2l0.7-45.8c0-0.6,0.4-1.2,1-1.4l11.2-4
					c0.2-0.1,0.3-0.1,0.5-0.1c0.4,0,0.9,0.2,1.1,0.5l29.7,34.8c0.3,0.4,0.4,0.9,0.3,1.4c-0.1,0.5-0.5,0.9-0.9,1l-10.7,3.9
					c-0.2,0.1-0.3,0.1-0.5,0.1c-0.4,0-0.9-0.2-1.2-0.5l-4.8-5.8l-12.8,4.6l0,7.5c0,0.6-0.4,1.2-1,1.4l-10.7,3.9
					C169.4,196.9,169.2,196.9,169.1,196.9z M181.2,171.3l4.7-1.7l-4.7-5.8L181.2,171.3z"/>
				<path d="M180.9,145.6l29.7,34.8l-10.7,3.9l-5.4-6.6l-14.7,5.3l0,8.6l-10.7,3.9l0.7-45.8L180.9,145.6 M179.7,173.4l8.6-3.1
					l-7.2-8.9l-1.6-2.1l0.1,2.6L179.7,173.4 M180.9,142.6c-0.3,0-0.7,0.1-1,0.2l-11.2,4c-1.2,0.4-2,1.5-2,2.8l-0.7,45.8
					c0,1,0.5,1.9,1.3,2.5c0.5,0.4,1.1,0.6,1.7,0.6c0.3,0,0.7-0.1,1-0.2l10.7-3.9c1.2-0.4,2-1.6,2-2.8l0-6.5l10.8-3.9l4.1,5
					c0.6,0.7,1.4,1.1,2.3,1.1c0.3,0,0.7-0.1,1-0.2l10.7-3.9c0.9-0.3,1.6-1.1,1.9-2.1s0-2-0.6-2.7l-29.7-34.8
					C182.6,142.9,181.8,142.6,180.9,142.6L180.9,142.6z M182.7,169.1l0-1.1l0.7,0.8L182.7,169.1L182.7,169.1z"/>
			</g>
			<g>
				<path class="st1" d="M226.4,169.6c-4.8,0-9.1-2.4-12.4-6.8c-0.2-0.3-0.3-0.7-0.3-1.1s0.3-0.8,0.6-1l8.8-6.1
					c0.3-0.2,0.6-0.3,0.9-0.3c0.4,0,0.9,0.2,1.2,0.6c0.9,1.2,1.9,1.7,2.8,1.7c0.7,0,1.5-0.3,2.3-0.9c0.7-0.5,1.2-1.1,1.4-1.6
					c0.1-0.4,0.1-0.8-0.2-1.2c-0.3-0.5-0.8-0.8-1.9-0.8c-1.1,0-2.6,0.3-4.6,1c-3.3,1-6.1,1.5-8.5,1.5c-4.8,0-8.5-2-11.4-6
					c-2.6-3.7-3.4-7.5-2.6-11.4c0.8-3.9,3.3-7.2,7.2-9.9c3.3-2.3,6.5-3.4,9.6-3.4c4.3,0,8.4,2.2,11.7,6.5c0.3,0.3,0.4,0.7,0.3,1.1
					c-0.1,0.4-0.3,0.8-0.6,1l-8.8,6.1c-0.3,0.2-0.6,0.3-0.9,0.3c-0.4,0-0.9-0.2-1.2-0.6c-0.5-0.6-1.2-1.2-2.1-1.2
					c-0.5,0-0.9,0.2-1.4,0.5c-0.6,0.4-0.9,0.8-1,1.3c-0.1,0.4,0,0.8,0.3,1.2c0.4,0.6,0.7,0.7,1.4,0.7c1.1,0,2.8-0.5,5.3-1.2
					c3.2-1,5.9-1.5,8.3-1.5c4.8,0,8.5,2,11.4,6.3c2.6,3.8,3.4,7.8,2.4,11.8c-1,3.8-3.4,7.1-7.3,9.8
					C233.6,168.3,230,169.6,226.4,169.6z"/>
				<path d="M219.3,125.2c3.8,0,7.4,1.9,10.5,5.9l-8.8,6.1c-1-1.2-2.1-1.8-3.3-1.8c-0.8,0-1.5,0.2-2.2,0.7c-1.8,1.3-2.2,2.9-1.1,4.6
					c0.7,1,1.4,1.4,2.6,1.4c1.3,0,3-0.5,5.7-1.3c3-0.9,5.6-1.4,7.9-1.4c4.5,0,7.6,1.9,10.2,5.6c2.4,3.5,3.1,6.9,2.2,10.5
					c-0.9,3.5-3.2,6.5-6.7,9c-3.5,2.4-6.8,3.5-9.9,3.5c-4.3,0-8.2-2.2-11.2-6.2l8.8-6.1c1.2,1.5,2.6,2.3,4,2.3c1,0,2.1-0.4,3.2-1.2
					c2.1-1.4,2.7-3.3,1.6-5c-0.7-1-1.6-1.4-3.1-1.4c-1.3,0-2.9,0.3-5.1,1c-3,1-5.7,1.5-8.1,1.5c-4.3,0-7.5-1.7-10.1-5.4
					c-2.3-3.3-3.1-6.7-2.3-10.2c0.8-3.5,3-6.5,6.6-9C213.5,126.3,216.5,125.2,219.3,125.2 M219.3,122.2
					C219.3,122.2,219.3,122.2,219.3,122.2c-3.5,0-7,1.2-10.5,3.7c-4.2,2.9-6.8,6.6-7.8,10.9c-0.9,4.3,0,8.6,2.8,12.6
					c3.1,4.5,7.2,6.7,12.6,6.7c0.7,0,1.4,0,2.1-0.1l-5,3.5c-0.7,0.5-1.1,1.2-1.2,2c-0.1,0.8,0.1,1.6,0.5,2.3
					c3.6,4.9,8.3,7.5,13.6,7.5c3.8,0,7.8-1.4,11.6-4.1c4.2-2.9,6.8-6.5,7.9-10.7c1.2-4.4,0.3-8.8-2.6-13c-3.3-4.7-7.3-6.9-12.7-6.9
					c-1.2,0-2.4,0.1-3.7,0.3l4.6-3.2c0.7-0.5,1.1-1.2,1.3-2c0.1-0.8-0.1-1.6-0.6-2.3C228.6,124.7,224.2,122.2,219.3,122.2
					L219.3,122.2z M217,139c0.1-0.1,0.2-0.2,0.4-0.3c0.2-0.1,0.4-0.2,0.5-0.2c0.2,0,0.5,0.2,0.8,0.5c-0.6,0.1-1.1,0.2-1.4,0.2
					c0,0-0.1,0-0.1,0C217,139.1,217,139.1,217,139C217,139,217,139,217,139L217,139z M226.5,154.1c1.4-0.4,2.4-0.6,3.1-0.6
					c0.4,0,0.6,0.1,0.6,0.1c0,0,0,0,0.1,0.1c-0.1,0.1-0.3,0.4-0.8,0.8c-0.6,0.4-1.1,0.6-1.5,0.6
					C227.5,155.1,226.9,154.6,226.5,154.1L226.5,154.1z"/>
			</g>
			<g>
				<path class="st1" d="M264.9,134.5c-2.7,0-5.4-0.7-8.2-2.2c-0.4-0.2-0.6-0.5-0.7-0.9c-0.1-0.4-0.1-0.8,0.1-1.2l5.3-9.2
					c0.3-0.5,0.8-0.8,1.3-0.8c0.2,0,0.4,0,0.6,0.1c0.8,0.4,1.6,0.6,2.2,0.6c0.7,0,1.8-0.2,2.8-2.1c0.4-0.8,0.6-1.5,0.6-2.1
					c-0.1-0.5-0.3-0.8-0.7-1c-0.3-0.2-0.6-0.2-0.8-0.2c-1,0-2.6,1-5,3.2c-4.7,4.4-8.9,6.5-13,6.5c-2.3,0-4.6-0.7-6.9-2
					c-3.9-2.2-6.3-5.3-7.2-9.2c-0.9-3.9-0.1-7.9,2.2-12.1c3.2-5.5,7.6-8.4,12.7-8.4c2.5,0,5.2,0.7,7.9,2.1c0.4,0.2,0.6,0.5,0.8,0.9
					s0.1,0.8-0.1,1.2l-5.3,9.2c-0.3,0.5-0.8,0.8-1.3,0.8c-0.2,0-0.4,0-0.6-0.1c-0.5-0.3-1.1-0.4-1.5-0.4c-0.8,0-1.5,0.4-1.9,1.2
					c-0.4,0.6-0.5,1.2-0.4,1.6c0.1,0.4,0.4,0.7,0.8,1c0.4,0.3,0.7,0.3,0.8,0.3c1,0,2.9-1.6,5-3.6c4.7-4.3,8.7-6.3,12.7-6.3
					c2.4,0,4.7,0.7,7.2,2.1c4,2.3,6.4,5.5,7.2,9.6c0.8,3.9,0,7.9-2.4,12C275.5,131.2,270.5,134.5,264.9,134.5z"/>
				<path d="M250.2,95c2.2,0,4.7,0.6,7.2,1.9l-5.3,9.2c-0.8-0.4-1.5-0.5-2.2-0.5c-1.4,0-2.5,0.7-3.2,2c-1.1,1.9-0.7,3.6,1,4.6
					c0.5,0.3,1.1,0.5,1.6,0.5c1.5,0,3-1.3,6-4c4.4-4,8.1-5.9,11.7-5.9c2.2,0,4.3,0.7,6.5,1.9c3.7,2.1,5.8,4.9,6.4,8.6
					c0.7,3.6-0.1,7.2-2.2,11c-3.3,5.8-7.9,8.6-12.8,8.6c-2.4,0-5-0.7-7.5-2l5.3-9.2c1,0.5,2,0.7,2.8,0.7c1.7,0,3.1-0.9,4.1-2.8
					c1.3-2.2,1-4.2-0.7-5.1c-0.5-0.3-1-0.4-1.6-0.4c-1.5,0-3.4,1.1-6,3.6c-4.3,4-8.1,6.1-11.9,6.1c-2,0-4.1-0.6-6.2-1.8
					c-3.5-2-5.7-4.7-6.5-8.3c-0.8-3.5-0.1-7.2,2.1-11C241.7,97.7,245.6,95,250.2,95 M250.2,92C250.2,92,250.2,92,250.2,92
					c-4,0-9.7,1.6-14,9.2c-2.6,4.5-3.4,8.9-2.4,13.1c1,4.3,3.7,7.7,7.9,10.2c2.5,1.5,5.1,2.2,7.7,2.2c2.8,0,5.5-0.8,8.4-2.6
					l-3.1,5.3c-0.4,0.7-0.5,1.5-0.3,2.3c0.2,0.8,0.8,1.4,1.5,1.8c3,1.6,6,2.4,8.9,2.4c6.2,0,11.6-3.6,15.4-10.1
					c2.5-4.4,3.4-8.8,2.6-13.1c-0.8-4.5-3.5-8.1-7.9-10.6c-2.8-1.6-5.4-2.3-8-2.3c-3.1,0-6.3,1.1-9.7,3.4l2.8-4.8
					c0.4-0.7,0.5-1.6,0.3-2.4c-0.2-0.8-0.8-1.4-1.5-1.8C255.8,92.8,253,92,250.2,92L250.2,92z M249.1,109.5c0-0.1,0.1-0.3,0.2-0.4
					c0.3-0.5,0.5-0.5,0.6-0.5c0.2,0,0.4,0.1,0.7,0.1c-0.5,0.4-1,0.7-1.3,0.9C249.3,109.6,249.2,109.6,249.1,109.5
					C249.2,109.6,249.2,109.5,249.1,109.5L249.1,109.5z M264.2,119.1c2.2-1.9,3-2,3.2-2c0,0,0,0,0.1,0c0,0.2-0.1,0.5-0.4,1.1
					c-0.7,1.3-1.3,1.3-1.5,1.3C265.3,119.5,264.9,119.4,264.2,119.1L264.2,119.1z"/>
			</g>
		</g>
	</g>
</g>
</svg>
