<?xml version="1.0" encoding="utf-8"?>
<!-- Generator: Adobe Illustrator 22.0.1, SVG Export Plug-In . SVG Version: 6.00 Build 0)  -->
<svg version="1.1" id="Layer_1" xmlns="http://www.w3.org/2000/svg" xmlns:xlink="http://www.w3.org/1999/xlink" x="0px" y="0px"
	 viewBox="0 0 300 300" style="enable-background:new 0 0 300 300;" xml:space="preserve">
<style type="text/css">
	.st0{fill:#F96B59;stroke:#000000;stroke-width:3;stroke-miterlimit:10;}
</style>
<g>
	<g>
		<g>
			<path class="st0" d="M219.3,107.8c-10.7-18.5-27.9-31.7-48.6-37.3c-20.6-5.5-42.2-2.7-60.7,8s-31.7,27.9-37.3,48.6
				s-2.7,42.2,8,60.7s27.9,31.7,48.6,37.3c6.9,1.8,13.9,2.8,20.8,2.8c13.9,0,27.5-3.6,39.9-10.7c18.5-10.7,31.7-27.9,37.3-48.6
				C232.8,147.9,229.9,126.3,219.3,107.8z M215.5,165.4c-4.7,17.5-15.9,32.1-31.6,41.2c-15.7,9.1-34,11.5-51.5,6.8
				s-32.1-15.9-41.2-31.6s-11.5-34-6.8-51.5s15.9-32.1,31.6-41.2c10.5-6,22.1-9.1,33.8-9.1c5.9,0,11.8,0.8,17.7,2.3
				c17.5,4.7,32.1,15.9,41.2,31.6C217.8,129.6,220.2,147.9,215.5,165.4z"/>
			<path class="st0" d="M111.7,166.9l6.1,10.5l28.9-16.7l6.9,12c3.5,6,9.1,10.3,15.8,12.1c2.2,0.6,4.5,0.9,6.8,0.9
				c4.5,0,9-1.2,13-3.5c6-3.5,10.3-9.1,12.1-15.8s0.9-13.7-2.6-19.8l-13-22.5L111.7,166.9z M181.3,140.8l6.9,12
				c3.8,6.6,1.6,15.2-5.1,19c-6.6,3.8-15.2,1.6-19-5.1l-6.9-12L181.3,140.8z"/>
		</g>
		<g>
			<g>
				<ellipse class="st0" cx="158.4" cy="113.6" rx="9.3" ry="9.3"/>
			</g>
			<path class="st0" d="M111.3,129.9c-4.3,2.5-7.3,6.4-8.6,11.2c-1.3,4.8-0.6,9.7,1.8,14L115,149c-0.8-1.5-1.1-3.2-0.6-4.8
				c0.4-1.6,1.5-3,2.9-3.8c3-1.7,6.9-0.7,8.6,2.3l10.5-6.1C131.4,127.8,120.1,124.8,111.3,129.9z"/>
		</g>
	</g>
</g>
</svg>
