<?xml version="1.0" encoding="utf-8"?>
<!-- Generator: Adobe Illustrator 21.1.0, SVG Export Plug-In . SVG Version: 6.00 Build 0)  -->
<svg version="1.1" id="Layer_1" xmlns="http://www.w3.org/2000/svg" xmlns:xlink="http://www.w3.org/1999/xlink" x="0px" y="0px"
	 viewBox="0 0 300 300" style="enable-background:new 0 0 300 300;" xml:space="preserve">
<style type="text/css">
	.st0{fill:#F96C5A;stroke:#070707;stroke-width:3;stroke-miterlimit:10;}
</style>
<g>
	<g>
		<path class="st0" d="M150,230c-44.1,0-80-35.9-80-80s35.9-80,80-80s80,35.9,80,80S194.1,230,150,230z M150,82.3
			c-37.3,0-67.7,30.4-67.7,67.7s30.4,67.7,67.7,67.7s67.7-30.4,67.7-67.7S187.3,82.3,150,82.3z"/>
	</g>
	<g>
		<g>
			<path class="st0" d="M150,201.3c-12.3,0-24.2-4.4-33.5-12.4c-9.2-7.9-15.3-18.8-17.2-30.8l12.2-1.9c3,19,19.2,32.8,38.5,32.8
				s35.5-13.8,38.5-32.8l12.2,1.9c-1.9,11.9-8,22.9-17.2,30.8C174.2,196.9,162.3,201.3,150,201.3z"/>
		</g>
	</g>
	<g>
		<g>
			<circle class="st0" cx="174.7" cy="133.2" r="9.5"/>
		</g>
		<path class="st0" d="M124.6,123.5c-5,0-9.8,2-13.4,5.5c-3.6,3.6-5.5,8.3-5.5,13.4l12.4,0c0-1.7,0.7-3.3,1.9-4.6
			c1.2-1.2,2.8-1.9,4.6-1.9c3.6,0,6.5,2.9,6.5,6.5l12.4,0C143.5,132,135.1,123.5,124.6,123.5z"/>
	</g>
</g>
</svg>
