<?xml version="1.0" encoding="utf-8"?>
<!-- Generator: Adobe Illustrator 21.1.0, SVG Export Plug-In . SVG Version: 6.00 Build 0)  -->
<svg version="1.1" id="Layer_1" xmlns="http://www.w3.org/2000/svg" xmlns:xlink="http://www.w3.org/1999/xlink" x="0px" y="0px"
	 viewBox="0 0 300 300" style="enable-background:new 0 0 300 300;" xml:space="preserve">
<style type="text/css">
	.st0{fill:#6B9956;stroke:#070707;stroke-width:3;stroke-linecap:round;stroke-linejoin:round;stroke-miterlimit:10;}
</style>
<g>
	<path class="st0" d="M129.7,154.1c4.6-1.9,8.3-5.5,10.2-10.2c1.9-4.6,1.9-9.8,0-14.4l-11.4,4.7c0.7,1.6,0.7,3.3,0,4.9
		c-0.7,1.6-1.9,2.8-3.5,3.5c-3.3,1.3-7-0.2-8.4-3.5l-11.4,4.7C109.1,153.5,120.1,158,129.7,154.1z"/>
	<ellipse transform="matrix(0.866 -0.5 0.5 0.866 -40.9935 103.1769)" class="st0" cx="172" cy="128.1" rx="9.5" ry="9.5"/>
	<path class="st0" d="M227.3,131c-10.5-42.6-53.7-68.8-96.3-58.3c-20.6,5.1-38.1,17.9-49.1,36.1c-11,18.2-14.3,39.6-9.2,60.2
		c8.9,36.3,41.5,60.6,77.3,60.6c6.3,0,12.6-0.7,19-2.3c20.6-5.1,38.1-17.9,49.1-36.1C229.1,173,232.4,151.6,227.3,131z M207.6,184.9
		c-9.3,15.4-24.1,26.2-41.5,30.5c-5.4,1.3-10.8,2-16.1,2c-30.3,0-57.9-20.6-65.4-51.3c-4.3-17.5-1.5-35.6,7.8-50.9
		c9.3-15.4,24.1-26.2,41.5-30.5c5.4-1.3,10.8-2,16.1-2c30.3,0,57.9,20.6,65.4,51.3C219.7,151.4,216.9,169.5,207.6,184.9z"/>
	<path class="st0" d="M178.6,155.7l6.5,5.5c-3.1,4.3-8,9.8-14.4,11.8c-5.3,1.7-10.9,0.7-17.1-2.9c-22.9-13.6-43.6,2.3-44.5,3
		l7.5,9.6c0.6-0.5,15.1-11.4,30.7-2.1c6.1,3.6,12.2,5.5,18.2,5.5c3,0,5.9-0.5,8.8-1.4c9.2-2.9,15.9-9.8,20.1-15.6l6.1,5.2l7.9-9.3
		l-22-18.7L178.6,155.7z"/>
</g>
</svg>
