<?xml version="1.0" encoding="utf-8"?>
<!-- Generator: Adobe Illustrator 21.1.0, SVG Export Plug-In . SVG Version: 6.00 Build 0)  -->
<svg version="1.1" id="Layer_1" xmlns="http://www.w3.org/2000/svg" xmlns:xlink="http://www.w3.org/1999/xlink" x="0px" y="0px"
	 viewBox="0 0 300 300" style="enable-background:new 0 0 300 300;" xml:space="preserve">
<style type="text/css">
	.st0{fill:#E7D8EA;stroke:#070707;stroke-width:2.8369;stroke-miterlimit:10;}
</style>
<g>
	<g>
		<g>
			<g>
				<path class="st0" d="M149.9,229.6c-8.7,0-17.5-1.4-26.2-4.5c-20.1-7-36.2-21.4-45.4-40.6c-9.2-19.1-10.5-40.7-3.5-60.8
					c14.5-41.4,59.9-63.4,101.4-48.9c20.1,7,36.2,21.4,45.4,40.6c9.2,19.1,10.5,40.7,3.5,60.8C213.7,209,182.8,229.6,149.9,229.6z
					 M150.1,82.7c-27.8,0-54,17.4-63.6,45.2c-5.9,17-4.9,35.3,2.9,51.5c7.8,16.2,21.5,28.4,38.5,34.3c35.1,12.2,73.5-6.3,85.8-41.4
					c5.9-17,4.9-35.3-2.9-51.5c-7.8-16.2-21.5-28.4-38.5-34.3l0,0C164.9,83.9,157.4,82.7,150.1,82.7z"/>
			</g>
			<g>
				<path class="st0" d="M166.4,194.7c-4,0-8-0.7-12-2c-9.2-3.2-16.6-9.8-20.8-18.6c-4.2-8.8-4.8-18.6-1.6-27.8
					c6.6-19,27.4-29,46.4-22.4l0,0c9.2,3.2,16.6,9.8,20.8,18.6c4.2,8.8,4.8,18.6,1.6,27.8C195.6,185.3,181.4,194.7,166.4,194.7z
					 M166.4,134.1c-10,0-19.4,6.3-22.8,16.2c-2.1,6.1-1.8,12.7,1.1,18.5s7.7,10.2,13.8,12.3c12.6,4.4,26.4-2.3,30.8-14.9
					c2.1-6.1,1.8-12.7-1.1-18.5c-2.8-5.8-7.7-10.2-13.8-12.3C171.8,134.5,169.1,134.1,166.4,134.1z"/>
			</g>
		</g>
		<path class="st0" d="M105.7,126.4c-3.2,3.8-4.8,8.7-4.4,13.7c0.4,5,2.8,9.6,6.6,12.8l8-9.5c-1.3-1.1-2.1-2.7-2.3-4.4
			c-0.1-1.7,0.4-3.4,1.5-4.7c2.3-2.7,6.4-3,9.1-0.8l8-9.5C124.3,117.5,112.4,118.5,105.7,126.4z"/>
		<g>
			
				<ellipse transform="matrix(0.6456 -0.7636 0.7636 0.6456 -25.5884 154.6703)" class="st0" cx="153.9" cy="104.9" rx="9.5" ry="9.5"/>
		</g>
	</g>
</g>
</svg>
