<?xml version="1.0" encoding="utf-8"?>
<!-- Generator: Adobe Illustrator 21.1.0, SVG Export Plug-In . SVG Version: 6.00 Build 0)  -->
<svg version="1.1" id="Layer_1" xmlns="http://www.w3.org/2000/svg" xmlns:xlink="http://www.w3.org/1999/xlink" x="0px" y="0px"
	 viewBox="0 0 300 300" style="enable-background:new 0 0 300 300;" xml:space="preserve">
<style type="text/css">
	.st0{fill:#CCE4EA;stroke:#070707;stroke-width:3;stroke-linecap:round;stroke-linejoin:round;stroke-miterlimit:10;}
</style>
<g>
	<g>
		<g>
			<g>
				<path class="st0" d="M149.9,229.6c-11.8,0-23.8-2.6-35.1-8.2c-19.1-9.4-33.3-25.7-40.1-45.8c-6.8-20.1-5.4-41.7,4-60.8
					c19.4-39.3,67.3-55.6,106.6-36.1c19.1,9.4,33.3,25.7,40.1,45.8c6.8,20.1,5.4,41.7-4,60.8l0,0
					C207.5,213.3,179.2,229.6,149.9,229.6z M150.1,82.7c-24.8,0-48.8,13.8-60.5,37.5c-8,16.1-9.2,34.4-3.4,51.4
					c5.8,17,17.8,30.8,34,38.8c9.6,4.7,19.7,7,29.7,7c24.8,0,48.8-13.8,60.5-37.5l0,0c8-16.1,9.2-34.4,3.4-51.4
					c-5.8-17-17.8-30.8-34-38.8C170.3,84.9,160.1,82.7,150.1,82.7z"/>
			</g>
		</g>
		<g>
			<g>
				<g>
					<path class="st0" d="M166.5,203.6l-12.2-0.8c0.6-8.5-6.4-21.4-18.7-27.4c-12.5-6.2-27.2-4-33.6,1.6l-8-9.3
						c9.5-8.2,29.2-12.1,47.1-3.3c8,4,14.7,10.1,19.4,17.8C164.7,189.2,166.9,197,166.5,203.6z"/>
				</g>
			</g>
		</g>
	</g>
	<path class="st0" d="M121.7,145.3c5-0.3,9.6-2.5,12.9-6.3c3.3-3.8,5-8.6,4.7-13.6l-12.4,0.7c0.1,1.7-0.5,3.4-1.6,4.6
		c-1.1,1.3-2.7,2-4.4,2.2c-3.5,0.2-6.6-2.5-6.8-6l-12.4,0.7C102.4,138,111.3,146,121.7,145.3z"/>
	<path class="st0" d="M165,162.3c3.8,3.3,8.6,5,13.6,4.7c5-0.3,9.6-2.5,12.9-6.3l-9.3-8.2c-1.1,1.3-2.7,2-4.4,2.2
		c-1.7,0.1-3.4-0.5-4.7-1.6c-2.7-2.4-2.9-6.4-0.5-9.1l-9.3-8.2C156.6,143.5,157.3,155.4,165,162.3z"/>
</g>
</svg>
