<?xml version="1.0" encoding="utf-8"?>
<!-- Generator: Adobe Illustrator 21.1.0, SVG Export Plug-In . SVG Version: 6.00 Build 0)  -->
<svg version="1.1" id="Layer_1" xmlns="http://www.w3.org/2000/svg" xmlns:xlink="http://www.w3.org/1999/xlink" x="0px" y="0px"
	 viewBox="0 0 300 300" style="enable-background:new 0 0 300 300;" xml:space="preserve">
<style type="text/css">
	.st0{fill:#F9CDCD;stroke:#070707;stroke-width:3;stroke-miterlimit:10;}
</style>
<g>
	<g>
		<path class="st0" d="M150.1,229.6c-27.5,0-54.3-14.3-69.1-39.8c-21.9-38-8.9-86.8,29.1-108.7c18.4-10.6,39.9-13.5,60.4-8
			c20.5,5.5,37.7,18.7,48.3,37.1l0,0c10.6,18.4,13.5,39.9,8,60.4c-5.5,20.5-18.7,37.7-37.1,48.3
			C177.3,226.2,163.6,229.6,150.1,229.6z M149.9,82.6c-11.7,0-23.2,3.1-33.6,9.1c-32.2,18.6-43.2,59.8-24.7,92
			c18.6,32.2,59.8,43.2,92,24.7c15.6-9,26.7-23.5,31.4-40.9c4.7-17.4,2.3-35.5-6.7-51.1l0,0c-9-15.6-23.5-26.7-40.9-31.4
			C161.6,83.4,155.7,82.6,149.9,82.6z"/>
	</g>
	<g>
		<g>
			<path class="st0" d="M150,201.1c-3.2,0-6.3-0.3-9.5-0.9c-11.9-2.2-22.6-8.6-30.1-18l-4.5-5.6l89.3-51.6l2.6,6.7
				c4.3,11.2,4.5,23.7,0.5,35.1c-4,11.5-12.1,21.2-22.7,27.3C167.7,198.8,158.9,201.1,150,201.1z M125,179.8
				c12.3,10.4,29.9,12.2,44.4,3.9c14.5-8.4,21.7-24.5,18.8-40.4L125,179.8z"/>
		</g>
	</g>
	<g>
		<path class="st0" d="M110.5,138.6c-4.4,2.5-7.5,6.6-8.8,11.4c-1.3,4.9-0.6,9.9,1.9,14.3l10.7-6.2c-0.9-1.5-1.1-3.2-0.6-4.9
			c0.4-1.7,1.5-3,3-3.9c3.1-1.8,7-0.7,8.8,2.4l10.7-6.2C131,136.5,119.4,133.4,110.5,138.6z"/>
		<path class="st0" d="M159.3,110.5c-4.4,2.5-7.5,6.6-8.8,11.4c-1.3,4.9-0.6,9.9,1.9,14.3l10.7-6.2c-0.9-1.5-1.1-3.2-0.6-4.9
			c0.4-1.7,1.5-3,3-3.9c3.1-1.8,7-0.7,8.8,2.4l10.7-6.2C179.8,108.4,168.3,105.3,159.3,110.5z"/>
	</g>
</g>
</svg>
