<?xml version="1.0" encoding="utf-8"?>
<!-- Generator: Adobe Illustrator 21.1.0, SVG Export Plug-In . SVG Version: 6.00 Build 0)  -->
<svg version="1.1" id="Layer_1" xmlns="http://www.w3.org/2000/svg" xmlns:xlink="http://www.w3.org/1999/xlink" x="0px" y="0px"
	 viewBox="0 0 300 300" style="enable-background:new 0 0 300 300;" xml:space="preserve">
<style type="text/css">
  #outline{fill:#FFFFFF;}
	.st0{fill:#F9CDCD;stroke:#070707;stroke-width:3;stroke-miterlimit:10; }
	.st1{fill:#FFFFFF;stroke:#070707;stroke-width:3;stroke-miterlimit:10;}
	.st2{fill:#070707;}
	.st3{fill:none;stroke:#070707;stroke-width:3;stroke-miterlimit:10;}
	.st4{fill:#070707;stroke:#070707;stroke-width:3;stroke-miterlimit:10;}
	.st5{fill:#CCE4EA;}
	.st6{fill:#CCE4EA;stroke:#070707;stroke-width:3;stroke-miterlimit:10;}
</style>
<g id="outline">
	<path d="M210.8,110.9c-1.1-5.6-4.1-10.2-8.7-13.3c-3.9-2.7-8.5-4-13.7-4c-0.3,0-0.5,0-0.8,0c-1-0.1-2,0-3,0.2
		c-5.2,0.2-9.3,1.5-12.8,3.9c-1.5,1-2.8,2.3-4,3.7c-0.8-0.7-1.6-1.4-2.4-2c-3.9-2.7-8.5-4-13.7-4c-0.3,0-0.5,0-0.8,0
		c-1-0.1-2,0-3,0.2c-5.1,0.2-9.3,1.5-12.7,3.9c-0.8,0.5-1.5,1.1-2.2,1.8c-2-1.1-4.9-1.8-8.7-0.5c-0.4,0-0.8,0.1-1.1,0.1
		c-2.8-0.7-5.7-0.4-8.4,0.9l-3.7,1.9l-7.8,5.9l-6.2,5.4l-2.8,3.7c-2.4,3.1-2.7,5.9-2.7,7.9l0,0.1c-0.1,0.7-0.1,1.3-0.2,1.7
		c-2.6,5.2-0.5,9.6,0.7,11.3l0.2,0.3c0.6,0.9,2.2,2.8,4.8,3.9c0,0.1-0.1,0.2-0.1,0.4c-0.4,1.9-1,4.3-1.6,8.1
		c-0.8,5.4-1.2,7.7-1.7,10.5c-0.4,2.2-0.8,4.7-1.6,9l0,0.1c-0.5,3.2-1,5.1-1.5,7c-1.1,4.2-1.8,7.5-1.5,14.6l0,0.1
		c0.2,3.6,1.9,6.7,4.8,8.6c1.7,1.1,3.6,1.7,5.7,1.7c1.4,0,2.8-0.3,4.3-0.8c0.6,0,1.1-0.1,1.6-0.1c1.7,0.6,5,1.5,8.6-0.1
		c0.5-0.2,0.9-0.5,1.3-0.7c2.7,2.5,6.1,3.8,9.9,3.8c3.2,0,6.2-0.9,9.3-2c0.5-0.1,1-0.3,1.4-0.4c12.6-2.9,30.6-4.8,44-1.5
		c6.4,1.5,12.8-1.2,16.3-6.3c4.1-1.9,7.2-5.5,8.3-10.2c1.3-5.6-0.5-11.2-4.4-14.8c0.7-1.1,1.4-2.3,2-3.6c1.6-3.5,2.7-7,3.2-10.6
		c0.5-3,0.7-4.5,0.8-5.9c0.2-1.4,0.3-2.6,0.7-5.3c0.4-2.6,0.7-3.9,0.9-5.2c0.3-1.4,0.6-2.9,1.1-5.9c0.5-3,0.7-4.5,0.8-5.9
		c0.2-1.4,0.3-2.6,0.8-5.3C211.2,119.2,211.6,115,210.8,110.9z"/>
</g>
<g>
	<path class="st0" d="M940.8,316.1c-6.9-40.3-37-32.6-46.2-18.9c-9.6,14.2-9.6,32-5.6,43.2l19.9,47c0,0,30.9-22.2,44.4-27.6
		c8.1-3.2,27.4-8.5,31.2-26.2C987.7,318.7,965.9,291.8,940.8,316.1z"/>
	<path class="st1" d="M905.4,320.5c-5.1,6.9-14.8,16.7-28,14.7c-1.1-0.2-1.8,1.2-1,2c5,5,12.7,15.7,9.5,32.7c-0.2,1.3,1.3,2,2.1,1
		c5.3-7.2,15.6-17.9,29.5-17.3c1.2,0,1.7-1.4,0.8-2.1c-5.3-4.3-13.5-13.7-10.7-29.9C907.7,320.1,906.1,319.4,905.4,320.5z"/>
	<path class="st1" d="M964.5,317.4c-3,3.8-7.7,8.6-14.5,7.8c-0.8-0.1-1.3,0.9-0.8,1.5c2.8,2.9,6.7,9.3,5,17.6
		c-0.2,0.9,1,1.5,1.6,0.7c4.5-6.3,7.5-9.2,14.8-9.1c0.8,0,1.3-1.5,0.8-1.9c-3-2.5-6.7-6.6-5.2-15.9
		C966.2,317.2,965,316.7,964.5,317.4z"/>
</g>
<g>
	<g>
		<g>
			<g>
				<g>
					<g>
						<g>
							<path class="st2" d="M100.5,134.2c-0.9-1.4,0.4-1.6,0.7-3.2c0.3-1.6,0.1-1.6,0.3-3.2c0.3-1.6-0.3-1.8,0.7-3.1
								c2-0.1,3.5-0.5,4.9-1c1.7-0.6,3.1-1.4,4.1-2.9c0.8-1.2,1.3-2.9,1.9-4.7c1.4-0.7,1.6,0.2,3.1,0.2c1.6,0,1.6-0.2,3.1-0.2
								c1.6,0,3.1-1.5,3,0.1c-0.5,13-1.8,12.9-3.8,25.7c-2,12.8-2.2,12.8-4.2,25.6c-2,12.8-0.1,13.3-3.8,25.7
								c-0.6,1.8-2-0.1-3.9-0.1c-1.9,0-1.9,0.2-3.8,0.2s-3.6,1.8-3.7-0.1c-0.4-9.9,1.4-9.8,2.9-19.7c1.6-9.8,1.8-9.8,3.3-19.6
								c1.6-9.8,2.6-9.7,2.9-19.7c0-1.3-1.2-0.1-2.5-0.1c-1.3,0-1.3-0.1-2.5,0.2C101.7,134.6,101.2,135.2,100.5,134.2z"/>
							<path class="st3" d="M100.5,134.2c-0.9-1.4,0.4-1.6,0.7-3.2c0.3-1.6,0.1-1.6,0.3-3.2c0.3-1.6-0.3-1.8,0.7-3.1
								c2-0.1,3.5-0.5,4.9-1c1.7-0.6,3.1-1.4,4.1-2.9c0.8-1.2,1.3-2.9,1.9-4.7c1.4-0.7,1.6,0.2,3.1,0.2c1.6,0,1.6-0.2,3.1-0.2
								c1.6,0,3.1-1.5,3,0.1c-0.5,13-1.8,12.9-3.8,25.7c-2,12.8-2.2,12.8-4.2,25.6c-2,12.8-0.1,13.3-3.8,25.7
								c-0.6,1.8-2-0.1-3.9-0.1c-1.9,0-1.9,0.2-3.8,0.2s-3.6,1.8-3.7-0.1c-0.4-9.9,1.4-9.8,2.9-19.7c1.6-9.8,1.8-9.8,3.3-19.6
								c1.6-9.8,2.6-9.7,2.9-19.7c0-1.3-1.2-0.1-2.5-0.1c-1.3,0-1.3-0.1-2.5,0.2C101.7,134.6,101.2,135.2,100.5,134.2z"/>
						</g>
						<g>
							<path class="st2" d="M152.5,162.3c-0.4,2.9-1.3,5.5-2.4,7.8c-1.2,2.6-2.8,4.9-5.1,6.3c-2.1,1.4-4.7,1.9-7.8,1.9
								c-0.4,0-0.4,0.2-0.9,0.2c-0.4,0-0.4-0.2-0.9-0.2c-0.4,0-0.4,0.2-0.9,0.2c-3,0-5.6-0.8-7.6-2.1c-2.3-1.4-4-3.4-4.7-6.2
								c-0.6-2.2-0.5-4.9,0-7.9c0.9-5.6,0.7-5.6,1.6-11.2c0.9-5.6,1.1-5.6,2-11.2s0.7-5.6,1.6-11.2c0.5-3.2,1.3-6,2.3-8.5
								c1.2-3.1,2.6-5.5,4.9-7.1c2.1-1.5,4.9-2.1,8.4-2.1c0.4,0,0.4-0.2,0.8-0.2c0.4,0,0.4,0.2,0.8,0.2c0.4,0,0.4-0.2,0.8-0.2
								c3.5,0,6.1,0.9,8.1,2.3c2.4,1.6,3.9,4,4.5,7c0.5,2.5,0.2,5.4-0.3,8.6c-0.9,5.6-0.7,5.6-1.6,11.2c-0.9,5.6-1.1,5.5-2,11.1
								C153.2,156.7,153.4,156.7,152.5,162.3z M146.1,128.1c0.2-1,0.4-1.8,0.4-2.5c-0.1-1-0.5-1.7-1-2.3c-0.5-0.6-1.2-1-2.2-1
								c-1,0-1.7,0.5-2.3,1.1c-0.5,0.5-1,1.2-1.3,2.2c-0.2,0.7-0.2,1.6-0.4,2.6c-0.9,5.6-1.1,5.5-2,11.1c-0.9,5.6-0.7,5.6-1.6,11.1
								c-0.9,5.6-1.1,5.5-2,11.1c-0.1,0.8,0,1.6,0.1,2.3c0.1,0.9,0.1,1.7,0.6,2.2c0.5,0.5,1.2,0.5,2.2,0.5c1,0,1.8-0.1,2.4-0.5
								c0.6-0.5,0.9-1.3,1.2-2.2c0.2-0.7,0.6-1.5,0.8-2.4c0.9-5.6,0.7-5.6,1.6-11.2c0.9-5.6,1.1-5.5,2-11.1
								C145.4,133.7,145.2,133.6,146.1,128.1z"/>
							<path class="st3" d="M152.5,162.3c-0.4,2.9-1.3,5.5-2.4,7.8c-1.2,2.6-2.8,4.9-5.1,6.3c-2.1,1.4-4.7,1.9-7.8,1.9
								c-0.4,0-0.4,0.2-0.9,0.2c-0.4,0-0.4-0.2-0.9-0.2c-0.4,0-0.4,0.2-0.9,0.2c-3,0-5.6-0.8-7.6-2.1c-2.3-1.4-4-3.4-4.7-6.2
								c-0.6-2.2-0.5-4.9,0-7.9c0.9-5.6,0.7-5.6,1.6-11.2c0.9-5.6,1.1-5.6,2-11.2s0.7-5.6,1.6-11.2c0.5-3.2,1.3-6,2.3-8.5
								c1.2-3.1,2.6-5.5,4.9-7.1c2.1-1.5,4.9-2.1,8.4-2.1c0.4,0,0.4-0.2,0.8-0.2c0.4,0,0.4,0.2,0.8,0.2c0.4,0,0.4-0.2,0.8-0.2
								c3.5,0,6.1,0.9,8.1,2.3c2.4,1.6,3.9,4,4.5,7c0.5,2.5,0.2,5.4-0.3,8.6c-0.9,5.6-0.7,5.6-1.6,11.2c-0.9,5.6-1.1,5.5-2,11.1
								C153.2,156.7,153.4,156.7,152.5,162.3z M146.1,128.1c0.2-1,0.4-1.8,0.4-2.5c-0.1-1-0.5-1.7-1-2.3c-0.5-0.6-1.2-1-2.2-1
								c-1,0-1.7,0.5-2.3,1.1c-0.5,0.5-1,1.2-1.3,2.2c-0.2,0.7-0.2,1.6-0.4,2.6c-0.9,5.6-1.1,5.5-2,11.1c-0.9,5.6-0.7,5.6-1.6,11.1
								c-0.9,5.6-1.1,5.5-2,11.1c-0.1,0.8,0,1.6,0.1,2.3c0.1,0.9,0.1,1.7,0.6,2.2c0.5,0.5,1.2,0.5,2.2,0.5c1,0,1.8-0.1,2.4-0.5
								c0.6-0.5,0.9-1.3,1.2-2.2c0.2-0.7,0.6-1.5,0.8-2.4c0.9-5.6,0.7-5.6,1.6-11.2c0.9-5.6,1.1-5.5,2-11.1
								C145.4,133.7,145.2,133.6,146.1,128.1z"/>
						</g>
						<g>
							<path class="st2" d="M189.2,160.5c-0.4,2.9-1.3,5.5-2.4,7.8c-1.2,2.6-2.8,4.9-5.1,6.3c-2.1,1.4-4.7,1.9-7.8,1.9
								c-0.4,0-0.4,0.2-0.9,0.2c-0.4,0-0.4-0.2-0.9-0.2c-0.4,0-0.4,0.2-0.9,0.2c-3,0-5.6-0.8-7.6-2.1c-2.3-1.4-4-3.4-4.7-6.2
								c-0.6-2.2-0.5-4.9,0-7.9c0.9-5.6,0.7-5.6,1.6-11.2c0.9-5.6,1.1-5.6,2-11.2s0.7-5.6,1.6-11.2c0.5-3.2,1.3-6,2.3-8.5
								c1.2-3.1,2.6-5.5,4.9-7.1c2.1-1.5,4.9-2.1,8.4-2.1c0.4,0,0.4-0.2,0.8-0.2c0.4,0,0.4,0.2,0.8,0.2c0.4,0,0.4-0.2,0.8-0.2
								c3.5,0,6.1,0.9,8.1,2.3c2.4,1.6,3.9,4,4.5,7c0.5,2.5,0.2,5.4-0.3,8.6c-0.9,5.6-0.7,5.6-1.6,11.2c-0.9,5.6-1.1,5.5-2,11.1
								C190,154.9,190.1,154.9,189.2,160.5z M182.8,126.3c0.2-1,0.4-1.8,0.4-2.5c-0.1-1-0.5-1.7-1-2.3c-0.5-0.6-1.2-1-2.2-1
								c-1,0-1.7,0.5-2.3,1.1c-0.5,0.5-1,1.2-1.3,2.2c-0.2,0.7-0.2,1.6-0.4,2.6c-0.9,5.6-1.1,5.5-2,11.1c-0.9,5.6-0.7,5.6-1.6,11.1
								c-0.9,5.6-1.1,5.5-2,11.1c-0.1,0.8,0,1.6,0.1,2.3c0.1,0.9,0.1,1.7,0.6,2.2c0.5,0.5,1.2,0.5,2.2,0.5c1,0,1.8-0.1,2.4-0.5
								c0.6-0.5,0.9-1.3,1.2-2.2c0.2-0.7,0.6-1.5,0.8-2.4c0.9-5.6,0.7-5.6,1.6-11.2c0.9-5.6,1.1-5.5,2-11.1
								C182.1,131.9,182,131.9,182.8,126.3z"/>
							<path class="st3" d="M189.2,160.5c-0.4,2.9-1.3,5.5-2.4,7.8c-1.2,2.6-2.8,4.9-5.1,6.3c-2.1,1.4-4.7,1.9-7.8,1.9
								c-0.4,0-0.4,0.2-0.9,0.2c-0.4,0-0.4-0.2-0.9-0.2c-0.4,0-0.4,0.2-0.9,0.2c-3,0-5.6-0.8-7.6-2.1c-2.3-1.4-4-3.4-4.7-6.2
								c-0.6-2.2-0.5-4.9,0-7.9c0.9-5.6,0.7-5.6,1.6-11.2c0.9-5.6,1.1-5.6,2-11.2s0.7-5.6,1.6-11.2c0.5-3.2,1.3-6,2.3-8.5
								c1.2-3.1,2.6-5.5,4.9-7.1c2.1-1.5,4.9-2.1,8.4-2.1c0.4,0,0.4-0.2,0.8-0.2c0.4,0,0.4,0.2,0.8,0.2c0.4,0,0.4-0.2,0.8-0.2
								c3.5,0,6.1,0.9,8.1,2.3c2.4,1.6,3.9,4,4.5,7c0.5,2.5,0.2,5.4-0.3,8.6c-0.9,5.6-0.7,5.6-1.6,11.2c-0.9,5.6-1.1,5.5-2,11.1
								C190,154.9,190.1,154.9,189.2,160.5z M182.8,126.3c0.2-1,0.4-1.8,0.4-2.5c-0.1-1-0.5-1.7-1-2.3c-0.5-0.6-1.2-1-2.2-1
								c-1,0-1.7,0.5-2.3,1.1c-0.5,0.5-1,1.2-1.3,2.2c-0.2,0.7-0.2,1.6-0.4,2.6c-0.9,5.6-1.1,5.5-2,11.1c-0.9,5.6-0.7,5.6-1.6,11.1
								c-0.9,5.6-1.1,5.5-2,11.1c-0.1,0.8,0,1.6,0.1,2.3c0.1,0.9,0.1,1.7,0.6,2.2c0.5,0.5,1.2,0.5,2.2,0.5c1,0,1.8-0.1,2.4-0.5
								c0.6-0.5,0.9-1.3,1.2-2.2c0.2-0.7,0.6-1.5,0.8-2.4c0.9-5.6,0.7-5.6,1.6-11.2c0.9-5.6,1.1-5.5,2-11.1
								C182.1,131.9,182,131.9,182.8,126.3z"/>
						</g>
					</g>
				</g>
			</g>
		</g>
		<path class="st4" d="M125.3,196.1c-1.6,0-2.9-0.6-4-2.1c-1.3-1.8-1.4-4.2-0.2-6.1c1.1-1.6,2-2.2,8.7-3.8c3.1-0.8,8.2-1.9,14.4-2.8
			c10.7-1.5,26.4-2.6,40.7,0.9c2.8,0.7,4.5,3.5,3.8,6.4c-0.7,2.8-3.5,4.5-6.4,3.8c-17.8-4.4-39.4-0.7-49.4,1.7
			c-0.3,0.1-0.6,0.3-0.9,0.3C129.1,195.4,127,196.1,125.3,196.1z"/>
	</g>
	<g>
		<g>
			<g>
				<g>
					<g>
						<g>
							<path class="st5" d="M106.7,128.8c-0.9-1.4,0.4-1.6,0.7-3.2c0.3-1.6,0.1-1.6,0.3-3.2c0.3-1.6-0.3-1.8,0.7-3.1
								c2-0.1,3.5-0.5,4.9-1c1.7-0.6,3.1-1.4,4.1-2.9c0.8-1.2,1.3-2.9,1.9-4.7c1.4-0.7,1.6,0.2,3.1,0.2c1.6,0,1.6-0.2,3.1-0.2
								c1.6,0,3.1-1.5,3,0.1c-0.5,13-1.8,12.9-3.8,25.7c-2,12.8-2.2,12.8-4.2,25.6c-2,12.8-0.1,13.3-3.8,25.7
								c-0.6,1.8-2-0.1-3.9-0.1c-1.9,0-1.9,0.2-3.8,0.2c-1.9,0-3.6,1.8-3.7-0.1c-0.4-9.9,1.4-9.8,2.9-19.7c1.6-9.8,1.8-9.8,3.3-19.6
								c1.6-9.8,2.6-9.7,2.9-19.7c0-1.3-1.2-0.1-2.5-0.1c-1.3,0-1.3-0.1-2.5,0.2C108,129.2,107.4,129.9,106.7,128.8z"/>
							<path class="st3" d="M106.7,128.8c-0.9-1.4,0.4-1.6,0.7-3.2c0.3-1.6,0.1-1.6,0.3-3.2c0.3-1.6-0.3-1.8,0.7-3.1
								c2-0.1,3.5-0.5,4.9-1c1.7-0.6,3.1-1.4,4.1-2.9c0.8-1.2,1.3-2.9,1.9-4.7c1.4-0.7,1.6,0.2,3.1,0.2c1.6,0,1.6-0.2,3.1-0.2
								c1.6,0,3.1-1.5,3,0.1c-0.5,13-1.8,12.9-3.8,25.7c-2,12.8-2.2,12.8-4.2,25.6c-2,12.8-0.1,13.3-3.8,25.7
								c-0.6,1.8-2-0.1-3.9-0.1c-1.9,0-1.9,0.2-3.8,0.2c-1.9,0-3.6,1.8-3.7-0.1c-0.4-9.9,1.4-9.8,2.9-19.7c1.6-9.8,1.8-9.8,3.3-19.6
								c1.6-9.8,2.6-9.7,2.9-19.7c0-1.3-1.2-0.1-2.5-0.1c-1.3,0-1.3-0.1-2.5,0.2C108,129.2,107.4,129.9,106.7,128.8z"/>
						</g>
						<g>
							<path class="st5" d="M158.8,156.9c-0.4,2.9-1.3,5.5-2.4,7.8c-1.2,2.6-2.8,4.9-5.1,6.3c-2.1,1.4-4.7,1.9-7.8,1.9
								c-0.4,0-0.4,0.2-0.9,0.2c-0.4,0-0.4-0.2-0.9-0.2s-0.4,0.2-0.9,0.2c-3,0-5.6-0.8-7.6-2.1c-2.3-1.4-4-3.4-4.7-6.2
								c-0.6-2.2-0.5-4.9,0-7.9c0.9-5.6,0.7-5.6,1.6-11.2c0.9-5.6,1.1-5.6,2-11.2s0.7-5.6,1.6-11.2c0.5-3.2,1.3-6,2.3-8.5
								c1.2-3.1,2.6-5.5,4.9-7.1c2.1-1.5,4.9-2.1,8.4-2.1c0.4,0,0.4-0.2,0.8-0.2c0.4,0,0.4,0.2,0.8,0.2c0.4,0,0.4-0.2,0.8-0.2
								c3.5,0,6.1,0.9,8.1,2.3c2.4,1.6,3.9,4,4.5,7c0.5,2.5,0.2,5.4-0.3,8.6c-0.9,5.6-0.7,5.6-1.6,11.2c-0.9,5.6-1.1,5.5-2,11.1
								C159.5,151.3,159.6,151.3,158.8,156.9z M152.4,122.7c0.2-1,0.4-1.8,0.4-2.5c-0.1-1-0.5-1.7-1-2.3c-0.5-0.6-1.2-1-2.2-1
								c-1,0-1.7,0.5-2.3,1.1c-0.5,0.5-1,1.2-1.3,2.2c-0.2,0.7-0.2,1.6-0.4,2.6c-0.9,5.6-1.1,5.5-2,11.1c-0.9,5.6-0.7,5.6-1.6,11.1
								c-0.9,5.6-1.1,5.5-2,11.1c-0.1,0.8,0,1.6,0.1,2.3c0.1,0.9,0.1,1.7,0.6,2.2c0.5,0.5,1.2,0.5,2.2,0.5c1,0,1.8-0.1,2.4-0.5
								c0.6-0.5,0.9-1.3,1.2-2.2c0.2-0.7,0.6-1.5,0.8-2.4c0.9-5.6,0.7-5.6,1.6-11.2c0.9-5.6,1.1-5.5,2-11.1
								C151.6,128.3,151.5,128.3,152.4,122.7z"/>
							<path class="st3" d="M158.8,156.9c-0.4,2.9-1.3,5.5-2.4,7.8c-1.2,2.6-2.8,4.9-5.1,6.3c-2.1,1.4-4.7,1.9-7.8,1.9
								c-0.4,0-0.4,0.2-0.9,0.2c-0.4,0-0.4-0.2-0.9-0.2s-0.4,0.2-0.9,0.2c-3,0-5.6-0.8-7.6-2.1c-2.3-1.4-4-3.4-4.7-6.2
								c-0.6-2.2-0.5-4.9,0-7.9c0.9-5.6,0.7-5.6,1.6-11.2c0.9-5.6,1.1-5.6,2-11.2s0.7-5.6,1.6-11.2c0.5-3.2,1.3-6,2.3-8.5
								c1.2-3.1,2.6-5.5,4.9-7.1c2.1-1.5,4.9-2.1,8.4-2.1c0.4,0,0.4-0.2,0.8-0.2c0.4,0,0.4,0.2,0.8,0.2c0.4,0,0.4-0.2,0.8-0.2
								c3.5,0,6.1,0.9,8.1,2.3c2.4,1.6,3.9,4,4.5,7c0.5,2.5,0.2,5.4-0.3,8.6c-0.9,5.6-0.7,5.6-1.6,11.2c-0.9,5.6-1.1,5.5-2,11.1
								C159.5,151.3,159.6,151.3,158.8,156.9z M152.4,122.7c0.2-1,0.4-1.8,0.4-2.5c-0.1-1-0.5-1.7-1-2.3c-0.5-0.6-1.2-1-2.2-1
								c-1,0-1.7,0.5-2.3,1.1c-0.5,0.5-1,1.2-1.3,2.2c-0.2,0.7-0.2,1.6-0.4,2.6c-0.9,5.6-1.1,5.5-2,11.1c-0.9,5.6-0.7,5.6-1.6,11.1
								c-0.9,5.6-1.1,5.5-2,11.1c-0.1,0.8,0,1.6,0.1,2.3c0.1,0.9,0.1,1.7,0.6,2.2c0.5,0.5,1.2,0.5,2.2,0.5c1,0,1.8-0.1,2.4-0.5
								c0.6-0.5,0.9-1.3,1.2-2.2c0.2-0.7,0.6-1.5,0.8-2.4c0.9-5.6,0.7-5.6,1.6-11.2c0.9-5.6,1.1-5.5,2-11.1
								C151.6,128.3,151.5,128.3,152.4,122.7z"/>
						</g>
						<g>
							<path class="st5" d="M195.5,155.1c-0.4,2.9-1.3,5.5-2.4,7.8c-1.2,2.6-2.8,4.9-5.1,6.3c-2.1,1.4-4.7,1.9-7.8,1.9
								c-0.4,0-0.4,0.2-0.9,0.2c-0.4,0-0.4-0.2-0.9-0.2c-0.4,0-0.4,0.2-0.9,0.2c-3,0-5.6-0.8-7.6-2.1c-2.3-1.4-4-3.4-4.7-6.2
								c-0.6-2.2-0.5-4.9,0-7.9c0.9-5.6,0.7-5.6,1.6-11.2c0.9-5.6,1.1-5.6,2-11.2c0.9-5.6,0.7-5.6,1.6-11.2c0.5-3.2,1.3-6,2.3-8.5
								c1.2-3.1,2.6-5.5,4.9-7.1c2.1-1.5,4.9-2.1,8.4-2.1c0.4,0,0.4-0.2,0.8-0.2c0.4,0,0.4,0.2,0.8,0.2c0.4,0,0.4-0.2,0.8-0.2
								c3.5,0,6.1,0.9,8.1,2.3c2.4,1.6,3.9,4,4.5,7c0.5,2.5,0.2,5.4-0.3,8.6c-0.9,5.6-0.7,5.6-1.6,11.2c-0.9,5.6-1.1,5.5-2,11.1
								C196.2,149.5,196.4,149.5,195.5,155.1z M189.1,120.9c0.2-1,0.4-1.8,0.4-2.5c-0.1-1-0.5-1.7-1-2.3c-0.5-0.6-1.2-1-2.2-1
								c-1,0-1.7,0.5-2.3,1.1c-0.5,0.5-1,1.2-1.3,2.2c-0.2,0.7-0.2,1.6-0.4,2.6c-0.9,5.6-1.1,5.5-2,11.1c-0.9,5.6-0.7,5.6-1.6,11.1
								c-0.9,5.6-1.1,5.5-2,11.1c-0.1,0.8,0,1.6,0.1,2.3c0.1,0.9,0.1,1.7,0.6,2.2c0.5,0.5,1.2,0.5,2.2,0.5c1,0,1.8-0.1,2.4-0.5
								c0.6-0.5,0.9-1.3,1.2-2.2c0.2-0.7,0.6-1.5,0.8-2.4c0.9-5.6,0.7-5.6,1.6-11.2c0.9-5.6,1.1-5.5,2-11.1
								C188.4,126.5,188.2,126.5,189.1,120.9z"/>
							<path class="st3" d="M195.5,155.1c-0.4,2.9-1.3,5.5-2.4,7.8c-1.2,2.6-2.8,4.9-5.1,6.3c-2.1,1.4-4.7,1.9-7.8,1.9
								c-0.4,0-0.4,0.2-0.9,0.2c-0.4,0-0.4-0.2-0.9-0.2c-0.4,0-0.4,0.2-0.9,0.2c-3,0-5.6-0.8-7.6-2.1c-2.3-1.4-4-3.4-4.7-6.2
								c-0.6-2.2-0.5-4.9,0-7.9c0.9-5.6,0.7-5.6,1.6-11.2c0.9-5.6,1.1-5.6,2-11.2c0.9-5.6,0.7-5.6,1.6-11.2c0.5-3.2,1.3-6,2.3-8.5
								c1.2-3.1,2.6-5.5,4.9-7.1c2.1-1.5,4.9-2.1,8.4-2.1c0.4,0,0.4-0.2,0.8-0.2c0.4,0,0.4,0.2,0.8,0.2c0.4,0,0.4-0.2,0.8-0.2
								c3.5,0,6.1,0.9,8.1,2.3c2.4,1.6,3.9,4,4.5,7c0.5,2.5,0.2,5.4-0.3,8.6c-0.9,5.6-0.7,5.6-1.6,11.2c-0.9,5.6-1.1,5.5-2,11.1
								C196.2,149.5,196.4,149.5,195.5,155.1z M189.1,120.9c0.2-1,0.4-1.8,0.4-2.5c-0.1-1-0.5-1.7-1-2.3c-0.5-0.6-1.2-1-2.2-1
								c-1,0-1.7,0.5-2.3,1.1c-0.5,0.5-1,1.2-1.3,2.2c-0.2,0.7-0.2,1.6-0.4,2.6c-0.9,5.6-1.1,5.5-2,11.1c-0.9,5.6-0.7,5.6-1.6,11.1
								c-0.9,5.6-1.1,5.5-2,11.1c-0.1,0.8,0,1.6,0.1,2.3c0.1,0.9,0.1,1.7,0.6,2.2c0.5,0.5,1.2,0.5,2.2,0.5c1,0,1.8-0.1,2.4-0.5
								c0.6-0.5,0.9-1.3,1.2-2.2c0.2-0.7,0.6-1.5,0.8-2.4c0.9-5.6,0.7-5.6,1.6-11.2c0.9-5.6,1.1-5.5,2-11.1
								C188.4,126.5,188.2,126.5,189.1,120.9z"/>
						</g>
					</g>
				</g>
			</g>
		</g>
		<path class="st6" d="M131.5,190.7c-1.7,0-2.9-0.6-4-2.1c-1.3-1.8-1.4-4.2-0.2-6.1c1.1-1.6,2-2.2,8.7-3.8c3.1-0.8,8.2-1.9,14.4-2.8
			c10.7-1.5,26.4-2.6,40.7,0.9c2.8,0.7,4.5,3.5,3.8,6.4s-3.5,4.5-6.4,3.8c-17.8-4.4-39.4-0.7-49.4,1.7c-0.3,0.1-0.6,0.3-0.9,0.3
			C135.3,190,133.2,190.6,131.5,190.7z"/>
	</g>
</g>
</svg>
