<?xml version="1.0" encoding="utf-8"?>
<!-- Generator: Adobe Illustrator 23.1.1, SVG Export Plug-In . SVG Version: 6.00 Build 0)  -->
<svg version="1.1" id="Layer_1" xmlns="http://www.w3.org/2000/svg" xmlns:xlink="http://www.w3.org/1999/xlink" x="0px" y="0px"
	 viewBox="0 0 300 300" style="enable-background:new 0 0 300 300;" xml:space="preserve">
<style type="text/css">
	.st0{fill:none;stroke:#FFFFFF;stroke-width:22;stroke-linecap:round;stroke-miterlimit:10; }
	.st1{fill:#F4F062;stroke:#000000;stroke-width:3;stroke-linecap:round;stroke-miterlimit:10;}
</style>

<g id="outline">
	<path class="st0" d="M137.3,84.1l38,1.5c1.1,0,1.9,1.2,1.5,2.2L159,136.1c-0.4,1,0.4,2.2,1.5,2.2l20.5,0.8c1.3,0.1,2.1,1.6,1.3,2.6
		l-55.2,73.5c-1.1,1.5-3.4,0.3-2.9-1.5l16.5-54.3c0.3-1-0.4-2.1-1.5-2.1l-20.2-0.8c-1.1,0-1.8-1-1.5-2.1l18.2-69.2
		C135.9,84.6,136.5,84.1,137.3,84.1z"/>
</g>
<g id="top">
	<path class="st1" d="M137.3,84.1l38,1.5c1.1,0,1.9,1.2,1.5,2.2L159,136.1c-0.4,1,0.4,2.2,1.5,2.2l20.5,0.8c1.3,0.1,2.1,1.6,1.3,2.6
		l-55.2,73.5c-1.1,1.5-3.4,0.3-2.9-1.5l16.5-54.3c0.3-1-0.4-2.1-1.5-2.1l-20.2-0.8c-1.1,0-1.8-1-1.5-2.1l18.2-69.2
		C135.9,84.6,136.5,84.1,137.3,84.1z"/>
</g>
</svg>
