<?xml version="1.0" encoding="utf-8"?>
<!-- Generator: Adobe Illustrator 24.0.0, SVG Export Plug-In . SVG Version: 6.00 Build 0)  -->
<svg version="1.1" xmlns="http://www.w3.org/2000/svg" xmlns:xlink="http://www.w3.org/1999/xlink" x="0px" y="0px"
	 viewBox="0 0 300 300" style="enable-background:new 0 0 300 300;" xml:space="preserve">
<style type="text/css">
	.st0{fill:none;stroke:#FFFFFF;stroke-width:20;stroke-miterlimit:10;}
	.st1{fill:#FFFFFF;stroke:#231F20;stroke-width:3;stroke-miterlimit:10;}
	.st2{fill:#231F20;}
</style>
<g id="outline">
	<path class="st0" d="M105.8,131c-6.1,11-8.9,16.2-6.9,28.6c0.9,5.6,2.5,11.1,6.9,14.7c5.6,4.7,12.8,4,19.4,1s9-8.7,12.2-15.2
		s6.3-14.1,8.3-21.2c1.3-4.8,2.7-9.4,2.7-14.2c0-0.1,0-0.1,0-0.2c0-8.3-7.7-14.5-15.9-12.9C124.5,113.3,113.1,117.9,105.8,131z"/>
	<path class="st0" d="M151,134.4c-7.9,12-12,19-10.8,33.4c0.5,6.5,2.5,11.5,7.2,16.1c6,5.8,13.6,5.7,21.5,2.8
		c7.8-2.9,14.6-8.5,19.7-15.1c5.6-7.2,9.5-14,11.7-22.1c1.6-5.6,2.1-13,1.2-18.9c-1.1-7.2-9.8-16.1-18.2-15.9
		C173.7,114.9,160.4,120,151,134.4z"/>
</g>
<g id="top">
	<g>
		<path class="st1" d="M105.8,131c-6.1,11-8.9,16.2-6.9,28.6c0.9,5.6,2.5,11.1,6.9,14.7c5.6,4.7,12.8,4,19.4,1s9-8.7,12.2-15.2
			s6.3-14.1,8.3-21.2c1.3-4.8,2.7-9.4,2.7-14.2c0-0.1,0-0.1,0-0.2c0-8.3-7.7-14.5-15.9-12.9C124.5,113.3,113.1,117.9,105.8,131z"/>
		<path class="st1" d="M151,134.4c-7.9,12-12,19-10.8,33.4c0.5,6.5,2.5,11.5,7.2,16.1c6,5.8,13.6,5.7,21.5,2.8
			c7.8-2.9,14.6-8.5,19.7-15.1c5.6-7.2,9.5-14,11.7-22.1c1.6-5.6,2.1-13,1.2-18.9c-1.1-7.2-9.8-16.1-18.2-15.9
			C173.7,114.9,160.4,120,151,134.4z"/>
		<path class="st2" d="M141.5,127.4c-3.1-0.9-6.9,0.4-9,2.5c-5,4.9-7.6,9.3-9,16.1c-0.3,1.4-0.2,4.7,0.4,6.2
			c0.8,2.2,2.9,3.6,5.2,3.8c3.9,0.3,7.9-1.8,10.2-5c2.5-3.4,3.9-6.8,5-10.6c0.7-2.3,1.1-4.7,1-7.1
			C144.9,128.6,141.5,127.4,141.5,127.4z"/>
		<path class="st2" d="M197.6,133.3c-2.9-1.3-7.9,1.1-10.2,3.4c-5.6,5.4-8.5,10.7-10.1,18.3c-0.3,1.5-0.2,4.9,0.4,6.6
			c0.9,2.4,3.2,4.1,5.8,4.2c4.4,0.3,8.5-2.2,11.3-5.6c2.8-3.4,4.6-6.3,5.8-10.5c0.7-2.6,1.4-5.5,1.3-8.2
			C201.4,136.1,199.5,134.1,197.6,133.3z"/>
	</g>
</g>
</svg>
