<?xml version="1.0" encoding="utf-8"?>
<!-- Generator: Adobe Illustrator 24.0.0, SVG Export Plug-In . SVG Version: 6.00 Build 0)  -->
<svg version="1.1" xmlns="http://www.w3.org/2000/svg" xmlns:xlink="http://www.w3.org/1999/xlink" x="0px" y="0px"
	 viewBox="0 0 300 300" style="enable-background:new 0 0 300 300;" xml:space="preserve">
<style type="text/css">
	.st0{fill:#FFFFFF; }
	.st1{stroke:#000000;stroke-width:3;stroke-linecap:round;stroke-linejoin:round;stroke-miterlimit:10; }
	.st2{fill:none;stroke:#231F20;stroke-width:3;stroke-miterlimit:10;}
	.st3{fill:#F9CDCD;stroke:#070707;stroke-width:3;stroke-miterlimit:10;}
</style>
<g id="outline_1_">
	<g id="outline">
		<g>
			<path class="st0" d="M213.3,140.7c6.3-1.9,10-8.3,8.4-14.6l-1.6-6.1l-0.1-0.2c-1.8-6.2-8.2-9.9-14.5-8.4c-1,0.2-10.6,2.4-14,3.3
				s-10.8,3.1-16.2,4.7c0.5-1.1,5.4-10.5,7.3-13.9c1-1.8,4.8-8,6.1-10.2l0.3-0.4c1.5-2.8,1.8-6,1-9c-0.9-3.1-3-5.8-5.8-7.3l-5.4-3
				l-0.1-0.1c-5.9-3.1-13.2-1-16.3,4.8L148.7,105l-0.1,0.1c-0.3,0.5-0.5,1-0.6,1.4c-0.5-1.1-1.1-2.2-1.8-3.5
				c-1.8-3.6-4.8-5.3-6.5-6.2c-0.2-0.1-0.4-0.2-0.6-0.3c-0.2-0.1-0.4-0.3-0.6-0.4c-1.6-1.1-4.3-3-8.1-3.2c-4-0.2-7,1.5-8.8,2.5
				c-0.2,0.1-0.4,0.2-0.6,0.3c-2,1-3,1.4-4.2,1.8c-1.6,0.6-3.5,1.3-6.7,3s-4.7,2.8-6.1,3.8c-1.1,0.8-2,1.4-4,2.5s-3,1.4-4.3,1.9
				c-1.6,0.6-3.4,1.2-6.6,2.9c-3.6,1.8-5.3,4.8-6.2,6.4c-0.1,0.2-0.2,0.4-0.3,0.6c-0.1,0.2-0.3,0.4-0.4,0.6c-1.1,1.6-3,4.3-3.2,8.1
				c-0.2,4,1.5,7,2.5,8.8c0.1,0.2,0.2,0.4,0.4,0.6c3.3,6.1,4.7,9.2,6.1,12.4c1.5,3.2,3,6.5,6.3,12.8c3.3,6.2,5.2,9.4,7,12.4
				s3.5,5.9,6.8,12.1c3.3,6.1,4.7,9.2,6.1,12.4c1.5,3.2,3,6.5,6.2,12.7c1.8,3.6,4.8,5.3,6.4,6.2c0.2,0.1,0.4,0.2,0.6,0.3
				s0.4,0.3,0.6,0.4c1.6,1.1,4.3,3,8.1,3.2c0.3,0,0.5,0,0.8,0c3.6,0,6.3-1.6,8-2.5c0.2-0.1,0.4-0.2,0.5-0.3c2-1.1,3-1.4,4.3-1.9
				c1.6-0.6,3.5-1.3,6.7-3s4.7-2.8,6.1-3.8c1.1-0.8,2-1.4,4-2.5s3-1.4,4.3-1.9c1.6-0.6,3.5-1.3,6.7-3l0,0c3.4-1.8,5.1-4.7,6.1-6.3
				c0.1-0.2,0.2-0.4,0.4-0.6c0.1-0.2,0.3-0.4,0.4-0.6c1.1-1.6,3-4.3,3.2-8.1c0.2-4-1.5-7-2.5-8.8c-0.1-0.2-0.2-0.4-0.4-0.6
				c-0.6-1-1.1-2-1.5-2.9H202c6.7,0,12.1-5.4,12.1-12.1v-6.1c0-6.7-5.4-12.1-12.1-12.1h-3.3l14.5-3.9L213.3,140.7z"/>
		</g>
	</g>
</g>
<g id="top_1_">
	<g id="top">
		<g>
			<g>
				<path class="st1" d="M171.7,199.2L140,215.8c-4.6,2.4-10.3,0.6-12.7-4l-39.2-74.6c-2.4-4.6-0.6-10.3,4-12.7l31.7-16.7
					c4.6-2.4,10.3-0.6,12.7,4l39.2,74.6C178.1,191,176.3,196.8,171.7,199.2z"/>
				<g>
					<path class="st0" d="M173.3,195c-5.3,2.8-5.7,2.1-10.9,4.8c-5.3,2.8-4.9,3.5-10.2,6.3s-5.7,2.1-10.9,4.8
						c-1.5,0.8-3,1.9-4.6,1.8c-1.7-0.1-3-1.3-4.4-2.2s-3.1-1.5-3.9-3.1c-6.5-12.4-5.8-12.8-12.4-25.2c-6.5-12.4-7.2-12.1-13.8-24.5
						c-6.5-12.4-5.8-12.8-12.4-25.2c-0.8-1.5-1.9-3-1.8-4.6c0.1-1.7,1.3-3,2.2-4.4c0.9-1.4,1.5-3.1,3.1-3.9
						c5.3-2.8,5.7-2.1,10.9-4.8c5.3-2.8,4.9-3.5,10.2-6.3c5.3-2.8,5.7-2.1,10.9-4.8c1.5-0.8,3-1.9,4.6-1.8c1.7,0.1,3,1.3,4.4,2.2
						c1.4,0.9,3.1,1.5,3.9,3.1c6.5,12.4,5.8,12.8,12.4,25.2c6.5,12.4,7.2,12.1,13.8,24.5c6.5,12.4,5.8,12.8,12.4,25.2
						c0.8,1.5,1.9,3,1.8,4.6c-0.1,1.7-1.3,3-2.2,4.4C175.5,192.5,174.8,194.2,173.3,195z"/>
					<path class="st2" d="M173.3,195c-5.3,2.8-5.7,2.1-10.9,4.8c-5.3,2.8-4.9,3.5-10.2,6.3s-5.7,2.1-10.9,4.8
						c-1.5,0.8-3,1.9-4.6,1.8c-1.7-0.1-3-1.3-4.4-2.2s-3.1-1.5-3.9-3.1c-6.5-12.4-5.8-12.8-12.4-25.2c-6.5-12.4-7.2-12.1-13.8-24.5
						c-6.5-12.4-5.8-12.8-12.4-25.2c-0.8-1.5-1.9-3-1.8-4.6c0.1-1.7,1.3-3,2.2-4.4c0.9-1.4,1.5-3.1,3.1-3.9
						c5.3-2.8,5.7-2.1,10.9-4.8c5.3-2.8,4.9-3.5,10.2-6.3c5.3-2.8,5.7-2.1,10.9-4.8c1.5-0.8,3-1.9,4.6-1.8c1.7,0.1,3,1.3,4.4,2.2
						c1.4,0.9,3.1,1.5,3.9,3.1c6.5,12.4,5.8,12.8,12.4,25.2c6.5,12.4,7.2,12.1,13.8,24.5c6.5,12.4,5.8,12.8,12.4,25.2
						c0.8,1.5,1.9,3,1.8,4.6c-0.1,1.7-1.3,3-2.2,4.4C175.5,192.5,174.8,194.2,173.3,195z"/>
				</g>
				<path class="st1" d="M121.6,112.4l-16.8,8.8c-1.1,0.6-2.4,0.2-3-0.9l-1.9-3.6l20.7-10.9l1.9,3.6
					C123.1,110.5,122.7,111.8,121.6,112.4z"/>
			</g>
			<g>
				<path class="st3" d="M178.2,162.9v-6.1c0-1.7,1.4-3.1,3.1-3.1H202c1.7,0,3.1,1.4,3.1,3.1v6.1c0,1.7-1.4,3.1-3.1,3.1h-20.7
					C179.6,166,178.2,164.6,178.2,162.9z"/>
				<path class="st3" d="M170.8,139.7l-1.6-5.9c-0.4-1.6,0.5-3.3,2.2-3.8c0,0,16.9-5.1,22.5-6.6c3.4-0.9,13.7-3.2,13.7-3.2
					c1.6-0.4,3.3,0.5,3.8,2.2l1.6,5.9c0.4,1.6-0.5,3.3-2.2,3.8l-36.2,9.8C172.9,142.3,171.2,141.3,170.8,139.7z"/>
				<path class="st3" d="M163.2,116.6l-5.4-3c-1.5-0.8-2-2.7-1.2-4.2l13.7-24.8c0.8-1.5,2.7-2,4.2-1.2l5.4,3c1.5,0.8,2,2.7,1.2,4.2
					c0,0-5,8.2-6.3,10.5c-2.1,3.8-7.5,14.3-7.5,14.3C166.6,116.9,164.7,117.4,163.2,116.6z"/>
			</g>
		</g>
	</g>
</g>
</svg>
