<?xml version="1.0" encoding="utf-8"?>
<!-- Generator: Adobe Illustrator 24.0.0, SVG Export Plug-In . SVG Version: 6.00 Build 0)  -->
<svg version="1.1" xmlns="http://www.w3.org/2000/svg" xmlns:xlink="http://www.w3.org/1999/xlink" x="0px" y="0px"
	 viewBox="0 0 300 300" style="enable-background:new 0 0 300 300;" xml:space="preserve">
<style type="text/css">
	.st0{fill:none;stroke:#FFFFFF;stroke-width:20;stroke-miterlimit:10; }
	.st1{fill:#E7D8EA;stroke:#070707;stroke-width:2.8369;stroke-miterlimit:10;}
</style>
<g id="outline">
	<path class="st0" d="M141,132.2c-2.5,9.3-8.7,23.5-23.4,26.7c-1.3,0.3-1.4,2-0.3,2.5c7.2,3.2,19.6,11.3,23.1,30.3
		c0.3,1.4,2.2,1.5,2.6,0.2c2.6-9.6,9.1-25,23.8-30c1.2-0.4,1.2-2.1,0-2.5c-7.3-2.3-19.7-8.9-23.3-27
		C143.3,130.9,141.4,130.8,141,132.2z"/>
	<path class="st0" d="M169,107.9c-1.6,5.2-4.5,12.1-12,14.1c-0.9,0.2-1,1.5-0.2,1.9c4.1,1.9,10.8,7,12.3,16.3c0.2,1.1,1.7,1.1,2,0.1
		c2.2-8.4,4.1-12.7,11.8-15.5c0.8-0.3,0.8-2.1,0-2.3c-4.1-1.4-9.6-4.2-11.9-14.5C170.7,107,169.2,107,169,107.9z"/>
</g>
<g id="top">
	<path class="st1" d="M141,132.2c-2.5,9.3-8.7,23.5-23.4,26.7c-1.3,0.3-1.4,2-0.3,2.5c7.2,3.2,19.6,11.3,23.1,30.3
		c0.3,1.4,2.2,1.5,2.6,0.2c2.6-9.6,9.1-25,23.8-30c1.2-0.4,1.2-2.1,0-2.5c-7.3-2.3-19.7-8.9-23.3-27
		C143.3,130.9,141.4,130.8,141,132.2z"/>
	<path class="st1" d="M169,107.9c-1.6,5.2-4.5,12.1-12,14.1c-0.9,0.2-1,1.5-0.2,1.9c4.1,1.9,10.8,7,12.3,16.3c0.2,1.1,1.7,1.1,2,0.1
		c2.2-8.4,4.1-12.7,11.8-15.5c0.8-0.3,0.8-2.1,0-2.3c-4.1-1.4-9.6-4.2-11.9-14.5C170.7,107,169.2,107,169,107.9z"/>
</g>
</svg>
