<svg id="Layer_1" data-name="Layer 1" xmlns="http://www.w3.org/2000/svg" viewBox="0 0 48 48"><defs><style>.cls-1{fill:#fff;}</style></defs><title>logo</title><path class="cls-1" d="M47.18,30.28a23.89,23.89,0,0,0-35-26.88A23.88,23.88,0,0,0,3.4,36a24.1,24.1,0,0,0,3.82,5,23.91,23.91,0,0,0,40-10.75Zm-13,11.37A20.27,20.27,0,0,1,4.52,18.85,20.29,20.29,0,0,1,38.41,9.73,20.46,20.46,0,0,1,41.65,14a20.28,20.28,0,0,1-7.42,27.69ZM12.66,29.81,14.47,33l8.63-5,2.08,3.58a7.73,7.73,0,0,0,4.72,3.63,7.81,7.81,0,0,0,2,.27,7.78,7.78,0,0,0,6.73-11.68L34.78,17ZM33.45,22l2.07,3.58a4.16,4.16,0,1,1-7.2,4.16l-2.08-3.58ZM29,12.5a2.78,2.78,0,1,1-3.8-1A2.78,2.78,0,0,1,29,12.5Zm-8.94,8.25-3.14,1.82a1.88,1.88,0,0,0-2.57-.69A1.84,1.84,0,0,0,13.47,23a1.89,1.89,0,0,0,.19,1.43l-3.14,1.81a5.51,5.51,0,0,1,9.54-5.51Z"/></svg>