<?xml version="1.0" encoding="utf-8"?>
<!-- Generator: Adobe Illustrator 21.1.0, SVG Export Plug-In . SVG Version: 6.00 Build 0)  -->
<svg version="1.1" id="LOGO" xmlns="http://www.w3.org/2000/svg" xmlns:xlink="http://www.w3.org/1999/xlink" x="0px" y="0px"
	 viewBox="0 0 1540 580" style="enable-background:new 0 0 1540 580;" xml:space="preserve">
<path d="M433.8,328.8c10.4-38.7,5-79.1-15-113.8c-20-34.7-52.3-59.5-91-69.8c-38.7-10.4-79.1-5-113.8,15s-59.5,52.4-69.8,91
	s-5,79.1,15,113.8c6.7,11.6,14.7,22.1,24,31.3c18.4,18.4,41.3,31.7,67.1,38.6c38.7,10.4,79.1,5,113.8-15
	C398.6,399.8,423.4,367.5,433.8,328.8z M352.6,400.1c-29.4,17-63.7,21.5-96.5,12.7c-32.8-8.8-60.2-29.8-77.2-59.3
	c-17-29.4-21.5-63.7-12.7-96.5c8.8-32.8,29.8-60.2,59.3-77.2c29.4-17,63.7-21.5,96.5-12.7c21.9,5.9,41.3,17.1,56.9,32.7
	c7.8,7.8,14.6,16.7,20.3,26.5c17,29.4,21.5,63.7,12.7,96.5C403,355.7,382,383.1,352.6,400.1z M217.2,325.8l11.4,19.7l54.2-31.3
	l13,22.5c6.5,11.3,17.1,19.4,29.7,22.8c4.2,1.1,8.5,1.7,12.7,1.7c8.5,0,16.8-2.2,24.3-6.6c11.3-6.5,19.4-17.1,22.8-29.7
	c3.4-12.6,1.6-25.8-4.9-37.1L356,245.7L217.2,325.8z M347.7,276.8l13,22.5c7.2,12.5,2.9,28.5-9.6,35.7c-12.5,7.2-28.5,2.9-35.7-9.6
	l-13-22.5L347.7,276.8z M319.8,217.2c4.8,8.3,2,19-6.4,23.8c-8.3,4.8-19,2-23.8-6.4c-4.8-8.3-2-19,6.4-23.8
	C304.3,206,314.9,208.9,319.8,217.2z M263.7,269L244,280.4c-3.3-5.6-10.5-7.6-16.1-4.3c-2.7,1.6-4.7,4.1-5.5,7.2
	c-0.8,3-0.4,6.2,1.2,9l-19.7,11.4c-4.6-8-5.8-17.3-3.5-26.2c2.4-8.9,8.1-16.4,16.1-21C233,246.8,254.1,252.5,263.7,269z"/>
<path d="M643.3,232.1c13.6,15.6,20.6,35.6,20.6,59.7c0,23.8-7,43.8-21,59.7c-13.6,15.9-31.7,23.8-54,23.8c-25.1,0-43.8-10.5-53-25.4
	V440h-27.6V211.7h24.8l1.3,23.5c12.4-18.1,30.8-27,54.9-27C611.5,208.2,629.6,216.2,643.3,232.1z M550,249.5
	c-9.8,10.5-14.6,23.8-14.6,40.6v1.6c0,17.1,4.8,31.1,14.6,41.6c9.8,10.5,21.6,15.9,34.9,15.9c14.9,0,27-5.4,36.5-15.9
	c9.5-10.8,14.3-24.8,14.3-41.6c0-34.3-20-57.8-50.5-57.8C571.6,234,559.8,239,550,249.5z M958.3,237.5c-13,0-27.9,3.8-36.5,11.7
	c-9.5,8.6-14.3,21.3-14.6,37.8v84.8h-27.3v-160h24.4l1.9,27.9c6-16.5,26.7-29.5,52.1-29.5V237.5z M1012.9,140v146.7l60-74.9h33.3
	l-51.7,66.3l60,93.6H1083l-47.6-72.7l-22.5,27.3v45.4h-27.3V140H1012.9z M1218.9,222.2c9.8,9.2,14.9,21.6,15.2,36.5h-27.9
	c-0.3-16.8-8.6-25.1-25.4-25.1c-16.2,0-24.4,8.9-24.4,21.6c0,12.4,6.3,17.8,30.2,23.2c38.1,8.9,52.4,22.2,52.4,47.9
	c0,30.5-23.2,48.9-56.2,48.9c-36.5,0-57.5-20.3-58.4-52.1h27.9c0.3,17.8,10.8,26.7,31.1,26.7c17.8,0,27.6-8.9,27.6-21.6
	c0-13.6-7.6-19.7-33.3-25.7c-34.3-7.9-49.2-20.3-49.2-45.7c0-13.7,4.8-25.1,14-34.3c9.5-9.5,22.5-14.3,39-14.3
	C1197,208.2,1209.4,213,1218.9,222.2z M1370.6,211.7l-42.2,114.9l-3.2,12.1l-3.2-12.1l-42.2-114.9h-29.2l60.5,159.1l-3.8,10.1
	c-7.1,18.8-21.9,31.4-45.5,31.4h-11.1V440h11.1c36.2,0,60.2-19.8,71.4-49.3l67.8-179H1370.6z M836.6,250.3l6.5,11.3l-114,65.8
	c16.5,24.2,46.1,28,70,14.2c17-9.8,29.4-28,27.9-46.1l23.6-13.6c6.1,32.4-9.5,64.8-39.4,82.1c-19.5,11.3-41.3,15-61.3,9
	S711,354.7,698.5,333c-12.2-21.2-13.6-43.5-9-64.1c4.4-20.9,19.8-38.9,38.2-49.6C762.4,199.3,810.4,205,836.6,250.3z M717.1,306.1
	l88.9-51.4c-13.8-23.2-43.8-26.1-65.6-13.4C718.6,253.9,707,281.5,717.1,306.1z"/>
</svg>
